<?xml version="1.0" encoding="UTF-8"?>
<svg version="1.1" xmlns="http://www.w3.org/2000/svg" width="1987" height="852">
<path d="M0 0 C4.65297442 1.12537056 7.3830075 4.14654624 10.51953125 7.609375 C11.03386719 8.1765625 11.54820312 8.74375 12.078125 9.328125 C13.17976865 10.58086691 14.2685255 11.84500125 15.34765625 13.1171875 C18.28161537 16.48385282 21.33863788 19.72855205 24.39453125 22.984375 C33.07364226 32.26010305 33.07364226 32.26010305 36.76953125 36.296875 C37.4553125 37.04324219 38.14109375 37.78960937 38.84765625 38.55859375 C40.51953125 40.609375 40.51953125 40.609375 42.51953125 44.609375 C73.20953125 44.609375 103.89953125 44.609375 135.51953125 44.609375 C135.51953125 77.279375 135.51953125 109.949375 135.51953125 143.609375 C144.86394531 143.63443115 154.20835937 143.6594873 163.8359375 143.68530273 C193.8541945 143.76643842 223.87243717 143.85207657 253.89067358 143.94049194 C258.56611301 143.95425885 263.24155256 143.96798634 267.91699219 143.98168945 C269.31298084 143.98578191 269.31298084 143.98578191 270.73717129 143.98995704 C285.73728779 144.0338375 300.73741127 144.07453722 315.73753989 144.11402761 C331.16915431 144.15472604 346.60075598 144.19892108 362.03235149 144.24625355 C371.52761983 144.27527091 381.0228876 144.30167347 390.51817274 144.32455397 C397.0603933 144.34058189 403.60259841 144.36005529 410.14480162 144.38204341 C413.8995588 144.39456732 417.65430487 144.40576054 421.40907669 144.41279411 C435.7845783 144.44080193 450.15613214 144.55254691 464.52647078 144.95865435 C466.49863182 145.0142436 468.47092366 145.06513247 470.44321728 145.11580032 C510.70659794 146.38622861 551.44616166 156.64356127 587.51953125 174.609375 C588.43250977 175.06038574 589.34548828 175.51139648 590.28613281 175.97607422 C614.21653095 187.88481465 635.42954804 202.00899988 655.51953125 219.609375 C656.23681396 220.23690674 656.95409668 220.86443848 657.69311523 221.51098633 C664.21547808 227.29486948 670.42093826 233.35642141 676.57055664 239.5300293 C678.21192921 241.17678904 679.85861944 242.81809595 681.50585938 244.45898438 C690.24786076 253.19604277 690.24786076 253.19604277 693.9140625 257.51171875 C699.38021534 263.91093465 705.54083801 269.69543295 711.51953125 275.609375 C725.3963331 289.33588657 725.3963331 289.33588657 730.609375 295.4765625 C735.48821232 300.92409864 740.82107567 305.96947001 746.01953125 311.109375 C759.9387648 324.87183521 759.9387648 324.87183521 765.19482422 331.05322266 C766.82596336 332.9693452 768.54887713 334.77207289 770.33203125 336.546875 C770.89535156 337.11277344 771.45867188 337.67867188 772.0390625 338.26171875 C773.49668697 339.71102672 773.49668697 339.71102672 775.51953125 340.609375 C775.51953125 341.269375 775.51953125 341.929375 775.51953125 342.609375 C776.22634033 342.59366455 776.93314941 342.5779541 777.66137695 342.56176758 C835.88880977 341.45129026 893.70598647 356.543702 946.51953125 380.609375 C947.5760791 381.09019531 948.63262695 381.57101562 949.72119141 382.06640625 C982.4681285 397.10331573 1012.35121406 415.92657906 1039.51953125 439.609375 C1040.27459961 440.26752197 1040.27459961 440.26752197 1041.04492188 440.93896484 C1047.00369145 446.16557891 1052.44820377 451.52803471 1057.51953125 457.609375 C1058.35097656 458.55296875 1059.18242188 459.4965625 1060.0390625 460.46875 C1066.97369195 468.37452298 1073.04825451 476.62691535 1078.51953125 485.609375 C1078.90882812 486.24794434 1079.298125 486.88651367 1079.69921875 487.54443359 C1084.64191233 495.8313238 1088.32310725 504.31317596 1091.328125 513.4765625 C1091.6697316 514.51085892 1092.0113382 515.54515533 1092.36329651 516.61079407 C1096.3490569 528.88130234 1099.66249386 541.32691359 1102.95703125 553.796875 C1103.58594832 556.15056179 1104.21550335 558.5040782 1104.84570312 560.85742188 C1107.134155 569.43244783 1107.134155 569.43244783 1108.24780273 573.64916992 C1108.5813401 574.90959358 1108.5813401 574.90959358 1108.9216156 576.19548035 C1113.31588868 593.93596314 1111.42376681 612.09703915 1102.28125 627.91796875 C1099.07553314 632.81539429 1095.40021608 637.23611611 1091.51953125 641.609375 C1090.88144531 642.34285156 1090.24335937 643.07632813 1089.5859375 643.83203125 C1078.5504307 655.73936603 1063.41765611 660.57002808 1047.5625 661.84765625 C1039.55716871 662.05572916 1032.59026085 661.22696216 1026.4140625 655.73828125 C1020.60609091 649.4034009 1019.0325722 644.16432365 1019.2109375 635.61328125 C1019.93646356 628.55088205 1023.29886684 624.27294312 1028.640625 619.8359375 C1033.89911681 616.40315906 1039.45251573 616.02708413 1045.54882812 615.48632812 C1051.24896972 614.88659759 1055.55834155 613.5145307 1059.70703125 609.484375 C1063.97002276 602.72238847 1065.57217397 595.80385567 1063.97644043 587.92938232 C1063.17819722 584.68581848 1062.32484091 581.46182589 1061.44921875 578.23828125 C1061.13050812 577.04315414 1060.81179749 575.84802704 1060.48342896 574.61668396 C1059.63412102 571.44325966 1058.77643831 568.27224127 1057.91583252 565.10186768 C1057.05931949 561.93083401 1056.22100143 558.75496572 1055.37890625 555.58007812 C1047.62022266 526.59029755 1037.49480413 503.31106426 1016.51953125 481.609375 C1015.71902344 480.75730469 1014.91851563 479.90523437 1014.09375 479.02734375 C1007.45857061 472.13153538 1000.15916355 466.33179756 992.51953125 460.609375 C991.96813477 460.19187988 991.41673828 459.77438477 990.84863281 459.34423828 C965.67654507 440.37865753 936.84252373 425.90668668 907.51953125 414.609375 C906.52808105 414.22442871 905.53663086 413.83948242 904.51513672 413.44287109 C866.24776977 398.72655002 824.79272982 388.42671437 783.60468674 388.47515392 C782.22012456 388.47319694 780.83556295 388.47080657 779.45100218 388.46802595 C775.65789025 388.46166622 771.86479962 388.46146108 768.07168339 388.46230336 C763.94054396 388.46213306 759.80941197 388.45621806 755.6782763 388.4510625 C747.49003665 388.44175818 739.3018024 388.43781813 731.11355812 388.43554353 C721.30362907 388.43257591 711.49370715 388.42387539 701.68378185 388.41512925 C677.97856053 388.39430962 654.27333798 388.38382002 630.56810964 388.37499965 C619.3529411 388.37079067 608.13777308 388.36556911 596.92260498 388.36031512 C558.52642656 388.34242947 520.13024798 388.32743264 481.73406601 388.31999493 C479.32477053 388.31952017 476.91547506 388.31904428 474.50617959 388.31856726 C473.31140388 388.31833089 472.11662818 388.31809451 470.88564716 388.31785097 C464.83245618 388.31664979 458.7792652 388.31543433 452.72607422 388.31420898 C451.5248093 388.31396883 450.32354438 388.31372868 449.0858775 388.31348126 C410.12326295 388.30558536 371.16067882 388.2821452 332.19807756 388.24965304 C290.99641054 388.21535639 249.79476133 388.19564409 208.59307981 388.19235069 C204.07046842 388.19193315 199.54785704 388.19145359 195.02524567 388.19092751 C193.91166608 388.19080431 192.79808649 388.19068112 191.65076206 388.1905542 C173.73177944 388.18822234 155.81283217 388.17256361 137.89386214 388.15208566 C119.88535877 388.13183172 101.87689787 388.1263484 83.86838523 388.13585629 C73.17131263 388.14107237 62.47438142 388.13518852 51.77732916 388.11332162 C44.62820915 388.09981223 37.47918643 388.10089178 30.33006544 388.11372358 C26.25923085 388.12061907 22.18866655 388.12129384 18.11785612 388.10416349 C14.40656154 388.08867371 10.69575259 388.09197043 6.98447176 388.10957377 C5.03740852 388.11415582 3.09032819 388.0993087 1.14332443 388.08341399 C-16.4899728 388.22068143 -32.40951013 394.02554885 -45.2578125 406.3515625 C-45.99128906 407.09664063 -46.72476563 407.84171875 -47.48046875 408.609375 C-48.16238281 409.29257812 -48.84429687 409.97578125 -49.546875 410.6796875 C-67.22135908 429.49803172 -65.51985405 463.8378887 -65.39215541 487.95898914 C-65.37623088 492.39654604 -65.40053467 496.83390639 -65.4200592 501.27142334 C-65.45096399 509.62524754 -65.44715961 517.97865717 -65.42998463 526.33250594 C-65.41214622 535.86389027 -65.43437225 545.39506033 -65.45949161 554.92641306 C-65.51017068 574.48748258 -65.51207098 594.04827361 -65.48046875 613.609375 C-64.91650391 613.58842773 -64.35253906 613.56748047 -63.77148438 613.54589844 C-61.17466626 613.46188999 -58.57813513 613.41045271 -55.98046875 613.359375 C-55.09359375 613.32585938 -54.20671875 613.29234375 -53.29296875 613.2578125 C-46.16679976 613.1530159 -41.06106834 614.71816394 -35.4921875 619.21484375 C-30.72462186 624.91060801 -28.00946518 630.75172346 -28.60546875 638.296875 C-29.85775385 645.95712957 -33.69188369 650.30963963 -39.41796875 655.296875 C-45.1227015 658.92715948 -50.87989906 658.91672271 -57.41015625 658.91015625 C-58.8339006 658.91658394 -58.8339006 658.91658394 -60.28640747 658.92314148 C-62.28842371 658.92886787 -64.29046076 658.92939754 -66.29248047 658.92504883 C-69.33858133 658.9218925 -72.38370677 658.94535686 -75.4296875 658.97070312 C-77.3815092 658.97297681 -79.33333349 658.97367929 -81.28515625 658.97265625 C-82.18748993 658.981866 -83.08982361 658.99107574 -84.01950073 659.00056458 C-91.53111969 658.94621915 -97.99959196 657.4930505 -103.79296875 652.359375 C-104.74623047 651.54726562 -104.74623047 651.54726562 -105.71875 650.71875 C-110.23022799 645.31698034 -110.92156478 639.90844981 -110.8681488 633.14408875 C-110.87353434 632.31776327 -110.87891988 631.4914378 -110.88446862 630.64007217 C-110.89872033 627.88448756 -110.89165113 625.12938525 -110.88452148 622.3737793 C-110.89022694 620.39212153 -110.89719187 618.41046706 -110.90531921 616.42881775 C-110.92325773 611.05211468 -110.92207951 605.67557478 -110.91637683 600.29885077 C-110.9132824 595.79925487 -110.91938109 591.29969018 -110.92541558 586.80009872 C-110.93946486 576.17066109 -110.93789942 565.5413038 -110.92651367 554.91186523 C-110.9150644 543.98238002 -110.92905343 533.05314111 -110.95591015 522.1236884 C-110.97815336 512.7161076 -110.98468423 503.30860361 -110.97883373 493.90099841 C-110.97547959 488.29344819 -110.9777744 482.68605534 -110.99508476 477.07852745 C-111.01068684 471.79327842 -111.00645295 466.50838955 -110.98777962 461.22315407 C-110.98412844 459.2972533 -110.98709906 457.37132508 -110.99766541 455.44544983 C-111.07462791 440.24063543 -109.59160103 426.08037537 -103.27734375 412.10546875 C-97.53941256 399.05808786 -94.71748462 384.90719422 -91.33035278 371.10776901 C-90.30664271 366.95088352 -89.26727698 362.79792065 -88.22851562 358.64477539 C-87.80123317 356.93566278 -87.37398729 355.22654102 -86.94677734 353.51741028 C-86.62703949 352.2382521 -86.62703949 352.2382521 -86.30084229 350.93325233 C-85.64926416 348.32360335 -84.99941775 345.71352893 -84.35009766 343.10331726 C-81.50355764 331.66466725 -78.61589347 320.23727677 -75.68359375 308.8203125 C-75.48878355 308.06180307 -75.29397335 307.30329365 -75.09325981 306.52179909 C-73.14108526 298.92454508 -71.18222415 291.32901582 -69.22348309 283.7334528 C-68.24224489 279.92789781 -67.26166409 276.12217362 -66.28125 272.31640625 C-66.08682375 271.56202963 -65.8923975 270.80765301 -65.69207954 270.03041649 C-62.95638395 259.41161793 -60.25774694 248.78394961 -57.58505249 238.14912415 C-56.07831966 232.15387845 -54.56264446 226.16090338 -53.04509544 220.16838741 C-51.81167582 215.29429545 -50.59014753 210.41743049 -49.37765026 205.53809452 C-48.624521 202.52000122 -47.85971102 199.50495512 -47.09179115 196.49059486 C-46.74138908 195.10530112 -46.39571281 193.71880089 -46.0554409 192.33098412 C-41.98702829 175.7615784 -35.10864813 161.20699788 -20.16796875 152.08129883 C-10.94156589 146.8156376 -1.98218496 143.54641108 8.7109375 143.58984375 C10.06167358 143.59407349 10.06167358 143.59407349 11.43969727 143.59838867 C12.12604248 143.60201416 12.8123877 143.60563965 13.51953125 143.609375 C13.71449694 134.0893264 13.83169879 124.57222828 13.85375023 115.05020046 C13.86635032 110.62679411 13.90420829 106.20681286 14.00292969 101.78442383 C15.48920793 80.08110096 15.48920793 80.08110096 7.64358521 60.87538147 C5.29629939 58.61734684 2.87747777 56.65071039 0.1885376 54.81520081 C-2.30702558 53.01220318 -4.19254729 50.76573675 -6.16796875 48.421875 C-8.53104547 45.77115786 -10.90981039 43.13958308 -13.33203125 40.54296875 C-13.82356689 40.01405029 -14.31510254 39.48513184 -14.8215332 38.94018555 C-16.21142805 37.44697679 -17.60558359 35.95773722 -19 34.46875 C-25.24292498 27.27218136 -25.24292498 27.27218136 -25.98046875 22.109375 C-24.99745801 15.22829985 -20.59823295 11.52250715 -15.48046875 7.2890625 C-13.50699215 5.69107556 -13.50699215 5.69107556 -11.98046875 4.0546875 C-8.30875283 0.36210956 -5.003743 -0.27006709 0 0 Z M1.51953125 191.609375 C-0.32486925 194.37597575 -0.87096276 195.66840357 -1.53125 198.7902832 C-1.7279126 199.68772751 -1.9245752 200.58517181 -2.12719727 201.5098114 C-2.34690186 202.5288002 -2.56660645 203.547789 -2.79296875 204.59765625 C-5.79206797 218.0137555 -9.14496496 231.33247177 -12.54296875 244.65234375 C-12.82017761 245.73959873 -13.09738647 246.82685371 -13.38299561 247.94705582 C-15.11694405 254.74471434 -16.85551851 261.54118317 -18.59533691 268.33734131 C-19.77492822 272.94776846 -20.95183652 277.55887848 -22.12861633 282.17002392 C-23.55745481 287.76853882 -24.9875651 293.36672856 -26.41796875 298.96484375 C-26.68078644 299.99360312 -26.94360413 301.02236248 -27.21438599 302.08229637 C-27.97820082 305.07090286 -28.74284413 308.05929601 -29.5078125 311.04760742 C-29.75034256 311.99629291 -29.99287262 312.94497839 -30.24275208 313.92241192 C-31.53954304 318.98326184 -32.85462489 324.03870484 -34.19189453 329.08901978 C-34.47094131 330.1460098 -34.7499881 331.20299982 -35.03749084 332.29201984 C-35.57368088 334.31941593 -36.11295644 336.34599923 -36.65574646 338.3716383 C-36.89511429 339.27741273 -37.13448212 340.18318716 -37.38110352 341.1164093 C-37.59388443 341.91378163 -37.80666534 342.71115396 -38.02589417 343.53268909 C-38.58738442 345.74350102 -38.58738442 345.74350102 -38.48046875 348.609375 C-37.12630208 348.33854167 -35.77213542 348.06770833 -34.41796875 347.796875 C-33.52521272 347.62293874 -32.63245668 347.44900248 -31.71264744 347.26979542 C-29.57569338 346.83315864 -27.44563465 346.36113572 -25.32469845 345.85235882 C-14.64226092 343.41376133 -4.34187622 343.16678193 6.58178711 343.17700195 C8.55442409 343.16796568 10.5270555 343.15763395 12.49967957 343.14611816 C17.80855455 343.11874098 23.11732243 343.10929007 28.4262588 343.10326409 C33.99161754 343.09382982 39.55689785 343.06762264 45.12220764 343.04325867 C55.64023469 342.99972826 66.1582464 342.97109884 76.67633587 342.94793528 C90.90403837 342.9157308 105.13164952 342.86028004 119.35928249 342.80618954 C141.74600478 342.72168782 164.13269185 342.66804814 186.51953125 342.609375 C186.51953125 291.789375 186.51953125 240.969375 186.51953125 188.609375 C154.85157371 188.52199128 154.85157371 188.52199128 123.18359375 188.46289062 C110.27209911 188.44508008 97.36066315 188.4241264 84.44921875 188.38305664 C75.04646579 188.35316186 65.64376036 188.33380178 56.24096119 188.32710952 C51.2619082 188.32319741 46.2829912 188.31399821 41.30398178 188.29218483 C36.61728245 188.27181849 31.9307751 188.26554152 27.24403572 188.27005196 C25.52433415 188.26922682 23.80462614 188.26326205 22.08496284 188.25175858 C19.73527012 188.23681196 17.38630036 188.24042901 15.03659058 188.24861145 C13.72211378 188.24584607 12.40763699 188.24308069 11.05332756 188.24023151 C7.19014708 188.64378276 4.79802569 189.55357125 1.51953125 191.609375 Z M231.51953125 190.609375 C231.51953125 240.769375 231.51953125 290.929375 231.51953125 342.609375 C389.91953125 342.609375 548.31953125 342.609375 711.51953125 342.609375 C709.0185827 338.44112742 707.04813372 335.91159532 703.66015625 332.58984375 C703.19268982 332.12757889 702.72522339 331.66531403 702.24359131 331.18904114 C700.75696272 329.72009578 699.26381305 328.25803113 697.76953125 326.796875 C692.07207746 321.20697328 686.43297488 315.6337632 681.24511719 309.55981445 C677.856905 305.73009923 674.16413015 302.19282291 670.51953125 298.609375 C668.97534604 297.09109894 667.43364919 295.57028765 665.89453125 294.046875 C665.22164062 293.38558594 664.54875 292.72429687 663.85546875 292.04296875 C661.89442569 289.99994229 660.03464053 287.92022204 658.18188477 285.78051758 C654.77130702 281.85629276 651.20939957 278.1221455 647.546875 274.43359375 C646.90190567 273.78292435 646.25693634 273.13225494 645.59242249 272.46186829 C644.2349563 271.0950282 642.8760874 269.72957988 641.51586914 268.36547852 C639.47917149 266.31912026 637.45344076 264.26230918 635.42773438 262.20507812 C627.25771841 253.96874538 618.85155214 246.5016028 609.51953125 239.609375 C608.76486572 239.04822998 608.0102002 238.48708496 607.23266602 237.90893555 C605.45147 236.61118428 603.65367717 235.34953 601.83203125 234.109375 C601.18032959 233.66489014 600.52862793 233.22040527 599.85717773 232.76245117 C572.06558773 214.10046561 540.7503198 200.71976507 507.83203125 194.359375 C507.05037598 194.20831299 506.2687207 194.05725098 505.46337891 193.90161133 C488.82191657 190.89147944 472.59963779 190.32748845 455.73217773 190.38232422 C453.27649948 190.38288946 450.82082088 190.38256957 448.36514282 190.38143921 C443.11285411 190.38098667 437.86061048 190.38658635 432.60833549 190.39791489 C425.01476134 190.41428252 417.42121111 190.41938931 409.82762123 190.42189087 C397.50266149 190.42625047 385.17772847 190.43951206 372.8527832 190.45849609 C360.89184703 190.4769001 348.93091818 190.4910114 336.9699707 190.49951172 C336.22316841 190.50004771 335.47636611 190.50058371 334.70693344 190.50113595 C328.20916632 190.50576266 321.71139899 190.51006777 315.21363163 190.51434135 C287.315573 190.53310552 259.41758536 190.57296249 231.51953125 190.609375 Z " fill="#000000" transform="translate(543.48046875,76.390625)"/>
<path d="M0 0 C1.38627943 -0.00461206 2.77255396 -0.01096704 4.1588183 -0.01890898 C7.95862048 -0.03558399 11.75802004 -0.02736445 15.55782354 -0.0149641 C19.65948721 -0.00590828 23.76108198 -0.01988603 27.86273193 -0.03088379 C35.89435048 -0.04866841 43.92581948 -0.04482916 51.95744389 -0.03323323 C58.48563468 -0.02419832 65.01378358 -0.02297515 71.54197884 -0.02732849 C72.471242 -0.02794142 73.40050516 -0.02855436 74.35792782 -0.02918586 C76.24574324 -0.03046477 78.13355865 -0.03176162 80.02137405 -0.03307623 C97.72299406 -0.04448202 115.42453121 -0.03136866 133.12613762 -0.00987476 C148.31163672 0.00799327 163.49701349 0.00489454 178.68251038 -0.0135498 C196.31939523 -0.0349616 213.95620744 -0.04338028 231.59310347 -0.03110075 C233.47426544 -0.02982656 235.35542743 -0.02856908 237.23658943 -0.02732849 C238.16213987 -0.02671139 239.08769031 -0.02609429 240.04128773 -0.02545848 C246.56036901 -0.0220063 253.07940418 -0.02783117 259.59847832 -0.0372467 C267.54498532 -0.04847163 275.4913343 -0.04541639 283.43782323 -0.02412373 C287.49150979 -0.01361947 291.544933 -0.00948067 295.59861755 -0.02272034 C299.31150623 -0.0346634 303.02388812 -0.02805067 306.736731 -0.00681013 C308.71182448 -0.00024458 310.6869533 -0.01326319 312.66200966 -0.02703905 C320.67341543 0.04365858 326.0710466 0.96708041 332.44447327 6.11340332 C339.2115841 14.19800476 339.89727097 22.5271875 339.8253355 32.78178501 C339.82879704 33.99935679 339.83225857 35.21692858 339.835825 36.47139648 C339.84238724 39.84440679 339.83553917 43.2169025 339.8229906 46.58986341 C339.81265745 50.26171254 339.81980618 53.93353491 339.82472306 57.60538954 C339.83093676 64.0383585 339.82602585 70.47124414 339.81380844 76.90420341 C339.79569218 86.46973953 339.79480207 96.03522317 339.79743441 105.60077331 C339.80137501 121.69206143 339.79135605 137.78331257 339.77338219 153.87458992 C339.75563134 169.80705002 339.74408439 185.73949473 339.74082375 201.67196465 C339.74061753 202.66258394 339.74041131 203.65320323 339.74019884 204.67384128 C339.73918384 209.70469276 339.73827969 214.73554424 339.73741821 219.76639574 C339.73111692 255.4002232 339.71090468 291.03403055 339.68251038 326.66784668 C339.65495748 361.28568413 339.63370644 395.90351608 339.62098694 430.5213623 C339.62059236 431.58842855 339.62019778 432.65549479 339.61979125 433.75489637 C339.61583569 444.4708107 339.61200825 455.18672507 339.60827467 465.90263947 C339.60066602 487.73220733 339.59220226 509.56177483 339.58322144 531.39134216 C339.58280957 532.39503113 339.5823977 533.3987201 339.58197335 534.43282389 C339.55437119 601.45786915 339.50683557 668.48290325 339.45619202 735.50793457 C340.26250061 735.4869873 341.0688092 735.46604004 341.89955139 735.44445801 C345.58496929 735.36084284 349.27018696 735.30912909 352.95619202 735.25793457 C354.22462952 735.22441895 355.49306702 735.19090332 356.79994202 735.15637207 C365.35986031 735.06720625 371.11998273 735.64009632 377.69837952 741.50793457 C378.23720764 742.16793457 378.77603577 742.82793457 379.33119202 743.50793457 C379.88548889 744.16793457 380.43978577 744.82793457 381.01087952 745.50793457 C385.65737508 751.93767978 385.22923148 758.86611738 384.45619202 766.50793457 C382.44064904 772.38360228 377.66328371 777.21814223 372.45619202 780.50793457 C367.7419159 782.41658075 363.47912759 782.79017161 358.45582771 782.75403023 C357.66381088 782.75633792 356.87179405 782.7586456 356.05577672 782.76102322 C353.39758874 782.76632374 350.73964227 782.75733867 348.08146667 782.7484436 C346.1582556 782.74931566 344.23504475 782.75106664 342.31183517 782.75362194 C337.02362909 782.75809946 331.73550384 782.75008617 326.44730806 782.74006581 C320.74592877 782.73143948 315.04455415 782.7343509 309.34317017 782.73587036 C299.46400495 782.73691973 289.58486613 782.7306377 279.70570755 782.71939468 C265.42205524 782.70314968 251.1384157 782.6979327 236.85475515 782.6954187 C213.68120308 782.69104003 190.50766601 782.67774342 167.3341217 782.65881348 C144.82142714 782.6404446 122.30873633 782.62627737 99.79603577 782.61779785 C98.7551155 782.61740327 98.7551155 782.61740327 97.69316655 782.61700072 C90.72426333 782.61436368 83.75536008 782.61181205 76.78645681 782.609323 C18.34302586 782.58844105 -40.10039091 782.55314867 -98.54380798 782.50793457 C-97.14396405 778.91706398 -95.55368548 775.51303739 -93.77696228 772.09094238 C-87.61031895 760.17519636 -83.82071362 748.6155571 -80.54380798 735.50793457 C-32.36380798 735.50793457 15.81619202 735.50793457 65.45619202 735.50793457 C65.45619202 570.83793457 65.45619202 406.16793457 65.45619202 236.50793457 C59.51619202 238.15793457 53.57619202 239.80793457 47.45619202 241.50793457 C42.88434681 242.67299711 38.31373507 243.82047289 33.72962952 244.93371582 C31.8232127 245.40071598 29.91679663 245.86771916 28.0104084 246.33483601 C26.00242216 246.82636012 23.99412508 247.31659437 21.98573303 247.80645752 C14.74236404 249.57349577 7.50174872 251.3517803 0.26087952 253.12902832 C-0.48263512 253.31143318 -1.22614975 253.49383804 -1.99219513 253.68177032 C-17.03640772 257.37310627 -32.06516786 261.1248167 -47.09027863 264.89303207 C-70.72776202 270.82079665 -94.38039313 276.6845716 -118.04380798 282.50793457 C-141.57524918 288.29919843 -165.09774743 294.12444378 -188.60630798 300.00793457 C-189.94177692 300.34208423 -191.27724647 300.67623139 -192.61271667 301.01037598 C-204.50999403 303.98748257 -216.40611699 306.96915651 -228.29971313 309.9609375 C-232.13389166 310.92518395 -235.96844948 311.88791632 -239.80305481 312.85046387 C-242.338284 313.48769483 -244.87282828 314.12759645 -247.40733337 314.7677002 C-248.88768844 315.1395736 -250.36807361 315.51132721 -251.84849548 315.88293457 C-253.10645935 316.20004395 -254.36442322 316.51715332 -255.6605072 316.84387207 C-258.54380798 317.50793457 -258.54380798 317.50793457 -260.54380798 317.50793457 C-260.54380798 329.38793457 -260.54380798 341.26793457 -260.54380798 353.50793457 C-278.54380798 353.50793457 -278.54380798 353.50793457 -284.21177673 349.63293457 C-285.76725081 347.96906054 -287.27468321 346.2589973 -288.73130798 344.50793457 C-289.88082947 343.24916504 -289.88082947 343.24916504 -291.05357361 341.96496582 C-293.26935121 339.51983912 -295.41103441 337.02550508 -297.54380798 334.50793457 C-298.87059966 332.98480153 -300.19981434 331.4637738 -301.53208923 329.94543457 C-302.09065613 329.30477051 -302.64922302 328.66410645 -303.22471619 328.00402832 C-303.9758136 327.15214512 -304.74073504 326.31100751 -305.54380798 325.50793457 C-305.86114329 320.97133872 -305.90096249 316.42886085 -305.94883728 311.88269043 C-305.9702614 310.35706734 -306.00417615 308.83156182 -306.05137634 307.30651855 C-306.30823164 298.92718573 -306.30489753 291.84138034 -301.52452087 284.5838623 C-295.45213837 278.21957431 -289.34828552 276.22546834 -280.99302673 274.16027832 C-279.85596786 273.86701157 -278.718909 273.57374481 -277.5473938 273.27159119 C-273.8837195 272.33282163 -270.21473397 271.41790261 -266.54380798 270.50793457 C-265.35499023 270.21042297 -264.16617249 269.91291138 -262.94132996 269.60638428 C-255.43746947 267.73006874 -247.9256225 265.88748863 -240.41023254 264.0579834 C-233.28318557 262.32283747 -226.15941289 260.57431863 -219.03599548 258.82434082 C-218.3064736 258.64516743 -217.57695171 258.46599403 -216.8253231 258.28139114 C-201.18967278 254.43898863 -185.58259991 250.48719631 -169.98130798 246.50793457 C-164.77571347 245.18058311 -159.57001733 243.85363106 -154.36412048 242.52746582 C-153.39593761 242.28080044 -153.39593761 242.28080044 -152.4081955 242.02915192 C-136.73598551 238.03765378 -121.04734029 234.1121806 -105.35630798 230.19543457 C-103.50064713 229.73221802 -103.50064713 229.73221802 -101.60749817 229.25964355 C-96.80521071 228.06115185 -92.00284178 226.86298792 -87.20029259 225.66554546 C-75.31185607 222.70102727 -63.42522698 219.72929028 -51.53868103 216.75720215 C-49.49218085 216.2455329 -47.44567969 215.73386753 -45.39917755 215.22220612 C-40.44737653 213.98416025 -35.49558855 212.74606224 -30.54380798 211.50793457 C-30.54160814 210.01925999 -30.54160814 210.01925999 -30.53936386 208.50051117 C-30.50276099 184.34660787 -30.44330098 160.19284316 -30.35990524 136.03905487 C-30.32010417 124.35843171 -30.28771706 112.67787603 -30.27281189 100.99719238 C-30.25980096 90.81572954 -30.23285045 80.6344151 -30.18919492 70.45303583 C-30.16656769 65.06257477 -30.15089807 59.67229683 -30.15192413 54.28178406 C-30.15266999 49.20591145 -30.13474883 44.13044387 -30.10264015 39.05467606 C-30.094136 37.19393893 -30.09239472 35.3331564 -30.09800529 33.47240829 C-30.10465903 30.92612162 -30.08669267 28.38111845 -30.06278992 25.83496094 C-30.07443054 24.73764908 -30.07443054 24.73764908 -30.08630633 23.61816931 C-29.97511123 16.89933596 -27.52638684 11.86559592 -23.23130798 6.75793457 C-15.49661291 0.2823759 -9.9393896 -0.0692058 0 0 Z M17.45619202 47.50793457 C17.45619202 97.99793457 17.45619202 148.48793457 17.45619202 200.50793457 C38.90619202 195.22793457 60.35619202 189.94793457 82.45619202 184.50793457 C115.2208979 184.50793457 115.2208979 184.50793457 124.76869202 190.63293457 C129.16269686 195.33349789 131.56849361 201.10879449 131.95619202 207.57043457 C131.10015529 214.31172377 128.38163816 220.71930637 123.45619202 225.50793457 C118.97356058 228.25907747 114.46613019 229.83795518 109.45619202 231.50793457 C109.45619202 344.69793457 109.45619202 457.88793457 109.45619202 574.50793457 C148.72619202 574.83793457 187.99619202 575.16793457 228.45619202 575.50793457 C235.58277986 578.5621865 240.28777319 580.96618381 244.33119202 587.57043457 C246.11621111 592.23131776 246.58318208 596.44992379 246.6144104 601.42414856 C246.62909363 603.20143089 246.62909363 603.20143089 246.64407349 605.01461792 C246.64982895 606.30574493 246.65558441 607.59687195 246.66151428 608.92712402 C246.67109952 610.30715728 246.68110998 611.68718763 246.69151306 613.06721497 C246.71849826 616.80645048 246.73954229 620.54569853 246.75951505 624.2849772 C246.78141408 628.19543496 246.80878357 632.10585435 246.83557129 636.01628113 C246.88544526 643.41803076 246.9304037 650.81980176 246.97359365 658.22159308 C247.02301133 666.64962719 247.07791264 675.0776228 247.13327324 683.50561965 C247.24701199 700.83969043 247.35314477 718.1737967 247.45619202 735.50793457 C262.30619202 735.50793457 277.15619202 735.50793457 292.45619202 735.50793457 C292.12619202 508.46793457 291.79619202 281.42793457 291.45619202 47.50793457 C201.03619202 47.50793457 110.61619202 47.50793457 17.45619202 47.50793457 Z M109.45619202 621.50793457 C109.45619202 659.12793457 109.45619202 696.74793457 109.45619202 735.50793457 C139.48619202 735.50793457 169.51619202 735.50793457 200.45619202 735.50793457 C200.45619202 697.88793457 200.45619202 660.26793457 200.45619202 621.50793457 C170.42619202 621.50793457 140.39619202 621.50793457 109.45619202 621.50793457 Z " fill="#000000" transform="translate(1602.5438079833984,26.4920654296875)"/>
<path d="M0 0 C1.24415176 -0.0034177 2.48830353 -0.0068354 3.77015686 -0.01035666 C7.20710236 -0.01579004 10.64312896 -0.00335225 14.07996297 0.01675558 C17.79219443 0.03407722 21.50439902 0.02818056 25.21665955 0.02514648 C31.64288002 0.02305209 38.06893767 0.03557049 44.49511719 0.05809784 C53.78619266 0.090647 63.07718963 0.10102783 72.36831594 0.10604981 C87.4435866 0.11479789 102.51877054 0.14140025 117.59399414 0.17926025 C132.2355913 0.21599295 146.87716488 0.24429855 161.51879883 0.2612915 C162.4217567 0.2623424 163.32471457 0.26339329 164.2550348 0.26447603 C168.78504317 0.26969629 173.3150517 0.2747511 177.84506035 0.27972364 C215.40840549 0.32117052 252.97165204 0.39160568 290.53491211 0.48101807 C289.91323151 2.01095146 289.91323151 2.01095146 289.2789917 3.5717926 C288.73103091 4.92860775 288.18320693 6.28547816 287.63549805 7.64239502 C287.22646744 8.64744457 287.22646744 8.64744457 286.80917358 9.67279816 C284.69671396 14.91819203 283.06081579 20.15643057 281.78491211 25.66851807 C281.49293945 26.84704346 281.49293945 26.84704346 281.19506836 28.04937744 C279.63628623 34.50943088 278.6339193 40.8869749 277.53491211 47.48101807 C192.06491211 47.48101807 106.59491211 47.48101807 18.53491211 47.48101807 C18.53491211 274.19101807 18.53491211 500.90101807 18.53491211 734.48101807 C33.05491211 734.81101807 47.57491211 735.14101807 62.53491211 735.48101807 C62.51134644 729.19019165 62.51134644 729.19019165 62.48730469 722.77227783 C62.43757853 708.91024907 62.40429804 695.04822164 62.37947559 681.18612766 C62.36402597 672.78218085 62.34297298 664.37831872 62.30859375 655.97442627 C62.27863295 648.647093 62.25932327 641.31982107 62.25264663 633.99242824 C62.24874565 630.11488081 62.23961783 626.23750882 62.21772194 622.36001778 C62.19725101 618.70501006 62.19109954 615.05024889 62.19558907 611.39518929 C62.19437948 609.42522144 62.17829312 607.45528 62.16165161 605.48538208 C62.19741949 595.16130539 63.57583105 587.75452917 70.76538086 580.14117432 C102.34174727 550.51654799 157.23727475 574.48101807 200.53491211 574.48101807 C200.03991211 404.69601807 200.03991211 404.69601807 199.53491211 231.48101807 C196.23491211 230.49101807 192.93491211 229.50101807 189.53491211 228.48101807 C182.94888411 223.91328897 180.03710034 218.98758276 177.53491211 211.48101807 C176.94387894 204.74323998 178.1206411 199.36967649 181.53491211 193.48101807 C186.58410739 187.51581833 192.67632501 184.09837881 200.45239258 183.11030579 C221.11260722 181.81076004 239.48068307 185.47855936 259.26281738 190.89801025 C263.56794249 192.06699527 267.88804663 193.17938927 272.20542908 194.30206299 C278.66057242 195.98698033 285.09363254 197.73950132 291.53491211 199.48101807 C291.86491211 181.99101807 292.19491211 164.50101807 292.53491211 146.48101807 C295.27515306 149.90631926 297.37050229 152.78348463 299.53491211 156.48101807 C303.64937861 163.0271607 308.68874994 168.39933374 314.05786133 173.91314697 C315.44482701 175.38539385 316.74572471 176.93739329 318.03881836 178.49273682 C322.78215851 183.97063047 325.80334275 186.05944564 333.15991211 186.60601807 C335.26366211 186.56476807 337.36741211 186.52351807 339.53491211 186.48101807 C339.86491211 194.73101807 340.19491211 202.98101807 340.53491211 211.48101807 C342.46842529 211.95523193 344.40193848 212.4294458 346.39404297 212.91802979 C352.76998021 214.48383616 359.14401096 216.05721308 365.51679134 217.63581657 C369.38204223 218.59298268 373.24800234 219.5470589 377.11572266 220.49420166 C380.84574416 221.40774269 384.5737176 222.32923208 388.30038643 223.25635147 C389.72508781 223.60928436 391.15051272 223.95930922 392.57664299 224.30642319 C394.56853096 224.79175831 396.55763402 225.28721515 398.54638672 225.78521729 C399.68111923 226.06501434 400.81585175 226.3448114 401.98497009 226.63308716 C402.82645096 226.91290436 403.66793182 227.19272156 404.53491211 227.48101807 C405.8192288 230.04965145 405.35330498 230.90921626 404.63867188 233.65533447 C404.41836807 234.51607574 404.19806427 235.37681702 403.97108459 236.26364136 C403.72531174 237.1938913 403.47953888 238.12414124 403.22631836 239.08258057 C402.98074692 240.0341806 402.73517548 240.98578064 402.48216248 241.96621704 C401.69386639 245.0145787 400.8957574 248.06027446 400.09741211 251.10601807 C399.56226017 253.16835035 399.02774658 255.2308484 398.49389648 257.29351807 C397.18164483 262.35796698 395.86132093 267.42025971 394.53491211 272.48101807 C390.46110389 273.58142927 387.69637892 273.2997882 383.62542725 272.27253723 C381.85031265 271.83285614 381.85031265 271.83285614 380.03933716 271.3842926 C378.73670549 271.05027383 377.4341254 270.71605384 376.1315918 270.38165283 C374.75341272 270.03606375 373.37499841 269.69141158 371.99636841 269.34762573 C368.25875938 268.41280166 364.52455134 267.46499498 360.79080105 266.51489377 C356.88544161 265.52355172 352.97702928 264.54439933 349.06890869 263.56401062 C341.66974106 261.70593655 334.27328934 259.83728278 326.87779546 257.96464628 C316.81846093 255.41802425 306.75535699 252.88639627 296.69236231 250.35428417 C294.28091839 249.74748588 291.86948823 249.14063299 289.45806885 248.53373718 C288.6766928 248.33709172 287.89531676 248.14044625 287.09026265 247.93784183 C282.4326211 246.76531661 277.77562568 245.59026501 273.11920881 244.41288579 C270.23052664 243.6825067 267.34164592 242.95291475 264.45275497 242.22336197 C263.10818944 241.88354242 261.76373065 241.54330018 260.419384 241.20261574 C258.592006 240.73953411 256.76424545 240.27796286 254.9364624 239.81648254 C253.91147015 239.55708169 252.88647789 239.29768084 251.83042526 239.03041935 C249.76621382 238.44222419 249.76621382 238.44222419 248.53491211 238.48101807 C248.53491211 402.16101807 248.53491211 565.84101807 248.53491211 734.48101807 C363.37491211 734.97601807 363.37491211 734.97601807 480.53491211 735.48101807 C482.51491211 742.41101807 484.49491211 749.34101807 486.53491211 756.48101807 C488.00322349 760.10665425 489.38700258 763.42417177 491.15991211 766.85601807 C491.52858398 767.60883057 491.89725586 768.36164307 492.27709961 769.13726807 C493.95421931 772.52693957 495.7293522 775.83755452 497.60897827 779.11886597 C498.24453644 780.22837616 498.8800946 781.33788635 499.53491211 782.48101807 C446.6263953 782.53236432 393.71787634 782.58012732 340.80934143 782.60804749 C340.02649376 782.60846166 339.24364608 782.60887583 338.43707575 782.60930255 C321.42439319 782.61828091 304.41171036 782.62659151 287.39902714 782.63421405 C279.05621985 782.63795612 270.71341265 782.64184577 262.37060547 782.64581299 C261.54038824 782.64620527 260.71017102 782.64659754 259.8547957 782.64700171 C232.93670801 782.65978968 206.01863919 782.68232655 179.10056294 782.70990973 C151.44272496 782.73819953 123.78489743 782.75667255 96.12704522 782.76276304 C92.22211299 782.76362752 88.3171808 782.76460443 84.41224861 782.7656498 C83.25940905 782.7659532 83.25940905 782.7659532 82.0832798 782.76626273 C69.70298914 782.76981026 57.32273075 782.78373085 44.94245325 782.80151417 C32.50130146 782.81916415 20.06018171 782.82592495 7.61901783 782.8215222 C0.87599964 782.81943889 -5.86691805 782.82260799 -12.6099205 782.83863449 C-18.77903054 782.85319035 -24.94798158 782.85399845 -31.1170988 782.84371475 C-33.35274337 782.842443 -35.58839771 782.8462849 -37.82402296 782.85566761 C-40.85637629 782.86765747 -43.88815108 782.86124776 -46.92049503 782.85016155 C-47.794122 782.85804259 -48.66774897 782.86592363 -49.56784949 782.87404349 C-56.79590885 782.81408281 -62.18611475 781.05693944 -67.71508789 776.16851807 C-68.68188477 775.33900635 -68.68188477 775.33900635 -69.66821289 774.49273682 C-74.95038456 768.57900114 -75.04667719 762.72787351 -74.87524414 755.11773682 C-74.02727968 747.59911861 -69.90367241 743.43152104 -64.30883789 738.70758057 C-59.90155585 735.77561752 -56.09210214 735.23784899 -50.85180664 735.28570557 C-49.60463867 735.29215088 -48.3574707 735.29859619 -47.07250977 735.30523682 C-45.77893555 735.32199463 -44.48536133 735.33875244 -43.15258789 735.35601807 C-41.83967773 735.3650415 -40.52676758 735.37406494 -39.17407227 735.38336182 C-35.93755876 735.4069001 -32.7014164 735.43978287 -29.46508789 735.48101807 C-29.46555583 734.86171276 -29.46602377 734.24240745 -29.4665059 733.60433531 C-29.51733641 666.19103748 -29.56445385 598.77773745 -29.59211731 531.36442566 C-29.59253148 530.35770583 -29.59294565 529.350986 -29.59337237 528.31375951 C-29.60235074 506.43593417 -29.61066133 484.55810863 -29.61828388 462.68028278 C-29.62202595 451.9516704 -29.6259156 441.22305809 -29.62988281 430.4944458 C-29.63027509 429.42681011 -29.63066737 428.35917441 -29.63107153 427.25918612 C-29.64385951 392.64329254 -29.66639637 358.02741363 -29.69397955 323.41152894 C-29.72226935 287.84433401 -29.74074237 252.27714719 -29.74683286 216.7099412 C-29.74769735 211.68831016 -29.74867426 206.66667915 -29.74971962 201.64504814 C-29.74992189 200.65670235 -29.75012416 199.66835657 -29.75033256 198.65006091 C-29.75388009 182.72936404 -29.76780068 166.80869226 -29.78558399 150.88800563 C-29.80323397 134.88904183 -29.80999477 118.89010294 -29.80559202 102.89112974 C-29.80330732 93.38152489 -29.80942001 83.87201112 -29.82748052 74.36242269 C-29.83871881 68.0121052 -29.83908687 61.66184744 -29.83058333 55.31152585 C-29.82604847 51.69184247 -29.82627104 48.07233151 -29.83973744 44.45266653 C-29.85413416 40.55332285 -29.84531718 36.65422745 -29.83423138 32.75486851 C-29.84211242 31.63140464 -29.84999346 30.50794077 -29.85811332 29.35043254 C-29.79963564 20.28528519 -28.35400742 13.13592193 -22.45336914 6.08648682 C-15.27784694 0.29249934 -8.91439274 -0.08987534 0 0 Z M109.53491211 621.48101807 C109.53491211 659.10101807 109.53491211 696.72101807 109.53491211 735.48101807 C139.56491211 735.48101807 169.59491211 735.48101807 200.53491211 735.48101807 C200.53491211 697.86101807 200.53491211 660.24101807 200.53491211 621.48101807 C170.50491211 621.48101807 140.47491211 621.48101807 109.53491211 621.48101807 Z " fill="#000000" transform="translate(74.465087890625,26.51898193359375)"/>
<path d="M0 0 C11.80818056 10.16648199 20.83385252 22.54305627 27.84765625 36.41015625 C28.15687012 37.01520996 28.46608398 37.62026367 28.78466797 38.24365234 C42.78277104 66.2032717 44.83548851 99.76704157 35.28515625 129.47265625 C30.28493976 144.00207271 22.75806987 157.67063944 12.84765625 169.41015625 C12.0175 170.40273438 11.18734375 171.3953125 10.33203125 172.41796875 C-8.55228051 194.32601019 -36.44741679 209.00193586 -65.15234375 212.41015625 C-70.26014622 212.70048943 -75.34974995 212.73523641 -80.46484375 212.72265625 C-81.76357422 212.73876953 -83.06230469 212.75488281 -84.40039062 212.77148438 C-96.74273727 212.77762179 -108.46092294 210.7152576 -120.15234375 206.72265625 C-120.89943604 206.46919434 -121.64652832 206.21573242 -122.41625977 205.95458984 C-138.86145974 200.14096491 -152.53540167 190.3284403 -165.15234375 178.41015625 C-165.90257812 177.724375 -166.6528125 177.03859375 -167.42578125 176.33203125 C-186.4043835 158.3523028 -199.98795097 130.08289124 -201.3293457 103.96362305 C-201.87756954 71.71888793 -201.87756954 71.71888793 -197.15234375 57.41015625 C-196.93803711 56.73678223 -196.72373047 56.0634082 -196.50292969 55.36962891 C-186.52685869 24.66453119 -165.09662087 -1.54102061 -136.39453125 -16.5546875 C-91.11157869 -38.96175791 -38.58660861 -32.1091823 0 0 Z M-138.7109375 43.2890625 C-153.13593266 61.55747964 -158.11820892 81.57013789 -156.15234375 104.41015625 C-154.299786 118.80929 -146.86773606 133.67778524 -137.15234375 144.41015625 C-136.29962891 145.40015625 -136.29962891 145.40015625 -135.4296875 146.41015625 C-122.16482761 160.8297067 -103.04291 168.04221835 -83.83984375 169.6953125 C-61.52144219 170.32438509 -41.97672676 161.52139633 -25.83984375 146.66015625 C-12.01597478 131.97600359 -3.62331599 111.39243882 -3.9375 91.21484375 C-4.79886475 79.97011849 -7.11619555 69.54258576 -12.15234375 59.41015625 C-12.72275391 58.23066406 -12.72275391 58.23066406 -13.3046875 57.02734375 C-22.51502524 39.22689304 -38.34576222 26.7422954 -57.15234375 20.47265625 C-86.66395062 11.0912726 -118.30178505 20.32487112 -138.7109375 43.2890625 Z " fill="#000000" transform="translate(1464.15234375,639.58984375)"/>
<path d="M0 0 C25.22408459 22.2133496 39.60418208 51.96699419 41.82714844 85.53076172 C43.40492774 118.78128899 31.3479014 150.05832069 9.24609375 174.67578125 C-10.32429082 195.68667783 -39.00320977 210.93264657 -67.94067383 212.56811523 C-71.83886602 212.66650259 -75.72954326 212.68537142 -79.62890625 212.67578125 C-80.92763672 212.69189453 -82.22636719 212.70800781 -83.56445312 212.72460938 C-95.90621329 212.7307465 -107.62577433 210.66947538 -119.31640625 206.67578125 C-120.06567383 206.42086914 -120.81494141 206.16595703 -121.58691406 205.90332031 C-129.28553775 203.17638505 -136.36421391 199.63314676 -143.31640625 195.36328125 C-144.17347168 194.83855225 -144.17347168 194.83855225 -145.04785156 194.30322266 C-173.45126194 176.4600546 -190.64627806 148.49300307 -199.03125 116.6484375 C-205.77240188 85.50136347 -198.81417461 52.07243572 -181.8671875 25.3828125 C-179.52724223 21.89510329 -176.99296172 18.59806995 -174.31640625 15.36328125 C-173.86571777 14.81768555 -173.4150293 14.27208984 -172.95068359 13.70996094 C-152.304767 -10.80661619 -123.61791835 -26.17657418 -91.65917969 -29.44189453 C-57.87381535 -32.2514736 -25.90312875 -21.86150582 0 0 Z M-137.6171875 42.7265625 C-152.05033955 59.40175758 -156.7006552 80.11087834 -155.53955078 101.65136719 C-154.20578203 117.86088941 -147.13919206 132.36364883 -136.31640625 144.36328125 C-135.72472656 145.04777344 -135.13304687 145.73226562 -134.5234375 146.4375 C-121.13256408 160.97045218 -102.25603336 168.01964063 -82.93359375 169.6484375 C-60.19872685 170.29082317 -41.40576434 160.92752232 -25.12890625 145.67578125 C-11.23789183 131.20504552 -3.42973905 112.53749145 -3.2890625 92.4609375 C-3.87444581 70.17029997 -12.96566849 51.08751949 -28.94140625 35.73828125 C-61.7603411 7.37871312 -108.36793799 12.68276631 -137.6171875 42.7265625 Z " fill="#000000" transform="translate(773.31640625,639.63671875)"/>
<path d="M0 0 C136.29 0 272.58 0 413 0 C414.98 6.6 416.96 13.2 419 20 C421.75368377 27.22841989 424.8723205 33.89498517 428.66796875 40.625 C429.84088123 42.71629264 430.92769141 44.85538282 432 47 C283.17 47 134.34 47 -19 47 C-16.36 42.38 -13.72 37.76 -11 33 C-6.16702538 22.00735184 -3.26606968 11.75785084 0 0 Z " fill="#000000" transform="translate(832,762)"/>
<path d="M0 0 C4.50419983 0.85409827 7.03017333 3.47747469 10.25 6.5625 C11.08144531 7.34270508 11.08144531 7.34270508 11.9296875 8.13867188 C13.29256828 9.41930985 14.64711683 10.7088049 16 12 C14.51330148 15.44042276 12.53310132 17.69242086 9.9375 20.375 C-10.97237974 43.29867233 -19.24968265 73.88205053 -18.14355469 104.38818359 C-16.57988755 132.83735208 -4.34013872 157.70177439 14 179 C12.38989473 183.07376031 9.46177729 185.76507069 6.375 188.75 C5.859375 189.25660156 5.34375 189.76320312 4.8125 190.28515625 C3.54616661 191.52803902 2.2736856 192.76465276 1 194 C-22.8342246 174.63469251 -35.79810381 144.09452749 -39 114 C-39.31071167 108.47569871 -39.3902385 102.96953724 -39.375 97.4375 C-39.37445618 96.69121338 -39.37391235 95.94492676 -39.37335205 95.17602539 C-39.33283563 83.04962212 -38.38988247 71.6998027 -35 60 C-34.79632813 59.25476074 -34.59265625 58.50952148 -34.3828125 57.74169922 C-28.0909798 35.10372399 -15.89611961 17.00961591 0 0 Z " fill="#000000" transform="translate(410,0)"/>
<path d="M0 0 C1.01172775 -0.00960754 2.02345551 -0.01921509 3.06584167 -0.02911377 C4.15439957 -0.03336365 5.24295746 -0.03761353 6.36450195 -0.04199219 C8.05528618 -0.0505423 8.05528618 -0.0505423 9.78022766 -0.05926514 C12.16662662 -0.06870997 14.55303859 -0.07524707 16.93945312 -0.07910156 C20.57160538 -0.08878407 24.20318614 -0.11980371 27.83520508 -0.15136719 C30.15746736 -0.15789994 32.47973367 -0.16314934 34.80200195 -0.16699219 C35.88043869 -0.17933899 36.95887543 -0.19168579 38.06999207 -0.20440674 C47.03144375 -0.17823204 54.71219035 1.11233051 61.41137695 7.43847656 C66.37136964 13.11992273 68.19420659 19.67668849 67.9152832 27.16113281 C66.80974582 33.6667951 63.91907345 38.85138059 58.9152832 43.16113281 C53.42262231 46.64299299 48.3144968 48.2724424 41.81469727 48.32226562 C40.79974182 48.33187317 39.78478638 48.34148071 38.73907471 48.35137939 C37.64737976 48.35562927 36.55568481 48.35987915 35.4309082 48.36425781 C34.30134705 48.36995789 33.17178589 48.37565796 32.00799561 48.38153076 C29.61740046 48.39097486 27.22679233 48.3975124 24.83618164 48.40136719 C21.19304459 48.41105896 17.55047506 48.44208311 13.9074707 48.47363281 C11.58195321 48.4801646 9.25643169 48.48541438 6.9309082 48.48925781 C5.84731018 48.50160461 4.76371216 48.51395142 3.64727783 48.52667236 C-5.35213911 48.50038871 -13.45184751 46.66489516 -20.0847168 40.16113281 C-24.541718 34.13784695 -26.45092498 28.41011675 -25.93237305 20.97753906 C-24.92837046 14.46844361 -21.76699786 9.71563233 -17.0847168 5.16113281 C-11.73500913 1.54484998 -6.42229733 0.0493964 0 0 Z " fill="#000000" transform="translate(1805.084716796875,117.8388671875)"/>
<path d="M0 0 C1.01172775 -0.00960754 2.02345551 -0.01921509 3.06584167 -0.02911377 C4.15439957 -0.03336365 5.24295746 -0.03761353 6.36450195 -0.04199219 C8.05528618 -0.0505423 8.05528618 -0.0505423 9.78022766 -0.05926514 C12.16662662 -0.06870997 14.55303859 -0.07524707 16.93945312 -0.07910156 C20.57160538 -0.08878407 24.20318614 -0.11980371 27.83520508 -0.15136719 C30.15746736 -0.15789994 32.47973367 -0.16314934 34.80200195 -0.16699219 C35.88043869 -0.17933899 36.95887543 -0.19168579 38.06999207 -0.20440674 C47.56446353 -0.17667519 55.07481216 1.32066177 61.9152832 8.16113281 C66.57172566 13.59364901 68.18092719 20.23786419 67.7980957 27.33300781 C66.53962734 33.75376478 62.95502277 39.94322925 57.66137695 43.80566406 C52.35888482 46.8369075 47.95182511 48.27518463 41.83056641 48.32226562 C40.81883865 48.33187317 39.8071109 48.34148071 38.76472473 48.35137939 C37.13188789 48.35775421 37.13188789 48.35775421 35.46606445 48.36425781 C33.77528023 48.37280792 33.77528023 48.37280792 32.05033875 48.38153076 C29.66393979 48.3909756 27.27752782 48.39751269 24.89111328 48.40136719 C21.25896103 48.4110497 17.62738027 48.44206934 13.99536133 48.47363281 C11.67309905 48.48016556 9.35083274 48.48541496 7.02856445 48.48925781 C5.41090935 48.50777802 5.41090935 48.50777802 3.76057434 48.52667236 C-5.20087734 48.50049767 -12.88162394 47.20993511 -19.58081055 40.88378906 C-24.54080323 35.2023429 -26.36364019 28.64557713 -26.0847168 21.16113281 C-24.97917942 14.65547053 -22.08850704 9.47088503 -17.0847168 5.16113281 C-11.59861221 1.68342875 -6.49242058 0.04993575 0 0 Z " fill="#000000" transform="translate(140.084716796875,117.8388671875)"/>
<path d="M0 0 C1.12294464 -0.00428513 2.24588928 -0.00857025 3.40286255 -0.01298523 C5.77133512 -0.01871194 8.13982528 -0.01924106 10.50830078 -0.01489258 C14.11391498 -0.0117353 17.71870597 -0.03520446 21.32421875 -0.06054688 C23.63281147 -0.06282043 25.94140638 -0.0635231 28.25 -0.0625 C29.85353836 -0.07631462 29.85353836 -0.07631462 31.48947144 -0.09040833 C40.50524537 -0.03523338 48.00157292 1.32309376 54.75390625 7.62109375 C59.62933788 13.06638103 61.64738896 18.81452384 61.5390625 26.0859375 C60.68915025 32.77899649 56.99714825 38.66915767 52.2578125 43.30078125 C46.73113096 46.742547 41.6717184 48.41197822 35.15722656 48.46191406 C34.14227112 48.47152161 33.12731567 48.48112915 32.081604 48.49102783 C30.98990906 48.49527771 29.89821411 48.49952759 28.7734375 48.50390625 C27.64387634 48.50960632 26.51431519 48.5153064 25.3505249 48.5211792 C22.95992976 48.5306233 20.56932163 48.53716084 18.17871094 48.54101562 C14.53557388 48.5507074 10.89300436 48.58173155 7.25 48.61328125 C4.92448251 48.61981304 2.59896099 48.62506282 0.2734375 48.62890625 C-0.81016052 48.64125305 -1.89375854 48.65359985 -3.01019287 48.6663208 C-12.06549628 48.63987393 -20.03155389 46.76709568 -26.7421875 40.30078125 C-31.73250205 34.39053498 -32.58437506 28.34218909 -32.2890625 20.74609375 C-31.19560457 13.85730882 -27.78176815 8.57587814 -22.3046875 4.30078125 C-15.58367595 -0.28096096 -7.79757232 -0.00662281 0 0 Z " fill="#000000" transform="translate(1673.7421875,117.69921875)"/>
<path d="M0 0 C1.01172775 -0.00960754 2.02345551 -0.01921509 3.06584167 -0.02911377 C4.15439957 -0.03336365 5.24295746 -0.03761353 6.36450195 -0.04199219 C8.05528618 -0.0505423 8.05528618 -0.0505423 9.78022766 -0.05926514 C12.16662662 -0.06870997 14.55303859 -0.07524707 16.93945312 -0.07910156 C20.57160538 -0.08878407 24.20318614 -0.11980371 27.83520508 -0.15136719 C30.15746736 -0.15789994 32.47973367 -0.16314934 34.80200195 -0.16699219 C35.88043869 -0.17933899 36.95887543 -0.19168579 38.06999207 -0.20440674 C46.01468874 -0.18120179 52.4518507 0.89658079 59.1652832 5.28613281 C64.71438884 11.08747053 67.22244008 15.96105902 67.6027832 24.09863281 C67.29930536 31.90475729 64.8195067 37.3906156 59.2043457 42.81347656 C51.96067533 48.46747267 44.00349687 48.4694141 35.1730957 48.46191406 C34.05015106 48.46619919 32.92720642 48.47048431 31.77023315 48.47489929 C29.40176058 48.480626 27.03327043 48.48115513 24.66479492 48.47680664 C21.05918072 48.47364936 17.45438973 48.49711852 13.84887695 48.52246094 C11.54028423 48.5247345 9.23168932 48.52543716 6.9230957 48.52441406 C5.31955734 48.53822868 5.31955734 48.53822868 3.68362427 48.55232239 C-5.26355765 48.49756721 -12.85437502 47.1537644 -19.58081055 40.91113281 C-24.08394482 35.67112202 -26.42164296 29.21980142 -26.2956543 22.34082031 C-25.62412572 15.40169171 -22.2732977 9.73451285 -17.0847168 5.16113281 C-11.60630318 1.67774843 -6.48692378 0.04989347 0 0 Z " fill="#000000" transform="translate(278.084716796875,117.8388671875)"/>
<path d="M0 0 C1.05184479 -0.01283524 2.10368958 -0.02567047 3.18740845 -0.03889465 C4.32487518 -0.04628159 5.46234192 -0.05366852 6.63427734 -0.0612793 C7.80727386 -0.06935104 8.98027039 -0.07742279 10.18881226 -0.08573914 C12.67533897 -0.09958035 15.16188469 -0.11030233 17.6484375 -0.11816406 C21.43445369 -0.13533585 25.2195874 -0.17921873 29.00537109 -0.22338867 C31.42333343 -0.23351938 33.84130319 -0.2420343 36.25927734 -0.2487793 C37.38459869 -0.26628738 38.50992004 -0.28379547 39.66934204 -0.30183411 C48.01698096 -0.27902635 54.40392167 1.44567652 61.15771484 6.42700195 C66.32578943 11.71526432 68.47893647 17.2910941 68.94287109 24.6574707 C68.66934575 31.71442444 65.93877685 37.30489917 60.84521484 42.17700195 C54.66039831 46.32645159 49.30807091 48.27806808 41.83056641 48.33813477 C40.37315033 48.35254608 40.37315033 48.35254608 38.8862915 48.36724854 C37.32681793 48.37362335 37.32681793 48.37362335 35.73583984 48.38012695 C34.11376617 48.38867706 34.11376617 48.38867706 32.45892334 48.3973999 C30.17265802 48.40683417 27.88637919 48.41337763 25.60009766 48.41723633 C22.12166309 48.42692826 18.64382303 48.45796173 15.16552734 48.48950195 C12.93896833 48.49603404 10.71240512 48.5012837 8.48583984 48.50512695 C7.45428772 48.51747375 6.4227356 48.52982056 5.35992432 48.5425415 C-3.68831467 48.51495146 -12.53459613 46.81365912 -19.15478516 40.17700195 C-23.60629257 34.14555538 -25.52137965 28.43152308 -25.00244141 20.9934082 C-23.99897182 14.48776832 -20.83990005 9.7253917 -16.15478516 5.17700195 C-11.10616569 1.8205022 -6.06497282 0.06451116 0 0 Z " fill="#000000" transform="translate(1804.15478515625,209.822998046875)"/>
<path d="M0 0 C1.74888268 -0.00786278 1.74888268 -0.00786278 3.53309631 -0.0158844 C5.98974819 -0.02228517 8.4464308 -0.02099294 10.90307617 -0.01245117 C14.64492784 -0.00394088 18.38525193 -0.03273337 22.12695312 -0.06445312 C24.52213496 -0.06606542 26.91731948 -0.06548706 29.3125 -0.0625 C30.97695412 -0.07935097 30.97695412 -0.07935097 32.67503357 -0.09654236 C41.65949875 -0.01662458 49.13205054 2.03129106 55.72265625 8.43359375 C60.37236681 13.88039754 61.98857061 20.50531419 61.60546875 27.60546875 C60.3477086 34.02261236 56.76243908 40.18051528 51.50390625 44.078125 C45.98520932 47.26977139 41.08978323 48.54346186 34.70800781 48.59472656 C33.25059174 48.60913788 33.25059174 48.60913788 31.76373291 48.62384033 C30.20425934 48.63021515 30.20425934 48.63021515 28.61328125 48.63671875 C26.99120758 48.64526886 26.99120758 48.64526886 25.33636475 48.6539917 C23.05009942 48.66342597 20.7638206 48.66996942 18.47753906 48.67382812 C14.99910449 48.68352006 11.52126444 48.71455352 8.04296875 48.74609375 C5.81640974 48.75262583 3.58984652 48.7578755 1.36328125 48.76171875 C0.33172913 48.77406555 -0.699823 48.78641235 -1.76263428 48.7991333 C-11.09380542 48.77068053 -19.25716429 46.88703997 -26.27734375 40.43359375 C-30.71783356 34.91298479 -32.59601998 29.56244936 -32.15234375 22.49609375 C-31.13628355 14.88718839 -28.23069058 9.75220277 -22.44921875 4.7578125 C-15.11693591 0.28722998 -8.39000795 -0.02215608 0 0 Z " fill="#000000" transform="translate(146.27734375,209.56640625)"/>
<path d="M0 0 C1.17112335 -0.00428513 2.3422467 -0.00857025 3.54885864 -0.01298523 C6.02166092 -0.01871812 8.49448005 -0.01923648 10.96728516 -0.01489258 C14.73759947 -0.01173567 18.50712652 -0.0351955 22.27734375 -0.06054688 C24.68489485 -0.06282036 27.09244805 -0.06352314 29.5 -0.0625 C30.62107147 -0.07170975 31.74214294 -0.08091949 32.89718628 -0.09040833 C41.81229462 -0.038078 48.66585811 1.41268914 55.34375 7.6484375 C60.79213209 13.49784264 62.15964365 19.42770346 61.8828125 27.30078125 C60.85239307 33.12766633 58.55061626 38.48468576 53.8828125 42.30078125 C45.2169851 47.64808946 37.53335607 48.45701935 27.55078125 48.46875 C26.55959793 48.4720784 25.56841461 48.4754068 24.54719543 48.47883606 C22.45521507 48.4838857 20.36322669 48.48624499 18.27124023 48.48608398 C15.09149719 48.48826671 11.91210346 48.50643317 8.73242188 48.52539062 C6.69270951 48.52832581 4.65299551 48.53030977 2.61328125 48.53125 C1.6723613 48.53843552 0.73144135 48.54562103 -0.23799133 48.55302429 C-8.71552642 48.52407326 -16.37023769 47.84827332 -23.1171875 42.30078125 C-28.69955229 36.55777286 -31.95649385 31.55459145 -32.1171875 23.30078125 C-31.56887395 16.3189221 -28.91830289 11.3419524 -24.1171875 6.30078125 C-16.48584326 0.25930039 -9.37483624 -0.00759412 0 0 Z " fill="#000000" transform="translate(1811.1171875,301.69921875)"/>
<path d="M0 0 C1.57765388 -0.01925285 1.57765388 -0.01925285 3.18717957 -0.03889465 C4.31948502 -0.04628159 5.45179047 -0.05366852 6.6184082 -0.0612793 C7.78998978 -0.06935104 8.96157135 -0.07742279 10.1686554 -0.08573914 C12.64920579 -0.09956769 15.12977511 -0.11029533 17.61035156 -0.11816406 C21.38749666 -0.13535381 25.16376117 -0.1792503 28.94067383 -0.22338867 C31.35407887 -0.23351813 33.76749133 -0.24203344 36.1809082 -0.2487793 C37.3030925 -0.26628738 38.42527679 -0.28379547 39.58146667 -0.30183411 C47.91717889 -0.27899008 54.30037833 1.4526063 61.04418945 6.42700195 C65.69428777 11.18524209 68.23125792 16.50699996 68.7668457 23.16918945 C68.64400001 30.18504321 66.08754215 35.83712951 61.09106445 40.80981445 C53.06777488 48.03077507 44.80134254 48.33274755 34.3996582 48.3449707 C33.40847488 48.3482991 32.41729156 48.3516275 31.39607239 48.35505676 C29.30409202 48.3601064 27.21210364 48.3624657 25.12011719 48.36230469 C21.94037415 48.36448741 18.76098041 48.38265388 15.58129883 48.40161133 C13.54158646 48.40454651 11.50187246 48.40653047 9.4621582 48.4074707 C8.52123825 48.41465622 7.5803183 48.42184174 6.61088562 48.429245 C-3.49675782 48.39472709 -11.39906441 46.79791386 -19.26831055 40.17700195 C-23.90569508 34.58835906 -25.5394318 29.00177737 -25.26831055 21.80200195 C-24.41926034 14.76839284 -21.47158438 9.80945017 -16.01049805 5.3215332 C-10.59684531 1.56056323 -6.60237347 0.07039622 0 0 Z " fill="#000000" transform="translate(139.268310546875,301.822998046875)"/>
<path d="M0 0 C1.60284348 -0.02409439 1.60284348 -0.02409439 3.23806763 -0.04867554 C8.12761647 -0.09338072 13.0170325 -0.13420301 17.90673828 -0.15722656 C20.4787706 -0.17375967 23.05075747 -0.2010142 25.62255859 -0.23925781 C29.34480457 -0.29427816 33.06597526 -0.31594194 36.78857422 -0.33056641 C37.92747101 -0.35323578 39.0663678 -0.37590515 40.23977661 -0.39926147 C48.52876963 -0.37753782 55.22271232 1.29317417 61.5642395 6.87173462 C66.12515782 11.5582755 68.56619373 17.23993699 68.71435547 23.77880859 C68.15481346 31.70763794 65.66771769 36.87997977 59.65576172 42.19287109 C54.63089947 45.81077191 51.28019277 47.3091844 45.11791992 47.36987305 C43.98276443 47.38270828 42.84760895 47.39554352 41.67805481 47.4087677 C40.4499559 47.41615463 39.22185699 47.42354156 37.95654297 47.43115234 C36.06031441 47.44325996 36.06031441 47.44325996 34.1257782 47.45561218 C31.44668921 47.46945464 28.76772331 47.4804699 26.08862305 47.48803711 C22.6735056 47.49907092 19.25904523 47.53343916 15.84415913 47.57320881 C12.56918624 47.60580771 9.29415334 47.61016575 6.01904297 47.61865234 C4.80106522 47.63616043 3.58308746 47.65366852 2.32820129 47.67170715 C-5.7816207 47.65109242 -11.35338237 46.75265895 -17.58642578 41.19287109 C-18.12525391 40.53287109 -18.66408203 39.87287109 -19.21923828 39.19287109 C-19.77353516 38.53287109 -20.32783203 37.87287109 -20.89892578 37.19287109 C-24.52201529 32.17929859 -25.6506665 27.09472381 -25.16845703 20.95458984 C-23.99706515 14.10372216 -20.81905896 8.88585712 -15.31298828 4.61865234 C-10.17897171 1.27579454 -6.14263262 0.08421612 0 0 Z " fill="#000000" transform="translate(1804.34423828125,393.80712890625)"/>
<path d="M0 0 C1.19190445 -0.00287018 2.3838089 -0.00574036 3.61183167 -0.00869751 C6.12574744 -0.01073376 8.63967922 -0.00523474 11.15356445 0.00732422 C14.98750502 0.02336886 18.82038913 0.00746678 22.65429688 -0.01171875 C25.1028669 -0.00973596 27.55143626 -0.00589156 30 0 C31.1398082 -0.00607269 32.27961639 -0.01214539 33.45396423 -0.0184021 C42.36229678 0.0597481 49.31695963 1.46316152 56.02734375 7.66796875 C60.47182998 12.66519565 62.68331398 18.72170714 62.56640625 25.3984375 C61.5698914 33.52386632 57.52947598 38.85026595 51.4453125 44.1015625 C47.37958217 46.90784622 43.68751839 47.65153367 38.80151367 47.68896484 C37.09900703 47.7081044 37.09900703 47.7081044 35.36210632 47.72763062 C33.53544182 47.73096909 33.53544182 47.73096909 31.671875 47.734375 C29.77989128 47.7443602 29.77989128 47.7443602 27.84968567 47.75454712 C25.18244299 47.76466698 22.515608 47.77023038 19.84838867 47.76904297 C16.44897303 47.76884011 13.05039651 47.79611629 9.65117931 47.83058739 C6.38727697 47.85832366 3.12337909 47.85700885 -0.140625 47.859375 C-1.95818047 47.88093155 -1.95818047 47.88093155 -3.81245422 47.90292358 C-12.33960258 47.85707688 -17.71984985 46.69954319 -24.24609375 40.8984375 C-24.96796875 40.0734375 -25.68984375 39.2484375 -26.43359375 38.3984375 C-26.99046875 37.7796875 -27.54734375 37.1609375 -28.12109375 36.5234375 C-32.06399689 30.13968955 -32.02394373 23.57566631 -30.43359375 16.3984375 C-27.37552088 9.16915323 -21.91320296 4.01566694 -14.64938354 1.01605225 C-9.88346818 -0.31236781 -4.91083375 -0.02611765 0 0 Z " fill="#000000" transform="translate(145.43359375,393.6015625)"/>
<path d="M0 0 C1.63782944 -0.01925285 1.63782944 -0.01925285 3.30874634 -0.03889465 C4.48996063 -0.04628159 5.67117493 -0.05366852 6.88818359 -0.0612793 C8.1055722 -0.06935104 9.32296082 -0.07742279 10.57723999 -0.08573914 C13.15792415 -0.09958137 15.73862663 -0.11030289 18.31933594 -0.11816406 C22.25019494 -0.13533889 26.18020469 -0.17922146 30.11083984 -0.22338867 C32.61994825 -0.23351905 35.1290638 -0.24203407 37.63818359 -0.2487793 C38.8072525 -0.26628738 39.97632141 -0.28379547 41.18081665 -0.30183411 C49.23573229 -0.28061947 55.55527363 0.92672354 61.96630859 6.0012207 C67.20976975 12.22293953 70.06695568 17.96814312 69.66162109 26.23950195 C68.53477642 33.97157445 64.33665561 39.02685488 58.50537109 43.95043945 C54.41967809 46.66846404 50.75809681 47.43028686 45.89672852 47.4675293 C44.19422188 47.48666885 44.19422188 47.48666885 42.45732117 47.50619507 C40.63065666 47.50953354 40.63065666 47.50953354 38.76708984 47.51293945 C36.87510612 47.52292465 36.87510612 47.52292465 34.94490051 47.53311157 C32.27765783 47.54323143 29.61082284 47.54879484 26.94360352 47.54760742 C23.54418788 47.54740456 20.14561135 47.57468075 16.74639416 47.60915184 C13.48249181 47.63688811 10.21859393 47.6355733 6.95458984 47.63793945 C5.13703438 47.659496 5.13703438 47.659496 3.28276062 47.68148804 C-4.79581951 47.63805309 -10.37193625 46.71501353 -16.58056641 41.17700195 C-17.11939453 40.51700195 -17.65822266 39.85700195 -18.21337891 39.17700195 C-18.76767578 38.51700195 -19.32197266 37.85700195 -19.89306641 37.17700195 C-23.51615591 32.16342945 -24.64480713 27.07885467 -24.16259766 20.9387207 C-22.99153771 14.08979433 -19.81791495 8.82776382 -14.27197266 4.6027832 C-9.49119845 1.53005724 -5.74141257 0.05881177 0 0 Z " fill="#000000" transform="translate(1803.33837890625,485.822998046875)"/>
<path d="M0 0 C1.21077209 -0.00902847 2.42154419 -0.01805695 3.66900635 -0.02735901 C6.22755467 -0.04184497 8.7861399 -0.05074412 11.34472656 -0.05444336 C15.23827312 -0.0663228 19.13022585 -0.11551522 23.0234375 -0.16601562 C25.51561731 -0.17548257 28.0078068 -0.1827163 30.5 -0.1875 C32.23174469 -0.21679848 32.23174469 -0.21679848 33.99847412 -0.24668884 C42.30925226 -0.20081347 49.22200577 1.37523511 55.45428467 7.17530823 C60.34190325 12.48379393 62.39494565 18.11692423 62.515625 25.37109375 C61.55586613 33.49095851 57.46182313 38.83748423 51.39453125 44.07421875 C47.32880092 46.88050247 43.63673714 47.62418992 38.75073242 47.66162109 C37.04822578 47.68076065 37.04822578 47.68076065 35.31132507 47.70028687 C33.48466057 47.70362534 33.48466057 47.70362534 31.62109375 47.70703125 C29.72911003 47.71701645 29.72911003 47.71701645 27.79890442 47.72720337 C25.13166174 47.73732323 22.46482675 47.74288663 19.79760742 47.74169922 C16.39819178 47.74149636 12.99961526 47.76877254 9.60039806 47.80324364 C6.33649572 47.83097991 3.07259784 47.8296651 -0.19140625 47.83203125 C-2.00896172 47.8535878 -2.00896172 47.8535878 -3.86323547 47.87557983 C-11.94105936 47.83214895 -17.36184965 46.84423015 -23.69140625 41.51171875 C-29.0077777 35.25107694 -31.85360181 30.23638859 -31.484375 21.87109375 C-30.43723687 13.81704198 -26.44271707 8.78816956 -20.42578125 3.59765625 C-14.09030508 -0.40503895 -7.23296764 0.03336355 0 0 Z " fill="#000000" transform="translate(145.484375,485.62890625)"/>
<path d="M0 0 C4.37657556 0.44914737 6.86225815 3.34691229 9.8125 6.3125 C10.32748047 6.79912109 10.84246094 7.28574219 11.37304688 7.78710938 C14.97437569 11.36915397 14.97437569 11.36915397 15.08203125 14.01953125 C13.60778278 16.71788495 11.80831588 18.9829312 9.875 21.375 C-4.57695464 40.03284029 -8.60907792 61.25161845 -5.70263672 84.36474609 C-3.32334181 98.03528441 3.61855833 109.96307168 12.375 120.4765625 C14 123 14 123 14.09765625 124.9765625 C12.41677056 128.07513469 9.96512617 130.34544178 7.4375 132.75 C6.91736328 133.25660156 6.39722656 133.76320312 5.86132812 134.28515625 C4.58089916 135.53034405 3.29132446 136.76611502 2 138 C-2.86755765 136.61428088 -5.33542154 133.76348324 -8.3125 129.875 C-9.02817139 128.94337036 -9.02817139 128.94337036 -9.75830078 127.99291992 C-25.83051849 106.38998432 -31.03824801 78.71036372 -27.23095703 52.27050781 C-23.76025664 31.96048327 -14.48918666 14.5496843 0 0 Z " fill="#000000" transform="translate(438,28)"/>
<path d="M0 0 C3.73867071 3.12827549 7.43269846 6.30173921 11 9.625 C11.598125 10.17414063 12.19625 10.72328125 12.8125 11.2890625 C14 13 14 13 13.8671875 14.9140625 C12.84282475 17.37807021 11.56391152 19.50214817 10.125 21.75 C4.40767516 31.21931926 2.75924419 38.72980142 4 50 C5.62204291 55.6449668 7.96416677 60.71767788 11.375 65.5 C13 68 13 68 12.93359375 69.79296875 C11.54295307 73.08046659 9.17861544 75.3342752 6.6875 77.8125 C5.95756836 78.5849707 5.95756836 78.5849707 5.21289062 79.37304688 C1.61541195 82.98989287 1.61541195 82.98989287 -1.140625 83.03515625 C-9.58202639 78.33563657 -13.4214498 68.1233647 -16.11328125 59.38671875 C-19.19966219 46.39481647 -18.57886426 30.17677802 -13 18 C-12.55269531 17.01902344 -12.10539062 16.03804687 -11.64453125 15.02734375 C-8.62796629 9.01847574 -5.07665964 4.400773 0 0 Z " fill="#000000" transform="translate(467,55)"/>
<path d="M0 0 C3.81316478 1.58956284 6.372784 4.00760697 9.3125 6.875 C10.21613281 7.73867187 11.11976563 8.60234375 12.05078125 9.4921875 C14 12 14 12 14.02734375 14.1015625 C12.75179911 16.45865259 11.31488721 17.79219855 9.25 19.5 C8.17492187 20.39912109 8.17492187 20.39912109 7.078125 21.31640625 C6.39234375 21.87199219 5.7065625 22.42757812 5 23 C4.01 23.804375 3.02 24.60875 2 25.4375 C1.01 26.2109375 1.01 26.2109375 0 27 C-4.54140893 21.5796087 -5.38567191 17.82513778 -5.3671875 10.875 C-4.80284018 6.45628053 -2.74474942 3.4211341 0 0 Z " fill="#000000" transform="translate(494,84)"/>
</svg>
