<?xml version="1.0" encoding="UTF-8"?>
<svg version="1.1" xmlns="http://www.w3.org/2000/svg" width="626" height="794">
<path d="M0 0 C1.40215476 -0.00206625 1.40215476 -0.00206625 2.83263588 -0.00417423 C3.86532789 -0.00057612 4.89801991 0.00302198 5.96200562 0.00672913 C7.61274613 0.00654832 7.61274613 0.00654832 9.29683495 0.00636387 C12.87193167 0.00711241 16.44697677 0.01473804 20.02206421 0.02259827 C22.22413101 0.02406787 24.42619816 0.02508847 26.62826538 0.02565002 C34.80901614 0.03090083 42.98975943 0.04486194 51.17050171 0.05775452 C78.58112671 0.08869202 78.58112671 0.08869202 106.54550171 0.12025452 C106.54550171 42.69025452 106.54550171 85.26025452 106.54550171 129.12025452 C134.76050171 128.62525452 134.76050171 128.62525452 163.54550171 128.12025452 C159.58550171 124.16025452 155.62550171 120.20025452 151.54550171 116.12025452 C147.73300171 111.80775452 147.73300171 111.80775452 146.15097046 109.92884827 C143.85864684 107.3464983 141.31351387 105.05219635 138.73300171 102.76087952 C137.54550171 101.12025452 137.54550171 101.12025452 137.79135132 99.20448303 C138.65181677 96.82643396 139.55887711 95.81727054 141.42440796 94.13197327 C142.01189819 93.5941925 142.59938843 93.05641174 143.2046814 92.50233459 C143.8327771 91.94312317 144.4608728 91.38391174 145.10800171 90.80775452 C145.74769897 90.2259845 146.38739624 89.64421448 147.04647827 89.04481506 C150.25988704 86.13179724 153.51005859 83.2643323 156.79550171 80.43275452 C158.05034414 79.33409419 159.30005736 78.22955718 160.54550171 77.12025452 C161.36792358 76.38806702 162.19034546 75.65587952 163.03768921 74.90150452 C170.32487141 68.06841972 176.9927638 59.42183294 177.68353271 49.04716492 C177.69002838 48.31025421 177.69652405 47.57334351 177.70321655 46.81410217 C177.7134787 45.97287811 177.72374084 45.13165405 177.73431396 44.26493835 C177.7416153 43.36383331 177.74891663 42.46272827 177.75643921 41.53431702 C177.78450544 39.61503762 177.81316989 37.6957669 177.84237671 35.77650452 C177.88362818 32.75925417 177.92052867 29.74216618 177.9468689 26.7247467 C177.974532 23.80676629 178.02039824 20.88951496 178.06893921 17.97181702 C178.07219208 17.07476044 178.07544495 16.17770386 178.07879639 15.25346375 C178.1980824 9.15087848 179.05176896 4.61398726 183.54550171 0.12025452 C220.17550171 0.12025452 256.80550171 0.12025452 294.54550171 0.12025452 C294.54550171 81.30025452 294.54550171 162.48025452 294.54550171 246.12025452 C239.60050171 246.61525452 239.60050171 246.61525452 183.54550171 247.12025452 C178.83414273 251.8316135 179.49942337 256.82544698 179.44442749 263.20057678 C179.4526891 265.61264019 179.46860074 268.0246855 179.49081421 270.43666077 C179.50256683 271.7253154 179.51431946 273.01397003 179.52642822 274.3416748 C179.55377329 277.06587607 179.58695834 279.78994983 179.62265015 282.51405334 C179.66618881 285.96411329 179.68219673 289.41371803 179.69188118 292.86401463 C179.70803174 296.20103407 179.7582533 299.53740943 179.80331421 302.87416077 C179.80212082 304.70147484 179.80212082 304.70147484 179.80090332 306.56570435 C179.97553159 315.55713799 182.09389015 322.8499183 185.54550171 331.12025452 C186.0533873 332.36741493 186.0533873 332.36741493 186.5715332 333.63977051 C187.47445726 335.80348759 188.41504842 337.94551893 189.37362671 340.08509827 C189.719599 340.86869217 190.06557129 341.65228607 190.42202759 342.45962524 C191.54213151 344.99430318 192.66886251 347.52597569 193.79550171 350.05775452 C195.0050241 352.79129002 196.21275288 355.52561397 197.42050171 358.25993347 C198.24543809 360.12711481 199.07096186 361.99403674 199.89706421 363.86070251 C203.63260959 372.30339284 207.32484444 380.7645841 211.00643921 389.23091125 C217.23857372 403.56181879 223.50656769 417.8766906 229.79550171 432.18275452 C235.4290692 444.99822728 241.02960158 457.82678804 246.58261108 470.67738342 C251.49562747 482.03377502 256.47273873 493.36173524 261.45223999 504.68910217 C267.00577747 517.32310765 272.53692721 529.96658253 278.04550171 542.62025452 C283.83674804 555.92129116 289.64885543 569.21297687 295.48300171 582.49525452 C295.85569183 583.34375977 296.22838196 584.19226501 296.61236572 585.06648254 C299.25599666 591.08473518 301.9006331 597.10254573 304.54550171 603.12025452 C307.5670282 609.99495011 310.58810517 616.86984275 313.60800171 623.74525452 C313.9807724 624.5939209 314.35354309 625.44258728 314.73760986 626.31697083 C320.54751201 639.54640142 326.32991133 652.78764453 332.09701538 666.03578186 C337.19865787 677.75452342 342.3266355 689.46141023 347.47177124 701.16111755 C353.50448149 714.88135298 359.52068667 728.60865266 365.48345947 742.35945129 C366.1838816 743.97411942 366.88513671 745.5884265 367.58728027 747.2023468 C368.55508364 749.42778827 369.51953049 751.65465347 370.48300171 753.88197327 C370.76546249 754.53005447 371.04792328 755.17813568 371.33894348 755.84585571 C374.47891071 763.12957138 376.40978263 769.16887005 375.54550171 777.12025452 C373.94425714 780.88317925 371.9999436 782.96122833 368.54550171 785.12025452 C363.87840665 786.67595287 359.49976775 786.86473682 354.92050171 785.12025452 C347.53459173 778.90054085 344.02033624 770.21743051 340.23300171 761.55775452 C339.62794956 760.1946319 339.0221335 758.83184815 338.4156189 757.46937561 C336.44302654 753.02659313 334.49309425 748.57404041 332.54550171 744.12025452 C331.87382835 742.5868716 331.20211592 741.05350579 330.53036499 739.52015686 C326.99499199 731.44461228 323.47572311 723.3621274 319.96347046 715.27650452 C315.53732553 705.08812089 311.07670502 694.91503097 306.60800171 684.74525452 C305.85442057 683.02992267 305.10083984 681.31459064 304.34725952 679.59925842 C302.83557601 676.15857894 301.32364989 672.71800616 299.81161499 669.27748108 C296.42875509 661.57951291 293.04925206 653.88007101 289.66949463 646.18074036 C287.79496772 641.91051809 285.92022374 637.64039113 284.04550171 633.37025452 C283.29550067 631.66192164 282.54550067 629.95358831 281.79550171 628.24525452 C281.42425171 627.39962952 281.05300171 626.55400452 280.67050171 625.68275452 C241.29550172 535.99525453 241.29550172 535.99525453 240.17056274 533.43289185 C239.42036096 531.72410002 238.67015751 530.01530892 237.91995239 528.30651855 C236.04802609 524.04270617 234.17612847 519.77888119 232.30429077 515.51502991 C228.89264013 507.74372286 225.48075703 499.97251821 222.06784058 492.20176697 C214.88415556 475.8454429 207.70196285 459.48851161 200.54550171 443.12025452 C195.48881711 431.55517791 190.42358187 419.99387037 185.35116577 408.4356842 C184.58051231 406.67956322 183.80999814 404.9233811 183.03964233 403.16712952 C181.95089205 400.68516427 180.86152904 398.20346868 179.77206421 395.72181702 C179.42395691 394.92793579 179.07584961 394.13405457 178.7171936 393.31611633 C176.9053637 389.19021815 175.07815221 385.07195136 173.2281189 380.96302795 C172.66887222 379.7175972 172.66887222 379.7175972 172.09832764 378.44700623 C171.38574141 376.86224426 170.67007969 375.27886057 169.95092773 373.69706726 C167.54550171 368.34261481 167.54550171 368.34261481 167.54550171 366.12025452 C166.55550171 366.12025452 165.56550171 366.12025452 164.54550171 366.12025452 C164.54664087 367.0049472 164.54778003 367.88963989 164.54895371 368.80114144 C164.61604448 421.2005174 164.66753939 473.59988882 164.6986977 525.99929912 C164.70244995 532.28676935 164.70633291 538.57423949 164.71029663 544.86170959 C164.71108356 546.11346563 164.71187049 547.36522167 164.71268127 548.65490971 C164.72574581 568.94027214 164.74940541 589.22560915 164.7769601 609.51095649 C164.80498515 630.31563735 164.82167182 651.12030486 164.82776719 671.92500383 C164.83188966 684.76925451 164.84492405 697.61343333 164.86925111 710.4576619 C164.88507252 719.25774602 164.88991024 728.05779283 164.88600584 736.85789015 C164.88407868 741.93995262 164.88709459 747.02188925 164.90311813 752.10392952 C164.91767039 756.75313744 164.91848459 761.40213438 164.90819839 766.05135182 C164.90692627 767.73649443 164.91077135 769.42164998 164.92015126 771.10676696 C164.93213505 773.39188403 164.92573604 775.6762326 164.9146452 777.96133709 C164.91578436 779.23226103 164.91692352 780.50318498 164.9180972 781.81262177 C164.38278965 786.56469427 162.59286327 789.07647368 159.26034546 792.39759827 C154.37924408 795.49481511 149.11500298 794.92489352 143.54550171 794.12025452 C139.80174195 792.49102573 137.98688565 790.18729474 136.41697836 786.39206326 C135.44939099 782.75942339 135.29293975 779.65503105 135.28937531 775.89631462 C135.28597844 775.18822649 135.28258157 774.48013836 135.27908176 773.75059301 C135.27011796 771.37787446 135.27534413 769.00540197 135.28048706 766.63267517 C135.27691613 764.91442867 135.27246545 763.19618381 135.26721048 761.47794163 C135.25528226 756.75614622 135.2557293 752.03442013 135.25814557 747.31261325 C135.25856476 742.22055836 135.24746985 737.12852744 135.23768616 732.03648376 C135.22222616 723.2131984 135.21382054 714.38992904 135.2099762 705.56663132 C135.20423172 692.80523904 135.1856503 680.04388986 135.16353565 667.28251661 C135.12781082 646.57267456 135.09949865 625.86283008 135.07723999 605.15296936 C135.075905 603.91331587 135.07457001 602.67366237 135.07319456 601.39644362 C135.06241642 591.33647579 135.05199654 581.2765076 135.04159451 571.21653938 C135.03248421 562.41995857 135.02323189 553.62337792 135.01376343 544.82679749 C135.01176731 542.96866918 135.01176731 542.96866918 135.00973088 541.07300292 C134.98732262 520.43875476 134.95713883 499.80452505 134.92137098 479.17029583 C134.89967717 466.43622549 134.88507735 453.70218385 134.87953222 440.96809603 C134.87529377 432.24889908 134.86407917 423.5297295 134.84730828 414.81054769 C134.83787863 409.77518395 134.83179821 404.7398714 134.83437157 399.70449829 C134.83667468 395.0993994 134.82990927 390.49440824 134.81579274 385.88933124 C134.81231714 384.21919835 134.81225576 382.54905433 134.81586534 380.87892173 C134.82027906 378.61665452 134.81252535 376.3547497 134.80162811 374.09251213 C134.80043394 372.83357419 134.79923976 371.57463625 134.7980094 370.27754867 C134.5571753 367.26621824 134.32362045 365.54302839 132.54550171 363.12025452 C128.82608827 362.06759034 126.50740432 361.76233727 122.85800171 363.12025452 C118.02148723 367.30318596 115.62110833 373.9042485 113.06893921 379.67494202 C112.74652756 380.39624802 112.42411591 381.11755402 112.0919342 381.86071777 C111.03103518 384.23724322 109.97563129 386.61616255 108.92050171 388.99525452 C108.16604482 390.68959003 107.41140231 392.3838429 106.65658569 394.07801819 C99.35828107 410.47700785 92.14545105 426.91372612 84.94595337 443.35627747 C81.19313512 451.92708029 77.43173511 460.49410566 73.66949463 469.06077576 C71.79447296 473.33044512 69.92001596 477.60036237 68.04550171 481.87025452 C67.29550441 483.57858904 66.54550441 485.28692237 65.79550171 486.99525452 C65.42425171 487.84087952 65.05300171 488.68650452 64.67050171 489.55775452 C63.54550171 492.12025452 62.42050171 494.68275452 61.29550171 497.24525452 C60.92425674 498.09086945 60.55301178 498.93648438 60.17051697 499.807724 C59.42047027 501.51616088 58.6704194 503.22459594 57.92036438 504.93302917 C56.04604481 509.2022632 54.17179741 513.47152888 52.29769897 517.74085999 C48.91465653 525.44748256 45.53108942 533.15387257 42.14483643 540.85908508 C34.42048516 558.43549056 26.71005119 576.01767816 19.04550171 593.62025452 C11.00569685 612.08465079 2.91419257 630.52610598 -5.18838501 648.96302795 C-8.57124491 656.66099613 -11.95074794 664.36043802 -15.33050537 672.05976868 C-17.20503228 676.32999095 -19.07977626 680.60011791 -20.95449829 684.87025452 C-21.70449933 686.57858739 -22.45449933 688.28692073 -23.20449829 689.99525452 C-27.70449829 700.24525452 -27.70449829 700.24525452 -28.82931519 702.80723572 C-29.58002537 704.51725456 -30.33063557 706.22731729 -31.08114624 707.93742371 C-32.94446711 712.18283264 -34.80946422 716.42748868 -36.6781311 720.67054749 C-40.19486403 728.66064258 -43.69354163 736.65741242 -47.13674927 744.67951965 C-48.76094546 748.4609139 -50.39423146 752.23835065 -52.02822876 756.01551819 C-52.80328997 757.8141814 -53.57391127 759.61476529 -54.3397522 761.41737366 C-55.40320142 763.91970404 -56.48189547 766.41495362 -57.56387329 768.90931702 C-57.86944153 769.63974213 -58.17500977 770.37016724 -58.48983765 771.12272644 C-61.23654084 777.38367738 -64.86848168 783.47514415 -71.45449829 786.12025452 C-78.32869958 786.67462559 -82.37139334 785.63541909 -87.82949829 781.18275452 C-90.52881085 776.09558855 -90.28601281 771.74156139 -89.45449829 766.12025452 C-88.52821496 763.484232 -87.56075758 760.98262323 -86.45059204 758.42884827 C-85.9852153 757.32974373 -85.9852153 757.32974373 -85.51043701 756.20843506 C-84.50311675 753.84065998 -83.48082059 751.47985009 -82.45449829 749.12025452 C-82.11659271 748.3400293 -81.77868713 747.55980408 -81.43054199 746.75593567 C-79.29858597 741.84053116 -77.14354061 736.93554594 -74.97866821 732.03456116 C-72.98444423 727.51948892 -70.99709283 723.00139194 -69.00918579 718.48353577 C-68.61443054 717.58676117 -68.21967529 716.68998657 -67.81295776 715.76603699 C-64.49762263 708.2299166 -61.21836748 700.67879915 -57.95449829 693.12025452 C-52.91424436 681.45534613 -47.81808258 669.8156823 -42.70449829 658.18275452 C-36.74689261 644.62896955 -30.80484803 631.06862889 -24.89199829 617.49525452 C-24.54317596 616.6945755 -24.19435364 615.89389648 -23.83496094 615.06895447 C-21.37401322 609.41973325 -18.91412102 603.77005273 -16.45449829 598.12025452 C-5.95935754 574.01272503 4.5702084 549.92077132 15.14938354 525.84999084 C17.77357566 519.87870422 20.39471688 513.90608555 23.01425171 507.93275452 C32.62742256 486.01417812 42.2806542 464.11358827 51.96188354 442.22499084 C54.73178516 435.96199045 57.49875886 429.69770276 60.26425171 423.43275452 C61.44460451 420.7592516 62.62500974 418.08577184 63.80545044 415.41230774 C64.58780811 413.64033431 65.37007599 411.86832124 66.1522522 410.0962677 C70.74063736 399.70239558 75.34558448 389.31615034 79.97518921 378.94056702 C80.88349139 376.90330276 81.79177604 374.86603069 82.70004272 372.82875061 C84.42128356 368.96825834 86.14623514 365.10945482 87.87338257 361.25160217 C96.85334037 342.04279734 96.85334037 342.04279734 102.85800171 321.80775452 C103.01333374 321.10070374 103.16866577 320.39365295 103.32870483 319.66517639 C105.41291355 309.78083892 105.68747327 299.96792417 105.64315796 289.89369202 C105.64174301 288.66486298 105.64032806 287.43603394 105.63887024 286.16996765 C105.6333113 282.27837094 105.62076651 278.38683359 105.60800171 274.49525452 C105.6029814 271.8429116 105.59841942 269.19056778 105.59432983 266.53822327 C105.58335534 260.06554706 105.56665855 253.59290503 105.54550171 247.12025452 C104.99350759 247.11786616 104.44151346 247.11547781 103.87279224 247.11301708 C90.43513915 247.05385443 76.99766741 246.97810782 63.56020832 246.8845396 C57.0619105 246.8397915 50.56367602 246.80054498 44.0652771 246.77381897 C37.79523513 246.74783059 31.52543634 246.7074594 25.25554466 246.65706825 C22.8621644 246.64036939 20.46874206 246.62887397 18.07531166 246.62264061 C14.72567815 246.61303262 11.37667106 246.58501179 8.02719116 246.55262756 C6.53933609 246.5547802 6.53933609 246.5547802 5.02142334 246.55697632 C-3.79602206 246.43623124 -3.79602206 246.43623124 -7.45449829 243.12025452 C-9.97494745 238.49476915 -9.73731361 233.95881988 -9.7151947 228.83439636 C-9.72093302 227.42657105 -9.72093302 227.42657105 -9.72678727 225.99030483 C-9.73711062 222.8436231 -9.73312634 219.69712407 -9.72915649 216.5504303 C-9.73350335 214.29506766 -9.7386864 212.03970649 -9.74464417 209.78434753 C-9.75804863 203.65625326 -9.75861119 197.52822061 -9.75608087 191.40011454 C-9.75501208 186.28571286 -9.75989217 181.1713237 -9.76468629 176.0569247 C-9.77642149 163.30151534 -9.77555354 150.5461506 -9.76912948 137.79074167 C-9.76396127 126.71859354 -9.77521329 115.64653342 -9.7942277 104.5744027 C-9.8136101 93.2006249 -9.82156998 81.82690086 -9.81810445 70.45310199 C-9.81629036 64.06957038 -9.81894032 57.68611935 -9.83281898 51.30260086 C-9.84538226 45.2992987 -9.84346729 39.2961728 -9.8304081 33.29287338 C-9.82803947 31.08983043 -9.83078722 28.88677514 -9.83903122 26.68374634 C-9.84947594 23.67565245 -9.84141594 20.66815245 -9.82872009 17.66007996 C-9.83609438 16.78896234 -9.84346866 15.91784472 -9.85106641 15.02032959 C-9.80345923 9.65594216 -9.01742487 5.86691789 -6.45449829 1.12025452 C-4.07893535 -0.06752695 -2.6502567 -0.00299126 0 0 Z " fill="#010101" transform="translate(89.45449829101563,-0.1202545166015625)"/>
<path d="M0 0 C4.68313673 0.35697231 7.88948335 2.67300487 11.5625 5.375 C12.17311279 5.81835693 12.78372559 6.26171387 13.4128418 6.71850586 C19.70104004 11.3737445 25.37885714 16.57130711 31 22 C31.79019531 22.73863281 32.58039062 23.47726563 33.39453125 24.23828125 C54.01012881 43.98737383 67.17393968 71.18114187 75.1875 98.25 C75.42549316 99.0339917 75.66348633 99.8179834 75.90869141 100.62573242 C80.25394254 115.91937211 81.56299544 131.41855469 81.4375 147.25 C81.43379395 148.09684357 81.43008789 148.94368713 81.42626953 149.81619263 C81.24946784 178.32379086 74.98993715 204.97791802 61 230 C60.67580078 230.59329102 60.35160156 231.18658203 60.01757812 231.79785156 C54.67772816 241.54818123 54.67772816 241.54818123 51 244 C50.19780029 243.46258179 50.19780029 243.46258179 49.37939453 242.91430664 C46.96206509 241.29583602 44.54354893 239.67914765 42.125 238.0625 C40.86236328 237.21655273 40.86236328 237.21655273 39.57421875 236.35351562 C38.36572266 235.54624023 38.36572266 235.54624023 37.1328125 234.72265625 C36.01737061 233.97640991 36.01737061 233.97640991 34.87939453 233.21508789 C33.02065406 231.96446784 33.02065406 231.96446784 31 231 C32.46481159 226.00103983 34.66126965 221.82049172 37.1875 217.3125 C56.26681076 182.13899805 59.4776164 141.99078634 48.80224609 103.65234375 C38.60121726 69.92623991 17.24650441 40.7243867 -12 21 C-11.3811846 17.97108359 -10.40106157 15.7507659 -8.75 13.14453125 C-8.3065625 12.44005859 -7.863125 11.73558594 -7.40625 11.00976562 C-6.9421875 10.28466797 -6.478125 9.55957031 -6 8.8125 C-5.5359375 8.07580078 -5.071875 7.33910156 -4.59375 6.58007812 C-1.16870301 1.16870301 -1.16870301 1.16870301 0 0 Z " fill="#010101" transform="translate(545,0)"/>
<path d="M0 0 C5.99398498 2.11115577 10.19493563 5.9477056 15 10 C16.21236328 10.99 16.21236328 10.99 17.44921875 12 C41.02864441 32.04820732 54.73472657 62.15480921 57.8190918 92.65356445 C59.72547482 117.37994396 55.82046037 140.51777933 44.9375 162.8125 C44.62143799 163.46436279 44.30537598 164.11622559 43.97973633 164.7878418 C41.72989445 169.17390882 39.66465916 171.33534084 36 175 C29.4 170.71 22.8 166.42 16 162 C17.43357695 157.69926914 18.70788764 154.5010407 20.8125 150.625 C32.95091952 126.67462213 34.07720937 99.40335465 26.36669922 73.90576172 C19.26117258 52.40821708 5.38985294 34.87289706 -13 22 C-11.29816715 16.88424944 -8.32246469 12.64984185 -5.375 8.1875 C-4.859375 7.39923828 -4.34375 6.61097656 -3.8125 5.79882812 C-2.54558583 3.8632648 -1.27467036 1.93046058 0 0 Z " fill="#010101" transform="translate(518,41)"/>
<path d="M0 0 C8.12713692 1.05378507 14.07856688 7.61156705 19.1875 13.625 C30.54386821 28.60622918 35.16239518 45.64038251 35.25 64.125 C35.270625 65.18976563 35.29125 66.25453125 35.3125 67.3515625 C35.37738648 80.71817808 32.13339739 93.85178068 23 104 C18.27016708 102.37755731 14.37723678 99.81796733 10.25 97.0625 C9.22326172 96.39831055 9.22326172 96.39831055 8.17578125 95.72070312 C7.52480469 95.28822266 6.87382812 94.85574219 6.203125 94.41015625 C5.31608887 93.82439819 5.31608887 93.82439819 4.41113281 93.22680664 C3 92 3 92 2 89 C2.92578125 86.25 2.92578125 86.25 4.3125 83 C9.53661995 69.84511299 10.70561369 57.07691225 5.2890625 43.69140625 C1.31517152 35.39440358 -4.44299975 25.27850012 -13 21 C-11.3518456 15.96617902 -8.39351949 11.9739509 -5.375 7.6875 C-4.859375 6.94693359 -4.34375 6.20636719 -3.8125 5.44335938 C-2.54605274 3.62577303 -1.27514241 1.81149162 0 0 Z " fill="#010101" transform="translate(490,84)"/>
<path d="M0 0 C3.70529448 0.77773738 5.14571916 1.84476342 7.625 4.75 C8.21539062 5.42546875 8.80578125 6.1009375 9.4140625 6.796875 C13.68530001 12.73031824 13.7859938 18.91691632 13 26 C11.947903 28.9961893 10.67676301 31.27526011 9 34 C4.1669269 32.32554948 0.0526537 29.70850503 -4.25 27 C-4.9821875 26.54882812 -5.714375 26.09765625 -6.46875 25.6328125 C-7.16484375 25.19710937 -7.8609375 24.76140625 -8.578125 24.3125 C-9.21137695 23.91675781 -9.84462891 23.52101562 -10.49707031 23.11328125 C-12 22 -12 22 -13 20 C-11.92016602 17.93701172 -11.92016602 17.93701172 -10.25390625 15.4296875 C-9.66416016 14.53378906 -9.07441406 13.63789063 -8.46679688 12.71484375 C-7.52416992 11.30912109 -7.52416992 11.30912109 -6.5625 9.875 C-5.62567383 8.45767578 -5.62567383 8.45767578 -4.66992188 7.01171875 C-3.12036702 4.66964347 -1.56349921 2.33277997 0 0 Z " fill="#010101" transform="translate(462,126)"/>
</svg>
