<svg width="48" height="48" viewBox="0 0 61 52" fill="none" xmlns="http://www.w3.org/2000/svg">
                    <path d="M60.5263 0V42.1953H38.9181V48.2308H42.6023V51.6491H17.3977V48.3376H21.6082V42.3021H0V0.106806L60.5263 0ZM56.9299 3.28481H3.53807V38.9104H56.9299V3.28481ZM35.3217 42.1953H25.0585V48.2308H35.2631L35.3217 42.1953Z" fill="#A9A9A9" />
                    <path d="M42.3976 25.1033L29.9414 32.6076L18.0701 25.1033V13.6999L30.5555 6.08875L42.076 13.6999L42.3976 25.1033ZM30.2339 10.0412L23.3332 14.5278L30.2339 18.6138L37.1052 14.5278L30.2339 10.0412ZM28.7134 27.4C30.0292 21.3645 26.4911 20.0559 21.5203 17.5455V23.4476L28.7134 27.4ZM38.8011 23.4476L38.6257 17.5455C34.0058 20.3764 30.4094 21.3912 31.7252 27.4C34.2382 26.3282 36.6116 25.0024 38.8011 23.4476Z" fill="#A9A9A9" />
                    <path d="M17.9245 6.56958V9.85443H14.3281V13.1659H10.7314V6.56958H17.9245Z" fill="#A9A9A9" />
                    <path d="M49.737 6.56958V13.1659H46.1406V9.85443H42.5439V6.56958H49.737Z" fill="#A9A9A9" />
                    <path d="M49.737 29.0293V35.6256H42.5439V32.3141L46.1406 32.3408V29.0293H49.737Z" fill="#A9A9A9" />
                    <path d="M14.3281 29.0293V32.3408L17.9538 32.3141V35.6256H10.7314V29.0293H14.3281Z" fill="#A9A9A9" />
                  </svg>