<svg width="48" height="48" viewBox="0 0 63 63" fill="none" xmlns="http://www.w3.org/2000/svg">
                    <path d="M0.19935 10.5403L31.2092 0L61.8489 10.4555L62.931 12.6597L62.5608 46.7391L31.2377 62.931L1.08209 47.3325L0 45.1849L0.19935 10.5403ZM55.6982 12.3771C56.0969 11.8685 54.2175 10.9924 53.7334 10.7664C47.241 7.68622 38.5844 6.10375 31.8357 3.24968L7.97321 11.3033L31.1808 22.6066L55.6982 12.3771ZM30.0702 25.3476L3.27467 13.677V44.761L30.0702 58.3815V25.3476ZM59.5139 14.3269L32.69 25.3476V58.4379L59.5139 44.5067V14.3269Z" fill="#A9A9A9" />
                    <path d="M6.34881 36.0424C7.79829 36.9473 11.199 37.0021 12.3698 37.8522C13.0387 38.3457 12.6764 39.6346 13.0945 40.375C16.328 46.0786 23.7705 38.4829 14.6276 36.2892V32.8889C17.5823 34.1503 19.4499 32.8889 18.1677 29.708C13.6798 27.9805 13.8471 31.6823 9.05266 28.6111C6.71118 27.103 7.24081 26.7465 9.49866 25.6496C16.0492 22.4413 27.1991 27.103 24.7182 34.9729C24.4116 35.9327 22.7949 36.5359 22.99 37.5231C23.1851 38.5103 27.5057 41.6638 25.1921 45.4754C17.4151 50.2467 7.63108 44.4608 6.29309 36.0424" fill="#A9A9A9" />
                    <path d="M37.7587 29.1238C47.3546 24.5571 57.3422 19.3756 55.7755 36.208C55.0481 44.1704 43.1022 47.3612 37.7587 51.9864V29.1238ZM43.5498 42.5603C51.4951 41.5065 53.2856 27.4844 43.5498 31.1436V42.5603Z" fill="#A9A9A9" />
                  </svg>