<svg width="48" height="48" viewBox="0 0 63 63" fill="none" xmlns="http://www.w3.org/2000/svg">
                    <g opacity="0.75">
                      <path d="M55.222 37.2555C55.1949 32.3921 53.177 27.738 49.6116 24.3154C46.0462 20.8927 41.2249 18.9815 36.2065 19.0013C34.0872 19.0022 31.9837 19.3561 29.988 20.0473V18.6029L44.1982 11.8541V17.6815H47.2047V7.1722L29.988 15.3405V0L0 12.7755V62.931H47.2047V56.8546H44.1982V59.9675H29.988V54.5385C31.9889 55.2075 34.0899 55.5525 36.2065 55.5596C39.6008 55.5956 42.9411 54.7346 45.8685 53.0692L55.8902 62.7567L62.931 55.8086L52.8323 46.0216C54.3469 43.3328 55.1421 40.3189 55.145 37.2555M26.8787 59.9675H3.00651V14.6183L26.9815 4.40796V21.2676C24.0496 22.8566 21.608 25.1746 19.9086 27.9828C18.2091 30.7909 17.3131 33.9876 17.3131 37.2431C17.3131 40.4987 18.2091 43.6953 19.9086 46.5034C21.608 49.3116 24.0496 51.6296 26.9815 53.2186L26.8787 59.9675ZM36.1038 52.6708C32.9578 52.6708 29.8825 51.7667 27.2667 50.0729C24.651 48.379 22.6122 45.9715 21.4083 43.1547C20.2044 40.338 19.8894 37.2385 20.5032 34.2482C21.1169 31.258 22.6319 28.5112 24.8564 26.3553C27.0809 24.1995 29.9151 22.7313 33.0006 22.1365C36.0861 21.5417 39.2843 21.847 42.1908 23.0137C45.0973 24.1805 47.5815 26.1563 49.3293 28.6913C51.0771 31.2263 52.01 34.2067 52.01 37.2555C52.0032 41.3419 50.3252 45.259 47.3436 48.1485C44.3621 51.038 40.3203 52.6642 36.1038 52.6708ZM58.5883 55.8086L55.7874 58.548L48.3611 51.3758C49.3734 50.5486 50.2948 49.6223 51.1106 48.6116L58.5883 55.8086Z" fill="#A9A9A9" />
                      <path d="M36.2068 24.7292V27.643C38.8374 27.643 41.3604 28.6557 43.2205 30.4585C45.0807 32.2612 46.1257 34.7062 46.1257 37.2557H49.1322C49.1322 33.9533 47.7785 30.7862 45.369 28.451C42.9595 26.1159 39.6915 24.804 36.2839 24.804" fill="#A9A9A9" />
                      <path d="M8.17141 17.1835H5.21631V20.0474H8.17141V17.1835Z" fill="#A9A9A9" />
                      <path d="M13.6704 17.1835H10.7153V20.0474H13.6704V17.1835Z" fill="#A9A9A9" />
                      <path d="M19.17 17.1835H16.2148V20.0474H19.17V17.1835Z" fill="#A9A9A9" />
                      <path d="M8.17141 21.7157H5.21631V24.5796H8.17141V21.7157Z" fill="#A9A9A9" />
                      <path d="M13.6704 21.7157H10.7153V24.5796H13.6704V21.7157Z" fill="#A9A9A9" />
                      <path d="M19.17 21.7157H16.2148V24.5796H19.17V21.7157Z" fill="#A9A9A9" />
                      <path d="M8.17141 26.2483H5.21631V29.1122H8.17141V26.2483Z" fill="#A9A9A9" />
                      <path d="M13.6704 26.2483H10.7153V29.1122H13.6704V26.2483Z" fill="#A9A9A9" />
                      <path d="M8.17141 30.7805H5.21631V33.6444H8.17141V30.7805Z" fill="#A9A9A9" />
                      <path d="M13.6704 30.7805H10.7153V33.6444H13.6704V30.7805Z" fill="#A9A9A9" />
                      <path d="M8.17141 35.3381H5.21631V38.202H8.17141V35.3381Z" fill="#A9A9A9" />
                      <path d="M13.6704 35.3381H10.7153V38.202H13.6704V35.3381Z" fill="#A9A9A9" />
                      <path d="M8.17141 39.8705H5.21631V42.7344H8.17141V39.8705Z" fill="#A9A9A9" />
                      <path d="M13.6704 39.8705H10.7153V42.7344H13.6704V39.8705Z" fill="#A9A9A9" />
                      <path d="M8.17141 44.4027H5.21631V47.2666H8.17141V44.4027Z" fill="#A9A9A9" />
                      <path d="M13.6704 44.4027H10.7153V47.2666H13.6704V44.4027Z" fill="#A9A9A9" />
                      <path d="M8.17141 48.9353H5.21631V51.7993H8.17141V48.9353Z" fill="#A9A9A9" />
                      <path d="M13.6704 48.9353H10.7153V51.7993H13.6704V48.9353Z" fill="#A9A9A9" />
                      <path d="M18.8099 48.9353H15.8547V51.7993H18.8099V48.9353Z" fill="#A9A9A9" />
                      <path d="M8.17141 53.4924H5.21631V56.3563H8.17141V53.4924Z" fill="#A9A9A9" />
                      <path d="M13.6704 53.4924H10.7153V56.3563H13.6704V53.4924Z" fill="#A9A9A9" />
                      <path d="M18.8099 53.4924H15.8547V56.3563H18.8099V53.4924Z" fill="#A9A9A9" />
                      <path d="M23.949 53.4924H20.9939V56.3563H23.949V53.4924Z" fill="#A9A9A9" />
                      <path d="M24.6685 17.1835H21.7134V20.0474H24.6685V17.1835Z" fill="#A9A9A9" />
                    </g>
                  </svg>