<?xml version="1.0" encoding="UTF-8"?>
<svg version="1.1" xmlns="http://www.w3.org/2000/svg" width="750" height="788">
<path d="M0 0 C4.09635838 0.60832372 7.17037622 1.95867963 10.8046875 3.921875 C11.93293945 4.52821777 13.06119141 5.13456055 14.22363281 5.75927734 C15.44089404 6.42259686 16.65801281 7.08617785 17.875 7.75 C19.14402658 8.43604113 20.41323474 9.12174647 21.68261719 9.80712891 C30.18222209 14.40885928 38.60076187 19.14542665 46.99169922 23.94238281 C55.92492573 29.02028158 65.00343215 33.80976074 74.09118652 38.60296631 C83.55363078 43.59695712 92.91522748 48.72638217 102.19921875 54.046875 C111.05614101 59.09369671 120.06341756 63.84198132 129.07919312 68.59646606 C138.85121744 73.75307815 148.52064039 79.05373091 158.11328125 84.5390625 C164.60101805 88.23968249 171.16635965 91.75183477 177.7956543 95.19091797 C185.1538001 99.03055615 192.36000438 103.12490431 199.56518555 107.24291992 C204.70908196 110.17379007 209.87917173 113.00822056 215.1496582 115.70458984 C222.46072765 119.44966639 228.9098618 123.40508065 235 129 C235.82757812 129.73605469 236.65515625 130.47210938 237.5078125 131.23046875 C254.44594173 147.1067275 264.01505548 169.90722933 265.203125 192.9375 C265.82763892 225.25807153 249.68643054 250.6068669 234.10717773 277.89282227 C229.0159485 286.85959025 224.20844809 295.96935768 219.39831543 305.08862305 C214.37937402 314.59778528 209.22669318 324.00819282 203.8828125 333.33984375 C199.43305978 341.14623376 195.20386803 349.05966425 191 357 C186.30720136 365.86383601 181.54724879 374.67047636 176.5625 383.375 C170.95589817 393.16898865 165.66070881 403.11133016 160.39675903 413.09173584 C155.88777051 421.63520106 151.30387007 430.1173112 146.5 438.5 C140.84931956 448.36204506 135.50752181 458.3728915 130.19836426 468.42114258 C125.7471529 476.84501453 121.26332411 485.24333422 116.59814453 493.55126953 C113.22702511 499.56065633 109.95532662 505.62142844 106.6875 511.6875 C102.46831489 519.513965 98.16058178 527.27994021 93.75 535 C88.08845462 544.92180405 82.72622065 554.9874488 77.39758301 565.09008789 C72.40341198 574.55290279 67.2738229 583.91486964 61.953125 593.19921875 C57.29410604 601.37556638 52.88965768 609.67724498 48.5 618 C43.11609405 628.2074696 37.61840954 638.3241655 31.8828125 648.33984375 C27.43305978 656.14623376 23.20386803 664.05966425 19 672 C13.82074355 681.78266559 8.52274135 691.4738989 3.01269531 701.07568359 C-0.18789567 706.69001258 -3.2680149 712.35573644 -6.26953125 718.078125 C-6.64021225 718.78341339 -7.01089325 719.48870178 -7.39280701 720.21536255 C-9.21580867 723.68749985 -11.02862728 727.16439403 -12.82592773 730.64990234 C-18.78106662 742.10128306 -25.36096072 753.1803594 -34.6875 762.25 C-35.27853516 762.83007812 -35.86957031 763.41015625 -36.47851562 764.0078125 C-55.12861177 781.76980883 -79.12353824 788.61949223 -104.421875 788.28125 C-109.59476322 788.10275144 -114.51292902 787.43225182 -119.5625 786.3125 C-120.23837158 786.16401611 -120.91424316 786.01553223 -121.6105957 785.86254883 C-131.86797048 783.32519169 -141.19107698 778.56893929 -150.25 773.25 C-159.72699044 767.78641961 -169.32330403 762.59693681 -179 757.5 C-189.20824361 752.11763729 -199.32423395 746.61837034 -209.33984375 740.8828125 C-217.14623376 736.43305978 -225.05966425 732.20386803 -233 728 C-241.86383601 723.30720136 -250.67047636 718.54724879 -259.375 713.5625 C-269.16898865 707.95589817 -279.11133016 702.66070881 -289.09173584 697.39675903 C-298.53793782 692.41133272 -307.88800837 687.29802834 -317.15087891 681.97729492 C-322.87780634 678.70849371 -328.66026479 675.56443837 -334.4921875 672.48828125 C-335.59345978 671.90703995 -335.59345978 671.90703995 -336.71697998 671.3140564 C-340.37483695 669.38615308 -344.03716791 667.46729734 -347.70507812 665.55859375 C-349.04041911 664.85817686 -350.3757081 664.15766084 -351.7109375 663.45703125 C-352.33265839 663.13680496 -352.95437927 662.81657867 -353.59494019 662.48664856 C-357.88688336 660.22623328 -357.88688336 660.22623328 -359 658 C-357.95204281 655.66699296 -356.84562996 653.46801939 -355.625 651.2265625 C-355.08178101 650.20808731 -355.08178101 650.20808731 -354.52758789 649.16903687 C-353.75438157 647.72283246 -352.97731989 646.27868391 -352.19677734 644.83642578 C-351.02565955 642.67241415 -349.86523336 640.5029776 -348.70703125 638.33203125 C-346.49916213 634.20590986 -344.25751643 630.09913401 -342 626 C-341.6601709 625.37911499 -341.3203418 624.75822998 -340.97021484 624.11853027 C-340.03263525 622.41416599 -339.07926611 620.71851546 -338.125 619.0234375 C-337.32449219 617.59523682 -337.32449219 617.59523682 -336.5078125 616.13818359 C-335 614 -335 614 -332 613 C-329.27050781 614.14892578 -329.27050781 614.14892578 -325.953125 615.9453125 C-325.05513687 616.42675468 -325.05513687 616.42675468 -324.13900757 616.91792297 C-322.170454 617.97701385 -320.21029575 619.05071246 -318.25 620.125 C-316.87714571 620.8679259 -315.50393245 621.61018881 -314.13037109 622.35180664 C-305.3254639 627.12001508 -296.5980128 632.01959742 -287.90722656 636.99267578 C-279.6944928 641.6679024 -271.35773267 646.09167316 -263 650.5 C-252.79255931 655.88396435 -242.67583725 661.38158889 -232.66015625 667.1171875 C-224.21443349 671.93136893 -215.63936243 676.4851106 -207.04864502 681.03305054 C-198.87869605 685.36111569 -190.77218934 689.77704914 -182.75 694.375 C-173.74010222 699.52503819 -164.63113428 704.47587301 -155.46911621 709.34869385 C-153.96779298 710.14738881 -152.46735959 710.94775908 -150.96789551 711.74993896 C-130.82318125 722.51580822 -112.37554841 729.19551085 -89.578125 722.33203125 C-80.57431349 718.98017565 -73.07233571 714.44368365 -66 708 C-65.34 708 -64.68 708 -64 708 C-63.60337158 707.13157471 -63.60337158 707.13157471 -63.19873047 706.24560547 C-61.94971466 703.90579947 -60.52258245 702.10044872 -58.8203125 700.0703125 C-54.36173419 694.42277997 -51.17463045 688.24662455 -47.875 681.875 C-46.56074606 679.37118062 -45.23964269 676.87100274 -43.91796875 674.37109375 C-43.58877945 673.74680984 -43.25959015 673.12252594 -42.92042542 672.47932434 C-39.79255175 666.56539345 -36.5091222 660.7446222 -33.1875 654.9375 C-28.89873137 647.4240933 -24.77690839 639.85065574 -20.79199219 632.17236328 C-17.64280793 626.13872699 -14.31579068 620.22038882 -10.9375 614.3125 C-5.60157799 604.97143749 -0.51734123 595.5142218 4.5 586 C9.85929211 575.83832368 15.33396694 565.76951729 21.046875 555.80078125 C25.70589396 547.62443362 30.11034232 539.32275502 34.5 531 C39.88390595 520.7925304 45.38159046 510.6758345 51.1171875 500.66015625 C55.56694022 492.85376624 59.79613197 484.94033575 64 477 C68.69279864 468.13616399 73.45275121 459.32952364 78.4375 450.625 C84.04410183 440.83101135 89.33929119 430.88866984 94.60324097 420.90826416 C99.59714167 411.44600522 104.72648471 402.0845936 110.046875 392.80078125 C115.09369671 383.94385899 119.84198132 374.93658244 124.59646606 365.92080688 C129.75307815 356.14878256 135.05373091 346.47935961 140.5390625 336.88671875 C143.81191474 331.14892237 146.95730674 325.36287037 150 319.5 C153.53887488 312.68105281 157.24916158 305.98162716 161.0625 299.3125 C167.18285253 288.59200857 172.99090157 277.71953754 178.74316406 266.79882812 C182.49679055 259.67787481 186.31544307 252.60693523 190.25830078 245.58813477 C200.0670436 228.07076167 205.18643593 211.07912615 199.89990234 191.02294922 C194.54213626 172.46450261 183.50891402 159.74419019 166.94262695 150.24731445 C163.58196307 148.42434511 160.20230614 146.64316571 156.8125 144.875 C154.30111363 143.55114983 151.79280684 142.22153576 149.28515625 140.890625 C148.66128021 140.55999054 148.03740417 140.22935608 147.3946228 139.88870239 C141.78533061 136.90656453 136.26088453 133.78503192 130.75 130.625 C120.91397197 124.99915967 110.92991636 119.68252054 100.90881348 114.39703369 C91.44636922 109.40304288 82.08477252 104.27361783 72.80078125 98.953125 C64.62443362 94.29410604 56.32275502 89.88965768 48 85.5 C37.8073874 80.12393034 27.70363991 74.63706523 17.70410156 68.90698242 C8.16537681 63.46738205 -1.53311169 58.33280058 -11.24072266 53.20288086 C-11.86715668 52.8712796 -12.4935907 52.53967834 -13.13900757 52.19802856 C-14.84864576 51.29355533 -16.5595367 50.39145118 -18.27050781 49.48950195 C-21 48 -21 48 -24 46 C-22.63531575 41.4795899 -20.81547765 37.57655737 -18.515625 33.45703125 C-18.17754822 32.84792404 -17.83947144 32.23881683 -17.4911499 31.61125183 C-16.4155049 29.67565057 -15.33297878 27.74400571 -14.25 25.8125 C-13.53858597 24.53607277 -12.82764463 23.25938196 -12.1171875 21.98242188 C-11.07265845 20.10540354 -10.02769064 18.22864346 -8.98059082 16.35305786 C-5.94940062 10.92249356 -2.96470517 5.46714852 0 0 Z " fill="#000000" transform="translate(438,0)"/>
<path d="M0 0 C3.1462391 1.70935088 6.31432645 3.37603085 9.48339844 5.04248047 C22.00523799 11.64199523 34.42675319 18.38453266 46.7121582 25.41625977 C54.92427079 30.08998845 63.25960174 34.51365246 71.61621094 38.92138672 C81.8207273 44.30380862 91.93544568 49.79842936 101.94726562 55.53417969 C109.19326359 59.66575988 116.53082478 63.60400148 123.90197754 67.50579834 C129.48183325 70.46182842 135.0502789 73.43924222 140.61621094 76.42138672 C141.62458008 76.96102051 142.63294922 77.5006543 143.671875 78.05664062 C164.88654094 89.50870706 164.88654094 89.50870706 168.76074219 99.31982422 C173.08421487 114.99488044 164.68500107 127.04739904 157.265625 140.19311523 C156.19686734 142.07264889 155.1231964 143.94939622 154.04492188 145.82348633 C150.65372535 151.7348396 147.38130307 157.69481423 144.20996094 163.72607422 C143.64625038 164.79694527 143.64625038 164.79694527 143.07115173 165.88945007 C141.21344633 169.42362315 139.36564829 172.96263614 137.52856445 176.50756836 C125.81891534 198.94973488 125.81891534 198.94973488 113.88183594 202.91357422 C105.76956824 204.73184112 98.69945787 203.73292833 91.61621094 199.42138672 C85.29059172 195.18760593 81.99153742 190.12041886 79.86621094 182.85888672 C78.54187166 169.94657872 84.66894407 160.11246137 90.61621094 149.17138672 C91.3486054 147.8097428 92.08038089 146.44776577 92.81152344 145.08544922 C98.07547177 135.30591752 98.07547177 135.30591752 100.29199219 131.68017578 C101.98206952 128.79732263 102.48234626 126.7680037 102.61621094 123.42138672 C101.07879331 117.57919975 99.05130863 115.79824898 94.0090332 112.78491211 C89.56514351 110.25260684 85.06547352 107.83015928 80.55371094 105.42138672 C72.43446157 101.05837814 64.3715369 96.61491181 56.36621094 92.04638672 C43.25759139 84.57472776 29.94232125 77.49530446 16.61621094 70.42138672 C20.61621094 62.42138672 24.61621094 54.42138672 28.61621094 46.42138672 C27.96265625 46.17646484 27.30910156 45.93154297 26.63574219 45.67919922 C22.76201478 44.06556374 19.04688885 42.18971889 15.30371094 40.29638672 C14.56314453 39.92384766 13.82257813 39.55130859 13.05957031 39.16748047 C11.24419877 38.25393866 9.43007812 37.33791185 7.61621094 36.42138672 C6.21844729 38.92032308 4.82275593 41.42037571 3.42871094 43.92138672 C2.98744873 44.71222656 2.54618652 45.50306641 2.09155273 46.31787109 C-0.54531588 51.06031597 -3.14182792 55.82150499 -5.69628906 60.60888672 C-6.25678955 61.65625 -6.81729004 62.70361328 -7.39477539 63.78271484 C-8.48589332 65.82544268 -9.57194259 67.8708887 -10.65209961 69.91943359 C-14.13671021 76.43264267 -18.01814776 82.46514678 -22.38378906 88.42138672 C-23.14691406 89.47326172 -23.91003906 90.52513672 -24.69628906 91.60888672 C-33.89406474 101.23446591 -46.35202959 106.78984738 -59.61035156 107.62451172 C-69.82008506 107.76533563 -79.43784609 106.63985345 -88.38378906 101.42138672 C-88.62871094 102.23865234 -88.87363281 103.05591797 -89.12597656 103.89794922 C-90.60926518 108.05299995 -92.50179855 111.87459961 -94.50878906 115.79638672 C-94.88132813 116.53244141 -95.25386719 117.26849609 -95.63769531 118.02685547 C-96.54940127 119.8268903 -97.46608838 121.62440074 -98.38378906 123.42138672 C-97.85269531 123.81068359 -97.32160156 124.19998047 -96.77441406 124.60107422 C-90.26325331 129.75772343 -87.14328817 134.88337242 -86.00878906 143.15576172 C-85.48786615 154.68118124 -91.75316267 164.34085633 -97.13378906 174.17138672 C-98.06324341 175.88467163 -98.06324341 175.88467163 -99.01147461 177.63256836 C-102.9162829 184.80796611 -106.89300169 191.93494938 -111.02832031 198.97998047 C-112.49244528 201.44065296 -112.49244528 201.44065296 -113.38378906 204.42138672 C-112.54589844 204.66630859 -111.70800781 204.91123047 -110.84472656 205.16357422 C-106.93952059 206.58284772 -103.57407635 208.43996438 -100.00878906 210.54638672 C-99.368125 210.91892578 -98.72746094 211.29146484 -98.06738281 211.67529297 C-96.50330429 212.58572673 -94.94313372 213.50286863 -93.38378906 214.42138672 C-90.21378099 210.69974801 -87.81073993 206.81031311 -85.55566406 202.49560547 C-85.02661469 201.49772758 -85.02661469 201.49772758 -84.48687744 200.47969055 C-83.74155113 199.0715038 -82.99873809 197.66198427 -82.25830078 196.2512207 C-81.15576676 194.15075695 -80.04595594 192.05428722 -78.93457031 189.95849609 C-75.20004368 182.89819234 -71.52982478 175.80557859 -67.93066406 168.67529297 C-67.59548767 168.01655685 -67.26031128 167.35782074 -66.91497803 166.67912292 C-61.30637933 155.48635576 -61.74457675 144.60401264 -63.38378906 132.42138672 C-62.2584375 132.26283203 -61.13308594 132.10427734 -59.97363281 131.94091797 C-35.34023064 128.28072803 -16.15886493 119.28888804 -0.38378906 99.42138672 C1.40845969 96.80496518 3.0196671 94.16544644 4.61621094 91.42138672 C21.50914943 99.68334572 21.50914943 99.68334572 28.61621094 104.42138672 C19.552982 123.04070901 9.52571848 141.13592579 -0.71850586 159.12670898 C-4.48471553 165.76441861 -8.07608872 172.47488767 -11.59130859 179.24804688 C-14.74061876 185.28202984 -18.06781716 191.20068097 -21.44628906 197.10888672 C-26.78221107 206.44994922 -31.86644784 215.90716492 -36.88378906 225.42138672 C-42.23877769 235.57490327 -47.70727061 245.63674605 -53.41748047 255.59643555 C-58.96566294 265.33037698 -64.17912915 275.24012029 -69.38574219 285.15966797 C-72.58770909 291.25088535 -75.82665112 297.31992507 -79.20410156 303.31591797 C-80.01645264 304.76188354 -80.01645264 304.76188354 -80.84521484 306.23706055 C-82.38378906 308.42138672 -82.38378906 308.42138672 -85.38378906 309.42138672 C-88.11328125 308.27246094 -88.11328125 308.27246094 -91.43066406 306.47607422 C-92.03000259 306.15475021 -92.62934113 305.83342621 -93.24684143 305.50236511 C-95.21471378 304.44364849 -97.17419978 303.37034591 -99.13378906 302.29638672 C-100.49565986 301.5593255 -101.85788632 300.8229211 -103.22045898 300.0871582 C-112.3781498 295.12737775 -121.46846754 290.04866947 -130.50708008 284.875 C-135.42305049 282.06574836 -140.36874005 279.36122188 -145.40820312 276.78027344 C-167.54327197 265.43292776 -182.55637316 249.36262037 -190.31347656 225.56982422 C-195.86405118 205.95779389 -193.70845778 185.51283799 -184.38378906 167.42138672 C-187.5047134 165.58104696 -190.63117123 163.75032416 -193.75878906 161.92138672 C-194.64824219 161.39673828 -195.53769531 160.87208984 -196.45410156 160.33154297 C-197.30488281 159.83525391 -198.15566406 159.33896484 -199.03222656 158.82763672 C-199.81774902 158.36679687 -200.60327148 157.90595703 -201.41259766 157.43115234 C-203.31133325 156.26941248 -203.31133325 156.26941248 -205.38378906 156.42138672 C-209.03049054 163.95082212 -212.29526401 171.30545167 -214.38378906 179.42138672 C-227.26710078 173.14584806 -239.83913226 166.34592626 -252.38378906 159.42138672 C-251.12042607 155.35013499 -249.6108977 151.70332041 -247.58300781 147.95654297 C-246.74612427 146.40459229 -246.74612427 146.40459229 -245.89233398 144.82128906 C-244.99091675 143.1692749 -244.99091675 143.1692749 -244.07128906 141.48388672 C-243.44391846 140.3258252 -242.81654785 139.16776367 -242.17016602 137.97460938 C-237.71429044 129.76738281 -233.12326614 121.64029526 -228.49194336 113.53100586 C-223.40124785 104.56292145 -218.59265346 95.45281828 -213.78210449 86.33276367 C-208.76393301 76.82506018 -203.61269451 67.41569531 -198.26879883 58.0859375 C-193.43478124 49.6067059 -188.86662413 40.99514651 -184.30148315 32.36950684 C-178.23394874 20.91420099 -171.92086715 9.6165095 -165.38378906 -1.57861328 C-153.37215664 4.15467009 -141.88842195 10.74026797 -130.38378906 17.42138672 C-131.65211594 19.98515436 -132.92335271 22.54740884 -134.19628906 25.10888672 C-134.55271484 25.83011719 -134.90914063 26.55134766 -135.27636719 27.29443359 C-136.81062406 30.3770231 -138.35380441 33.37212148 -140.14550781 36.31591797 C-141.55277247 38.30161031 -141.55277247 38.30161031 -141.38378906 40.42138672 C-138.44861305 42.07139058 -135.51026432 43.71566104 -132.57128906 45.35888672 C-131.73791016 45.82746094 -130.90453125 46.29603516 -130.04589844 46.77880859 C-129.24345703 47.22675781 -128.44101563 47.67470703 -127.61425781 48.13623047 C-126.8758667 48.54993896 -126.13747559 48.96364746 -125.37670898 49.38989258 C-123.27053551 50.54537741 -123.27053551 50.54537741 -120.38378906 51.42138672 C-120.10615723 50.69846436 -119.82852539 49.97554199 -119.54248047 49.23071289 C-114.46983501 36.93173874 -107.54090805 24.14351943 -98.38378906 14.42138672 C-97.79855469 13.74720703 -97.21332031 13.07302734 -96.61035156 12.37841797 C-71.70553628 -14.7856949 -30.8714514 -16.88219718 0 0 Z " fill="#000000" transform="translate(252.3837890625,132.57861328125)"/>
<path d="M0 0 C4.07125173 1.26336299 7.71806631 2.77289137 11.46484375 4.80078125 C13.01703613 5.63778564 13.01703613 5.63778564 14.60058594 6.49169922 C16.2523584 7.39299561 16.2523584 7.39299561 17.9375 8.3125 C19.67241699 9.25246826 19.67241699 9.25246826 21.44238281 10.21142578 C29.69675192 14.69327865 37.87355486 19.30658899 46.03100586 23.9621582 C53.94442145 28.45563785 61.95922275 32.74073939 70 37 C79.40868394 41.98788377 88.77982154 47.02961845 98.0625 52.25 C99.47112305 53.03697266 99.47112305 53.03697266 100.90820312 53.83984375 C112.81457948 60.58531496 119.589762 68.664561 123.5546875 81.84375 C124.13014201 84.63016132 124.20886657 87.27993781 124.25 90.125 C124.27578125 91.17945313 124.3015625 92.23390625 124.328125 93.3203125 C123.40647097 103.65600411 118.52032433 112.23708512 113.625 121.1875 C112.90112522 122.52703724 112.17782604 123.86688567 111.45507812 125.20703125 C106.72762562 133.94686272 101.86837909 142.60928021 96.93603516 151.23510742 C92.10658333 159.71589732 87.53422836 168.32459539 82.9682312 176.9487915 C78.61725228 185.16144325 74.1816683 193.3088644 69.5625 201.375 C63.95589817 211.16898865 58.66070881 221.11133016 53.39675903 231.09173584 C48.40285833 240.55399478 43.27351529 249.9154064 37.953125 259.19921875 C33.29410604 267.37556638 28.88965768 275.67724498 24.5 284 C19.11609405 294.2074696 13.61840954 304.3241655 7.8828125 314.33984375 C3.43305978 322.14623376 -0.79613197 330.05966425 -5 338 C-9.69279864 346.86383601 -14.45275121 355.67047636 -19.4375 364.375 C-25.04410183 374.16898865 -30.33929119 384.11133016 -35.60324097 394.09173584 C-40.59714167 403.55399478 -45.72648471 412.9154064 -51.046875 422.19921875 C-55.70589396 430.37556638 -60.11034232 438.67724498 -64.5 447 C-69.88390595 457.2074696 -75.38159046 467.3241655 -81.1171875 477.33984375 C-85.5669432 485.14623899 -89.79602725 493.05971538 -94 501 C-99.22652022 510.87080188 -104.56473184 520.65672878 -110.12353516 530.34594727 C-113.14469182 535.63695033 -116.06364591 540.96889185 -118.89453125 546.36328125 C-119.22612747 546.99276672 -119.55772369 547.6222522 -119.89936829 548.27081299 C-121.51767036 551.34444181 -123.12489222 554.42293927 -124.71313477 557.51220703 C-131.15773195 569.79293662 -138.17661857 577.60694066 -151.1875 582.875 C-168.44059402 587.97458708 -182.51328148 580.03193667 -197.25 572.0625 C-198.6719357 571.30035753 -200.09405722 570.53856164 -201.51635742 569.77709961 C-210.78704325 564.79980598 -219.97513652 559.68519355 -229.11035156 554.46313477 C-235.59061559 550.76552448 -242.14849373 547.25619801 -248.77148438 543.82226562 C-256.37219143 539.85752021 -263.81953286 535.63033486 -271.26171875 531.37695312 C-275.78881044 528.79321382 -280.30138282 526.25879921 -285 524 C-283.39443722 518.11938451 -280.41527598 513.22637919 -277.375 508 C-272.06918135 498.75683176 -266.98080909 489.42027479 -262 480 C-256.57651998 469.74904109 -251.03308161 459.58464369 -245.24804688 449.53125 C-241.95240163 443.78455023 -238.89948847 437.95656648 -236 432 C-232.01309453 432.59481876 -229.10863483 433.84975242 -225.61328125 435.8359375 C-224.0809082 436.69058594 -224.0809082 436.69058594 -222.51757812 437.5625 C-220.39900411 438.76057233 -218.28178975 439.96105251 -216.16601562 441.1640625 C-206.77944326 446.38994103 -198.4997316 449.5808953 -187.6875 449.4375 C-186.86572266 449.42920166 -186.04394531 449.42090332 -185.19726562 449.41235352 C-171.41993731 449.03398865 -159.38786145 443.88984061 -149.75 433.9375 C-139.88146491 422.0790134 -136.87256316 409.06319566 -136 394 C-134.79085937 393.98582031 -133.58171875 393.97164063 -132.3359375 393.95703125 C-114.70386789 393.53575641 -100.83696785 389.40387066 -88.1875 376.3125 C-79.01895323 365.11629385 -76.89561976 351.92924413 -76 338 C-74.83597656 338.05220703 -74.83597656 338.05220703 -73.6484375 338.10546875 C-56.49173727 338.53540993 -42.77109673 334.3062454 -30.22265625 322.4140625 C-20.8956456 312.28384706 -16.63520101 298.83318668 -16.78515625 285.25390625 C-17.59461699 272.99425535 -22.66440593 262.64106649 -30 253 C-29.29875 252.52691406 -28.5975 252.05382812 -27.875 251.56640625 C-15.18331399 242.72016315 -6.56732667 232.37193491 -3 217 C-1.36096378 201.10244381 -3.97494919 186.80307693 -14 174 C-20.72138528 166.21127028 -29.97589908 161.90496381 -38.90478516 157.13671875 C-43.02220973 154.90288878 -47.01629348 152.46229096 -51 150 C-50.80664062 149.3709375 -50.61328125 148.741875 -50.4140625 148.09375 C-49.86816937 146.299329 -49.33096993 144.50224867 -48.80078125 142.703125 C-48.16145316 140.54500285 -47.49200663 138.39581042 -46.8125 136.25 C-44.45606696 126.34499331 -44.78412458 112.94623059 -50.19311523 104.03417969 C-52.1585454 100.60069352 -53.35344211 98.33943238 -52.31396484 94.40014648 C-50.88745743 91.43787065 -49.28558773 88.67527634 -47.5625 85.875 C-46.95575439 84.82586426 -46.34900879 83.77672852 -45.72387695 82.69580078 C-44.45838515 80.51175143 -43.17880542 78.33580835 -41.88574219 76.16796875 C-39.07559913 71.44704483 -36.38490159 66.66090413 -33.6875 61.875 C-33.1618042 60.95146729 -32.6361084 60.02793457 -32.09448242 59.07641602 C-26.83039619 49.80167216 -21.83313839 40.39015304 -16.83666992 30.96972656 C-11.32898452 20.58815116 -5.70526459 10.27431123 0 0 Z " fill="#000000" transform="translate(492,117)"/>
<path d="M0 0 C3.88552786 0.70939098 7.1399582 2.51190204 10.58203125 4.359375 C11.22384842 4.69979324 11.86566559 5.04021149 12.52693176 5.39094543 C14.62471839 6.50583021 16.71873144 7.62758971 18.8125 8.75 C20.27455572 9.52990609 21.73663273 10.30977229 23.19873047 11.08959961 C32.32053703 15.96694822 41.35833239 20.97445033 50.33520508 26.11425781 C58.14284432 30.56552862 66.05810393 34.79517407 74 39 C83.87018851 44.22619545 93.65702756 49.56167243 103.34375 55.12353516 C108.64417458 58.151947 113.98803089 61.06911391 119.3984375 63.89453125 C120.03028961 64.22612747 120.66214172 64.55772369 121.31314087 64.89936829 C124.40106806 66.51966832 127.49420799 68.12753792 130.60009766 69.71313477 C139.27793749 74.25395186 146.64108373 78.98805935 150.3359375 88.41796875 C152.44578035 96.62153419 151.86738485 104.42151212 147.609375 111.77734375 C142.80250368 118.41595973 137.0784435 122.45070947 129 124 C116.78049124 125.72105757 105.83691504 117.96817825 95.5 112.375 C94.15169889 111.65032035 92.8032272 110.925958 91.45458984 110.2019043 C83.78735233 106.07869376 76.14718582 101.90843847 68.5534668 97.65112305 C62.50822758 94.26418397 56.41276885 90.97408646 50.3125 87.6875 C42.48605617 83.46827807 34.72001904 79.16065526 27 74.75 C16.06541317 68.50941214 4.96034588 62.6057266 -6.17578125 56.73535156 C-6.8411792 56.38426834 -7.50657715 56.03318512 -8.19213867 55.67146301 C-10.0049363 54.71564846 -11.81883583 53.76192462 -13.6328125 52.80834961 C-17.12681409 50.93189443 -20.56511584 48.98210515 -24 47 C-23.38594555 42.5917083 -21.74772039 39.27610881 -19.6484375 35.37109375 C-19.31131744 34.74074722 -18.97419739 34.1104007 -18.62686157 33.46095276 C-17.91199585 32.12720122 -17.19402012 30.7951125 -16.47314453 29.46459961 C-15.39338953 27.47144581 -14.32277983 25.47361566 -13.25390625 23.47460938 C-9.00105211 15.54876864 -4.59395645 7.73427844 0 0 Z " fill="#000000" transform="translate(240,363)"/>
<path d="M0 0 C5.9829611 0.9349885 11.0221996 3.61457985 16.37573242 6.34277344 C17.5794256 6.94551213 18.79289427 7.52912662 20.01538086 8.09277344 C30.18539979 12.79316779 30.18539979 12.79316779 32.16992188 18.16943359 C32.66796875 21.6015625 32.66796875 21.6015625 32.80541992 24.83056641 C33.46463048 35.56817172 40.77037027 46.21909045 48.50390625 53.2890625 C59.26980534 61.65731594 72.32690944 66.29222056 86 65 C88.79729439 64.49652932 91.55256462 63.86475584 94.3125 63.1875 C94.99425293 63.0222583 95.67600586 62.8570166 96.37841797 62.68676758 C99.4871249 61.87422118 101.93113214 61.04656582 104.60546875 59.23828125 C107 58 107 58 109.80810547 58.74755859 C112.83072204 59.93357841 115.61101274 61.25618589 118.46484375 62.80078125 C120.01981567 63.63899414 120.01981567 63.63899414 121.60620117 64.49414062 C122.70552979 65.09419922 123.8048584 65.69425781 124.9375 66.3125 C126.07743408 66.93189453 127.21736816 67.55128906 128.3918457 68.18945312 C131.35061975 69.79999626 134.30456899 71.4191735 137.2565918 73.04205322 C138.95327957 73.97432862 140.6514246 74.90395035 142.34960938 75.83349609 C145.46820668 77.54514002 148.57920647 79.26972761 151.6875 81 C152.62392334 81.51473877 153.56034668 82.02947754 154.52514648 82.55981445 C162.93585943 87.28618514 170.57346102 92.195726 173.578125 101.859375 C175.12242965 109.69529119 174.58631242 116.76818835 170.6171875 123.7421875 C166.4181787 129.60457177 160.98232037 134.02167589 154 136 C141.17973865 137.45478143 131.76042172 132.10245118 120.8125 126.0625 C119.76787598 125.49184814 118.72325195 124.92119629 117.64697266 124.33325195 C109.74119455 119.99964823 101.90160244 115.5531577 94.06958008 111.08813477 C85.48255153 106.21825873 76.77632692 101.58782954 68.05285645 96.96905518 C59.83964945 92.61780516 51.69167225 88.18197562 43.625 83.5625 C34.5152472 78.34759129 25.28191255 73.39860198 16 68.5 C6.14215751 63.2893698 -3.6964187 58.05190745 -13.4375 52.625 C-14.40236328 52.09583984 -15.36722656 51.56667969 -16.36132812 51.02148438 C-17.23080078 50.53228516 -18.10027344 50.04308594 -18.99609375 49.5390625 C-19.75075928 49.11834473 -20.5054248 48.69762695 -21.28295898 48.26416016 C-23 47 -23 47 -24 44 C-22.87939453 41.34301758 -22.87939453 41.34301758 -21.1328125 38.14453125 C-20.6671714 37.28238258 -20.6671714 37.28238258 -20.19212341 36.40281677 C-19.17945017 34.53391073 -18.15254622 32.67326351 -17.125 30.8125 C-16.43143622 29.53980955 -15.73864703 28.26669668 -15.04663086 26.99316406 C-10.11935429 17.94675294 -5.12134706 8.93806913 0 0 Z " fill="#000000" transform="translate(277,295)"/>
<path d="M0 0 C6.11631917 1.68121421 11.41507087 4.77529667 16.9375 7.8125 C18.0001709 8.39217529 19.0628418 8.97185059 20.15771484 9.5690918 C28.12986677 13.93271529 36.03442839 18.41024933 43.92944336 22.91137695 C52.5099634 27.77736733 61.20944876 32.40421746 69.92599487 37.01986694 C80.36741454 42.55240852 90.69077802 48.2663886 100.94921875 54.1328125 C105.48479126 56.72609803 110.06808906 59.22427387 114.66943359 61.69873047 C121.93034935 65.75285586 125.72462044 71.04589537 128 79 C129.04502117 87.66817563 128.213875 94.85598859 123 102 C117.73455118 107.71131344 112.62460785 110.94705231 104.8125 111.8125 C103.52279297 111.97685547 103.52279297 111.97685547 102.20703125 112.14453125 C92.69629562 111.71591101 84.64521919 106.96429948 76.5 102.4375 C75.35289551 101.80980713 74.20579102 101.18211426 73.02392578 100.53540039 C69.67682959 98.70052385 66.33713229 96.85292375 63 95 C62.15276367 94.53078125 61.30552734 94.0615625 60.43261719 93.578125 C57.53804405 91.9742914 54.64490422 90.36801461 51.7565918 88.75292969 C45.64122073 85.3366758 39.47865979 82.01099565 33.3125 78.6875 C24.98463652 74.18896959 16.68952131 69.63631815 8.4375 65 C7.49237549 64.47237061 6.54725098 63.94474121 5.57348633 63.40112305 C-8.79897748 55.28455685 -8.79897748 55.28455685 -11.875 49.875 C-12.26429688 49.21242188 -12.65359375 48.54984375 -13.0546875 47.8671875 C-16.3011355 41.45478195 -16.5539486 32.76275154 -14.32324219 25.92578125 C-12.28106782 21.06896792 -9.66891763 16.53377569 -7 12 C-6.30192515 10.77557096 -5.60525612 9.55033911 -4.91015625 8.32421875 C-3.30417051 5.52934377 -1.67063548 2.75654855 0 0 Z " fill="#000000" transform="translate(203,431)"/>
<path d="M0 0 C3.33209776 1.28336016 6.49104583 2.70953452 9.64453125 4.3828125 C10.48564453 4.82753906 11.32675781 5.27226562 12.19335938 5.73046875 C13.48983398 6.42076172 13.48983398 6.42076172 14.8125 7.125 C15.69615234 7.59292969 16.57980469 8.06085938 17.49023438 8.54296875 C19.66135525 9.69307603 21.8312226 10.84548146 24 12 C23.29272371 15.76323294 21.65663532 18.7820034 19.859375 22.14453125 C19.54124344 22.74177505 19.22311188 23.33901886 18.89533997 23.95436096 C17.85165186 25.90966247 16.8011102 27.86117966 15.75 29.8125 C15.01676986 31.18111172 14.28361636 32.54976449 13.55053711 33.91845703 C8.8267939 42.71566748 3.96700302 51.42673695 -0.99316406 60.09301758 C-5.66754846 68.30606821 -10.09164116 76.64243549 -14.5 85 C-19.923861 95.28204693 -25.45692683 105.47836368 -31.22924805 115.57055664 C-37.70747353 126.92614335 -43.84549363 138.46674196 -50 150 C-53.73537897 148.83005112 -57.11639699 147.54290605 -60.5234375 145.6171875 C-61.71259766 144.95009766 -61.71259766 144.95009766 -62.92578125 144.26953125 C-63.73402344 143.80933594 -64.54226563 143.34914063 -65.375 142.875 C-66.62216797 142.17310547 -66.62216797 142.17310547 -67.89453125 141.45703125 C-69.93234954 140.30929451 -71.96735569 139.15686718 -74 138 C-73.29060902 134.11447214 -71.48809796 130.8600418 -69.640625 127.41796875 C-69.30020676 126.77615158 -68.95978851 126.13433441 -68.60905457 125.47306824 C-67.49416979 123.37528161 -66.37241029 121.28126856 -65.25 119.1875 C-64.47009391 117.72544428 -63.69022771 116.26336727 -62.91040039 114.80126953 C-58.03305178 105.67946297 -53.02554967 96.64166761 -47.88574219 87.66479492 C-43.43446989 79.85715306 -39.20487834 71.94187049 -35 64 C-29.7523745 54.08991083 -24.38503906 44.26867122 -18.8215332 34.53100586 C-12.33149483 23.13864706 -6.17231665 11.56663366 0 0 Z " fill="#000000" transform="translate(614,434)"/>
<path d="M0 0 C5.60476823 1.57804154 10.35050626 4.26416385 15.375 7.125 C16.20644531 7.59292969 17.03789062 8.06085937 17.89453125 8.54296875 C19.93234954 9.69070549 21.96735569 10.84313282 24 12 C22.69456196 16.23373629 21.07755856 20.00269744 18.98046875 23.90234375 C18.37726807 25.02753418 17.77406738 26.15272461 17.15258789 27.31201172 C16.49780255 28.52064001 15.84276687 29.72913271 15.1875 30.9375 C14.50693826 32.20060719 13.8265203 33.46379186 13.14624023 34.72705078 C8.54627276 43.24721163 3.81371156 51.68652942 -0.9909668 60.09301758 C-6.42422768 69.64645266 -11.57152797 79.34921524 -16.70874023 89.06396484 C-17.03860428 89.68692444 -17.36846832 90.30988403 -17.70832825 90.95172119 C-18.60604423 92.64817294 -19.50158394 94.3457758 -20.39697266 96.04345703 C-21.86136365 98.74430609 -23.39625339 101.38004193 -25 104 C-28.71286417 103.42282622 -31.41741796 102.40601794 -34.64453125 100.49609375 C-35.48564453 100.00302734 -36.32675781 99.50996094 -37.19335938 99.00195312 C-38.05767578 98.48568359 -38.92199219 97.96941406 -39.8125 97.4375 C-40.69615234 96.91736328 -41.57980469 96.39722656 -42.49023438 95.86132812 C-44.66401428 94.5805605 -46.83367087 93.2933166 -49 92 C-47.69456196 87.76626371 -46.07755856 83.99730256 -43.98046875 80.09765625 C-43.07578857 78.4101123 -43.07578857 78.4101123 -42.15283203 76.68847656 C-41.49795873 75.47968908 -40.84284176 74.27103357 -40.1875 73.0625 C-39.50620245 71.79792978 -38.82505214 70.53328023 -38.14404297 69.26855469 C-33.57066488 60.79701629 -28.86206392 52.40846147 -24.08154297 44.05200195 C-18.35283361 33.97716326 -12.9579531 23.72577419 -7.55908203 13.47167969 C-7.20445389 12.79919189 -6.84982574 12.1267041 -6.48445129 11.43383789 C-5.81692703 10.16725389 -5.15089681 8.89988095 -4.48661804 7.6315918 C-3.09359691 4.98731457 -1.66052436 2.49078655 0 0 Z " fill="#000000" transform="translate(211,524)"/>
<path d="M0 0 C16.8929385 8.261959 16.8929385 8.261959 24 13 C15.05091504 31.38482711 5.17741261 49.27141422 -4.95898438 67.02416992 C-8.08088329 72.51910839 -11.11772629 78.05178471 -14.08203125 83.6328125 C-14.42472046 84.27738403 -14.76740967 84.92195557 -15.1204834 85.58605957 C-16.80655009 88.7614154 -18.48432129 91.94085083 -20.15185547 95.12597656 C-20.75529785 96.26776367 -21.35874023 97.40955078 -21.98046875 98.5859375 C-22.78327271 100.11806885 -22.78327271 100.11806885 -23.60229492 101.68115234 C-25 104 -25 104 -27 105 C-29.33837891 103.92016602 -29.33837891 103.92016602 -32.2265625 102.25390625 C-33.2578125 101.66416016 -34.2890625 101.07441406 -35.3515625 100.46679688 C-36.43179687 99.83837891 -37.51203125 99.20996094 -38.625 98.5625 C-39.71296875 97.93794922 -40.8009375 97.31339844 -41.921875 96.66992188 C-44.61878233 95.12038301 -47.31116406 93.5634896 -50 92 C-45.58646525 82.95102092 -40.98849651 74.04552075 -36.05834961 65.2668457 C-32.53316495 58.98477737 -29.10263592 52.6549681 -25.6875 46.3125 C-20.73021763 37.12031999 -15.65799139 27.99983283 -10.48901367 18.92504883 C-6.91950719 12.65556788 -3.43490297 6.34423451 0 0 Z " fill="#000000" transform="translate(447,92)"/>
<path d="M0 0 C5.91328254 0.94559694 10.59073067 3.68641228 15.8125 6.5 C16.77220703 6.99242187 17.73191406 7.48484375 18.72070312 7.9921875 C26.92985509 12.40775866 33.76026378 17.90990041 37.0625 26.875 C38.8895535 34.51540555 38.20261902 42.27869869 34.29296875 49.15234375 C29.77164227 55.61333295 24.73023245 59.74651165 16.875 61.46484375 C6.33856475 63.09286934 -1.82509755 58.91872519 -10.9375 54 C-11.97712891 53.4534375 -13.01675781 52.906875 -14.08789062 52.34375 C-21.69478155 48.30521845 -21.69478155 48.30521845 -24 46 C-23.6433552 41.98440062 -21.27066784 38.45543709 -19.39453125 34.9609375 C-19.03284348 34.28004059 -18.6711557 33.59914368 -18.29850769 32.89761353 C-17.53142238 31.45585363 -16.76218932 30.01523467 -15.9909668 28.57568359 C-14.82915729 26.40610604 -13.67477024 24.23271181 -12.52148438 22.05859375 C-8.54193082 14.58232497 -4.47590533 7.19501509 0 0 Z " fill="#000000" transform="translate(428,289)"/>
<path d="M0 0 C4.05737236 1.52734146 7.85965802 3.42188583 11.6796875 5.45703125 C12.32049759 5.79626114 12.96130768 6.13549103 13.62153625 6.48500061 C15.70768015 7.59108091 17.7914809 8.70148422 19.875 9.8125 C20.59007721 10.19271301 21.30515442 10.57292603 22.04190063 10.96466064 C32.08699559 16.30815134 42.04209267 21.78570313 51.91772461 27.4375 C61.47394786 32.88779767 71.21726725 37.97032128 81 43 C79.71663984 46.33209776 78.29046548 49.49104583 76.6171875 52.64453125 C76.17246094 53.48564453 75.72773437 54.32675781 75.26953125 55.19335938 C74.80933594 56.05767578 74.34914063 56.92199219 73.875 57.8125 C73.17310547 59.13797852 73.17310547 59.13797852 72.45703125 60.49023438 C71.30692397 62.66135525 70.15451854 64.8312226 69 67 C65.07151603 66.39916261 62.11645184 65.19147512 58.6328125 63.296875 C57.59447266 62.73548828 56.55613281 62.17410156 55.48632812 61.59570312 C54.37708984 60.98662109 53.26785156 60.37753906 52.125 59.75 C50.96677734 59.12029297 49.80855469 58.49058594 48.61523438 57.84179688 C40.26905251 53.2954121 31.98645008 48.63774539 23.73632812 43.91943359 C18.4742928 40.92131848 13.17531468 38.00827989 7.8203125 35.1796875 C7.21906555 34.86102722 6.6178186 34.54236694 5.99835205 34.21405029 C3.05901909 32.65705774 0.11529084 31.11080219 -2.83789062 29.58007812 C-3.88912109 29.02513672 -4.94035156 28.47019531 -6.0234375 27.8984375 C-6.96106934 27.41036621 -7.89870117 26.92229492 -8.86474609 26.41943359 C-11 25 -11 25 -12 22 C-11.01196289 19.63989258 -11.01196289 19.63989258 -9.47265625 16.89453125 C-8.92802734 15.91162109 -8.38339844 14.92871094 -7.82226562 13.91601562 C-7.24154297 12.89185547 -6.66082031 11.86769531 -6.0625 10.8125 C-5.48564453 9.77673828 -4.90878906 8.74097656 -4.31445312 7.67382812 C-2.8852447 5.11070228 -1.44682855 2.55320826 0 0 Z " fill="#000000" transform="translate(651,528)"/>
<path d="M0 0 C5.06281096 1.55778799 8.52093287 4.65177224 12.5 8 C13.93377836 9.18624778 15.36868835 10.37112904 16.8046875 11.5546875 C17.51463867 12.14088867 18.22458984 12.72708984 18.95605469 13.33105469 C21.80165804 15.65457888 24.70249995 17.89943522 27.625 20.125 C32.67341871 23.97823204 37.68775573 27.87010592 42.67114258 31.80712891 C45.75084726 34.23931479 48.84336683 36.65162484 51.9609375 39.03515625 C52.60554932 39.53152588 53.25016113 40.02789551 53.91430664 40.53930664 C55.15401575 41.49328473 56.39783927 42.44194634 57.64624023 43.38452148 C61.88757554 46.66272663 61.88757554 46.66272663 63 50 C62.05957031 51.74584961 62.05957031 51.74584961 60.578125 53.65234375 C60.04703125 54.34650391 59.5159375 55.04066406 58.96875 55.75585938 C58.11796875 56.83577148 58.11796875 56.83577148 57.25 57.9375 C56.69828125 58.65357422 56.1465625 59.36964844 55.578125 60.10742188 C54.54276509 61.45015426 53.50316607 62.78963616 52.45800781 64.12475586 C50.94854798 66.06617598 49.47037024 68.02886335 48 70 C44.38292594 68.38860208 41.4902873 66.18105107 38.375 63.75 C37.81868896 63.31743896 37.26237793 62.88487793 36.68920898 62.43920898 C35.4591583 61.4822426 34.2302942 60.52374964 33.00244141 59.56396484 C30.88392122 57.9093391 28.76078851 56.26077597 26.63671875 54.61328125 C19.0981082 48.76352053 11.56311256 42.90850007 4.07788086 36.99047852 C1.08196652 34.62320064 -1.93266984 32.28584561 -4.9765625 29.98046875 C-5.62850586 29.48184326 -6.28044922 28.98321777 -6.95214844 28.46948242 C-8.20741438 27.51018256 -9.46828034 26.55815408 -10.73535156 25.61450195 C-12.21292466 24.47907006 -13.61470277 23.24634644 -15 22 C-15 17.64876195 -12.38680391 15.35223328 -9.75 12.125 C-9.25886719 11.51269531 -8.76773438 10.90039062 -8.26171875 10.26953125 C-6.84722305 8.50801261 -5.42394404 6.7538823 -4 5 C-2.66558924 3.33419584 -1.33178597 1.66790338 0 0 Z " fill="#000000" transform="translate(628,575)"/>
<path d="M0 0 C6.36312771 1.30315711 12.36235413 3.01817357 18.4765625 5.1953125 C19.35727417 5.50413864 20.23798584 5.81296478 21.14538574 6.13114929 C23.97370063 7.12413159 26.79941446 8.12428053 29.625 9.125 C31.56479072 9.80861457 33.50473264 10.49180028 35.44482422 11.17456055 C38.3194312 12.18624175 41.19391039 13.19826556 44.06765747 14.21238708 C49.33760863 16.07072668 54.6145862 17.90363155 59.90625 19.69921875 C61.52732666 20.25101807 61.52732666 20.25101807 63.18115234 20.81396484 C65.09105442 21.46179197 67.00274925 22.1043666 68.91650391 22.74072266 C74.88903854 24.77807708 74.88903854 24.77807708 76 27 C75.05495624 30.93788931 73.63496891 34.73719566 72.3125 38.5625 C71.95994141 39.64208984 71.60738281 40.72167969 71.24414062 41.83398438 C70.89158203 42.85943359 70.53902344 43.88488281 70.17578125 44.94140625 C69.85520752 45.88701416 69.53463379 46.83262207 69.2043457 47.80688477 C68 50 68 50 66.25180054 50.73303223 C63.35090954 51.07695452 61.52197377 50.43111027 58.7668457 49.46459961 C57.19789299 48.92294411 57.19789299 48.92294411 55.59724426 48.37034607 C54.46816147 47.9684053 53.33907867 47.56646454 52.17578125 47.15234375 C51.00097702 46.74343399 49.82617279 46.33452423 48.61576843 45.91322327 C45.48118048 44.8199777 42.35011045 43.71761082 39.22033691 42.61071777 C36.09945723 41.509454 32.97431604 40.42042667 29.84960938 39.33007812 C22.89500969 36.9000659 15.94669259 34.4525093 9 32 C7.14634881 31.34643979 5.2926727 30.69295026 3.43896484 30.03955078 C-0.37466594 28.69484671 -4.1876244 27.34825834 -8 26 C-7.43473825 22.18145068 -6.66896086 18.6730904 -5.37109375 15.0390625 C-5.05849609 14.15605469 -4.74589844 13.27304687 -4.42382812 12.36328125 C-4.09833984 11.45964844 -3.77285156 10.55601562 -3.4375 9.625 C-3.10814453 8.69816406 -2.77878906 7.77132813 -2.43945312 6.81640625 C-1.6307425 4.54264015 -0.81662644 2.27093035 0 0 Z " fill="#000000" transform="translate(674,482)"/>
<path d="M0 0 C3.73537897 1.16994888 7.11639699 2.45709395 10.5234375 4.3828125 C11.31621094 4.82753906 12.10898437 5.27226562 12.92578125 5.73046875 C13.73402344 6.19066406 14.54226563 6.65085937 15.375 7.125 C16.20644531 7.59292969 17.03789063 8.06085938 17.89453125 8.54296875 C19.93234954 9.69070549 21.96735569 10.84313282 24 12 C22.7095516 16.17552509 21.13115898 19.90127443 19.05859375 23.74609375 C18.47867676 24.82455566 17.89875977 25.90301758 17.30126953 27.01416016 C16.68622559 28.1438623 16.07118164 29.27356445 15.4375 30.4375 C14.81214355 31.5929834 14.18678711 32.7484668 13.54248047 33.93896484 C8.91844739 42.43400477 4.11857109 50.79403682 -1 59 C-3.5221286 57.75256064 -6.04270078 56.50212931 -8.5625 55.25 C-9.26697266 54.90195312 -9.97144531 54.55390625 -10.69726562 54.1953125 C-15.22551026 51.94162392 -19.6309758 49.54907588 -24 47 C-23.38594555 42.5917083 -21.74772039 39.27610881 -19.6484375 35.37109375 C-19.31131744 34.74074722 -18.97419739 34.1104007 -18.62686157 33.46095276 C-17.91199585 32.12720122 -17.19402012 30.7951125 -16.47314453 29.46459961 C-15.39338953 27.47144581 -14.32277983 25.47361566 -13.25390625 23.47460938 C-9.00105211 15.54876864 -4.59395645 7.73427844 0 0 Z " fill="#000000" transform="translate(707,264)"/>
<path d="M0 0 C5.42610336 0.88689052 9.50171605 3.2144536 14.25 5.875 C15.07757813 6.32230469 15.90515625 6.76960937 16.7578125 7.23046875 C17.54414063 7.66746094 18.33046875 8.10445312 19.140625 8.5546875 C20.21618652 9.14999268 20.21618652 9.14999268 21.31347656 9.75732422 C23 11 23 11 24 14 C22.96490991 16.39232171 21.87490445 18.59404906 20.625 20.87109375 C20.262854 21.54866226 19.90070801 22.22623077 19.52758789 22.92433167 C18.36107919 25.10056747 17.18053655 27.26884809 16 29.4375 C15.23480177 30.86346293 14.47046935 32.28989082 13.70703125 33.71679688 C9.30558439 41.91282659 4.75574664 50.00334966 0 58 C-5.42610336 57.11310948 -9.50171605 54.7855464 -14.25 52.125 C-15.49136719 51.45404297 -15.49136719 51.45404297 -16.7578125 50.76953125 C-17.54414063 50.33253906 -18.33046875 49.89554688 -19.140625 49.4453125 C-19.85766602 49.04844238 -20.57470703 48.65157227 -21.31347656 48.24267578 C-23 47 -23 47 -24 44 C-22.77172852 41.12768555 -22.77172852 41.12768555 -20.87890625 37.63671875 C-20.54132797 37.00828568 -20.20374969 36.3798526 -19.85594177 35.7323761 C-18.76748893 33.71219353 -17.6650734 31.70000386 -16.5625 29.6875 C-15.85393179 28.37482678 -15.14624036 27.06167989 -14.43945312 25.74804688 C-9.76305092 17.0868316 -4.91944754 8.52510833 0 0 Z " fill="#000000" transform="translate(471,696)"/>
<path d="M0 0 C5.60476823 1.57804154 10.35050626 4.26416385 15.375 7.125 C16.20644531 7.59292969 17.03789062 8.06085938 17.89453125 8.54296875 C19.93234954 9.69070549 21.96735569 10.84313282 24 12 C23.42282622 15.71286417 22.40601794 18.41741796 20.49609375 21.64453125 C20.00302734 22.48564453 19.50996094 23.32675781 19.00195312 24.19335938 C18.48568359 25.05767578 17.96941406 25.92199219 17.4375 26.8125 C16.91736328 27.69615234 16.39722656 28.57980469 15.86132812 29.49023438 C14.5805605 31.66401428 13.2933166 33.83367087 12 36 C8.28713583 35.42282622 5.58258204 34.40601794 2.35546875 32.49609375 C1.51435547 32.00302734 0.67324219 31.50996094 -0.19335938 31.00195312 C-1.48983398 30.22754883 -1.48983398 30.22754883 -2.8125 29.4375 C-3.69615234 28.91736328 -4.57980469 28.39722656 -5.49023438 27.86132812 C-7.66401428 26.5805605 -9.83367087 25.2933166 -12 24 C-10.42195846 18.39523177 -7.73583615 13.64949374 -4.875 8.625 C-4.17310547 7.37783203 -4.17310547 7.37783203 -3.45703125 6.10546875 C-2.30929451 4.06765046 -1.15686718 2.03264431 0 0 Z " fill="#000000" transform="translate(302,249)"/>
</svg>
