<svg version="1.1" xmlns="http://www.w3.org/2000/svg" viewBox="0 0 1203 797" width="48" height="48">
                      <path d="M0 0 C3.08462978 2.62871733 4.66168116 4.94059064 6.04296875 8.7265625 C6.56298462 10.12974731 6.56298462 10.12974731 7.09350586 11.5612793 C7.63503296 13.07782104 7.63503296 13.07782104 8.1875 14.625 C8.57623291 15.68823486 8.96496582 16.75146973 9.36547852 17.84692383 C13.3128449 28.70834046 17.08540265 39.631764 20.82516479 50.56607056 C22.88694268 56.5924475 24.96067777 62.61470396 27.03515625 68.63671875 C27.45442886 69.85405197 27.87370148 71.07138519 28.30567932 72.3256073 C32.28001323 83.84615461 36.34868854 95.33218887 40.4375 106.8125 C47.17608484 125.74062684 53.7505171 144.72233447 60.27947998 163.72369385 C66.29209482 181.21653105 72.39596412 198.67350096 78.59912109 216.09960938 C84.73918058 233.35534363 90.73763252 250.6577027 96.69619751 267.97686768 C100.99269444 280.462025 105.31238134 292.937558 109.734375 305.37890625 C110.11722656 306.45623016 110.50007813 307.53355408 110.89453125 308.64352417 C112.69217589 313.69695101 114.49551694 318.74826401 116.30664062 323.796875 C118.23584388 329.18718056 120.12859679 334.58937754 122 340 C122.33443115 340.95912292 122.6688623 341.91824585 123.01342773 342.90643311 C124.02303776 345.82600714 125.00702305 348.75308206 125.984375 351.68359375 C126.28845276 352.55621353 126.59253052 353.42883331 126.90582275 354.32789612 C128.93280283 360.53127413 129.77942953 366.47496194 129 373 C123.59801479 381.68176195 109.04161478 385.29341227 99.7890625 388.4609375 C98.09491714 389.05233017 98.09491714 389.05233017 96.36654663 389.65567017 C92.78861656 390.90303692 89.20702598 392.13945077 85.625 393.375 C83.26405273 394.19453454 80.90337358 395.01484192 78.54296875 395.8359375 C77.38335632 396.23927307 76.2237439 396.64260864 75.0289917 397.0581665 C70.44774557 398.65345834 65.86786735 400.25264396 61.28869629 401.85388184 C59.12506127 402.60791358 56.95997214 403.35778795 54.79333496 404.10314941 C51.80332658 405.13263523 48.81923335 406.17781118 45.8359375 407.2265625 C44.96852936 407.52074066 44.10112122 407.81491882 43.20742798 408.11801147 C36.28493141 410.57958708 29.36785524 413.7711065 24.9375 419.8125 C22.80834591 427.05162391 23.9135526 433.23575735 26.9375 440 C27.25323975 440.7314624 27.56897949 441.4629248 27.89428711 442.21655273 C34.23418023 456.60886542 42.29870154 470.08392925 50.2578125 483.62109375 C54.04248833 490.05940426 57.77504316 496.52700532 61.5 503 C66.30813784 511.34820218 71.13905832 519.68243439 76 528 C84.02281678 541.73046817 91.95858328 555.51078086 99.89550781 569.29101562 C107.13606904 581.86024157 114.39954136 594.41513546 121.7175293 606.93945312 C127.3952428 616.66304896 133.02973396 626.41124136 138.63671875 636.17578125 C140.58713133 639.56825132 142.55530233 642.94556025 144.58203125 646.29296875 C149.85994166 655.06337326 155.47962364 665.43125972 154 676 C152.09624384 682.98043926 147.8158954 686.87603777 142 691 C131.27595432 696.41662592 119.64962465 700.04718864 108.3125 703.9375 C104.50730073 705.24851819 100.70285503 706.56171532 96.8984375 707.875 C95.44125557 708.37706215 95.44125557 708.37706215 93.95463562 708.88926697 C86.94255506 711.31095467 79.95639485 713.79958902 72.9765625 716.3125 C70.06851152 717.35242311 67.15991931 718.39081484 64.25106812 719.42849731 C62.391217 720.09547771 60.53327712 720.76781434 58.67739868 721.44577026 C56.0802306 722.39366398 53.47670618 723.32171164 50.87109375 724.24609375 C50.11861359 724.52658569 49.36613342 724.80707764 48.59085083 725.09606934 C43.09312568 727.01592688 37.81463927 727.70786246 32 727 C26.19105379 723.93112276 24.21397745 719.23312527 21.91796875 713.20703125 C20.25021657 707.38054385 19.60806501 701.78386998 22.375 696.25 C24.82729074 694.14803651 27.30763051 692.46255776 30 690.6875 C34.71437564 687.45637696 37.68761398 684.67322777 39 679 C40.46665932 663.72007653 27.97867699 647.56998519 20.72021484 634.99804688 C19.08035116 632.14003864 17.46628125 629.2694408 15.86328125 626.390625 C4.08110167 605.25059026 -8.57249827 584.6350592 -21.58056641 564.22998047 C-24.06487411 560.32704505 -26.53136612 556.41286052 -29 552.5 C-32.02945563 547.69948562 -35.0616671 542.9008094 -38.10546875 538.109375 C-42.80479925 530.70672594 -47.49042131 523.29460254 -52.0625 515.8125 C-52.42045654 515.23725586 -52.77841309 514.66201172 -53.1472168 514.06933594 C-58.8657946 504.61417957 -59.98937111 495.68831788 -60.28979492 484.8293457 C-60.70729259 470.35330182 -61.65383816 456.42308883 -70 444 C-75.23133776 439.34902637 -79.37612686 437.74049501 -86.375 438.0625 C-91.57796386 438.58020785 -96.20103749 439.91056759 -101.125 441.5625 C-113.21021183 445.56759087 -113.21021183 445.56759087 -119 444 C-121.53087566 441.86281611 -122.47427586 440.77899753 -124 438 C-124.4640625 437.15695312 -124.928125 436.31390625 -125.40625 435.4453125 C-129 428.55729167 -129 428.55729167 -129 426 C-130.175625 426.20625 -131.35125 426.4125 -132.5625 426.625 C-136.83991272 427.13889411 -139.96702557 426.67406486 -144 425 C-167.37836427 406.07465749 -172.34338352 359.86466499 -175.421875 332.3828125 C-176.7296734 318.90660812 -177.18597401 305.40154505 -177.1484375 291.8671875 C-177.14761547 291.10816006 -177.14679344 290.34913261 -177.1459465 289.56710434 C-177.10861722 267.19712929 -176.45217025 244.83480166 -175.828125 222.47509766 C-175.65641998 216.31647435 -175.49564102 210.15761877 -175.33771706 203.99862862 C-175.21217175 199.15943799 -175.08012684 194.32044007 -174.94630051 189.48147202 C-174.88440048 187.21184832 -174.82456033 184.94216725 -174.76704788 182.67242813 C-174.47503684 171.26578459 -174.02244541 159.90270056 -173.06005859 148.53076172 C-172.98324671 147.6095862 -172.90643482 146.68841068 -172.8272953 145.73932076 C-172.02606344 136.96051139 -170.33112548 128.49370678 -168 120 C-167.65195312 118.73027344 -167.30390625 117.46054688 -166.9453125 116.15234375 C-161.16733837 97.20457341 -150.51326901 81.33079774 -137 67 C-136.39929688 66.33484375 -135.79859375 65.6696875 -135.1796875 64.984375 C-112.01341857 40.3138029 -76.02731923 28.29670532 -45.6875 15.0625 C-44.87882477 14.70968964 -44.07014954 14.35687927 -43.23696899 13.99337769 C-34.71359701 10.28096554 -26.16893638 6.62182163 -17.58203125 3.05859375 C-16.87672775 2.76412857 -16.17142426 2.46966339 -15.44474792 2.16627502 C-9.7662932 -0.17315038 -6.05903603 -1.64098892 0 0 Z M0 262 C-6.73654373 271.47628639 -9.26529446 280.37260989 -8 292 C-5.55437743 301.29336576 -0.65307798 309.11052982 7.31640625 314.59375 C15.80322896 319.27989287 25.22742733 321.15868858 34.6953125 318.75390625 C45.67536699 315.16212571 52.56960436 308.7637322 57.87109375 298.55078125 C61.15026712 291.14143796 61.19987302 282.42194581 59.09375 274.66015625 C55.39844087 265.26791222 50.25873973 258.34301709 41 254 C26.96634427 248.96486992 10.53346093 250.27084891 0 262 Z M-42 299 C-44.39989427 302.5998414 -44.64136132 303.75098128 -44 308 C-41.36738651 312.64889607 -38.10404916 317.03690417 -33 319 C-27.67375052 318.76587914 -23.8626988 315.42618118 -19.6875 312.4375 C-18.94693359 311.91736328 -18.20636719 311.39722656 -17.44335938 310.86132812 C-15.62351816 309.58156882 -13.80945816 308.29437782 -12 307 C-15.14678023 303.81423311 -18.34196004 300.72633775 -21.6875 297.75 C-22.45449219 297.06421875 -23.22148438 296.3784375 -24.01171875 295.671875 C-26.34700213 293.70821825 -27.60726893 293.06545518 -30.625 292.5625 C-35.46037441 293.18930779 -38.47344498 295.7355538 -42 299 Z " fill="#A9A9A9" transform="translate(1049,70)" />
                      <path d="M0 0 C2.56158465 -0.003228 5.12316912 -0.00659311 7.68475342 -0.01008606 C13.05725609 -0.01605216 18.42974078 -0.01797282 23.80224609 -0.01733398 C29.1925815 -0.01680843 34.58282574 -0.02403043 39.97314453 -0.0378418 C68.02915277 -0.10853927 96.05419751 0.01326541 124.09375 1.0546875 C125.72744411 1.1131079 125.72744411 1.1131079 127.39414215 1.17270851 C158.43568881 2.31491829 189.35384182 4.95525966 213.09375 27.3046875 C236.24648461 52.40964974 236.05745826 86.95718264 236.03595757 118.98247409 C236.03487511 122.18274107 236.03980315 125.38298876 236.044563 128.58325154 C236.05559171 136.14446479 236.05613283 143.70562833 236.05004883 151.2668457 C236.04400997 159.01437294 236.05633318 166.76171853 236.0776189 174.50921482 C236.09534362 181.21213051 236.10121941 187.91498893 236.09798115 194.61792713 C236.09618592 198.59888073 236.09862557 202.57970461 236.11269569 206.56063652 C236.2129407 237.62094696 234.2884081 266.37109604 211.9375 290.0859375 C194.34847898 306.70818609 173.92210971 311.94100412 150.29296875 312.66796875 C149.05639526 312.70830231 147.81982178 312.74863586 146.54577637 312.79019165 C142.4212953 312.92181252 138.29665069 313.04603665 134.171875 313.16796875 C133.45361164 313.18947746 132.73534828 313.21098618 131.99531937 313.23314667 C78.83888572 314.82306697 25.66850955 315.25126975 -27.50956345 315.29045868 C-30.41931129 315.29293992 -33.32905422 315.29689441 -36.23880005 315.30108643 C-40.83866332 315.30701714 -45.43849227 315.30696801 -50.03835678 315.30241394 C-51.71650036 315.30135309 -53.39464586 315.30182598 -55.07278824 315.30409241 C-64.08293169 315.3142249 -73.06671104 315.15333283 -82.06762695 314.72607422 C-82.90090358 314.6878763 -83.7341802 314.64967838 -84.59270763 314.61032295 C-92.78031159 314.18300951 -99.37743521 313.5928047 -105.265625 307.41796875 C-112.99320331 297.45918825 -111.40705075 283.38950414 -111.36328125 271.4140625 C-111.36141275 269.90234932 -111.35999089 268.39063552 -111.35899353 266.87892151 C-111.35520232 262.92852056 -111.34540161 258.97815723 -111.33428955 255.027771 C-111.32400185 250.98531605 -111.31948024 246.94285493 -111.31445312 242.90039062 C-111.3037758 234.9895662 -111.28674091 227.07877217 -111.265625 219.16796875 C-110.34566526 219.16967749 -110.34566526 219.16967749 -109.40712047 219.17142075 C-73.03182238 219.23860156 -36.65653349 219.29005195 -0.28118603 219.32116474 C4.08956098 219.32491671 8.46030786 219.3287997 12.83105469 219.33276367 C13.70116648 219.3335506 14.57127826 219.33433753 15.46775708 219.33514831 C29.54376449 219.34819087 43.61973502 219.37183836 57.69572058 219.39942714 C72.14637481 219.42751337 86.59700976 219.44415181 101.04769015 219.45023423 C109.95958759 219.45434401 118.87138079 219.46730944 127.78324613 219.49171815 C133.90015476 219.50761508 140.01700974 219.51236017 146.13393751 219.50847288 C149.65945946 219.50655747 153.18479964 219.50942729 156.710289 219.52558517 C160.54221591 219.54301818 164.37390949 219.53689957 168.20587158 219.5287323 C169.30707439 219.53747082 170.40827719 219.54620935 171.54284978 219.55521268 C183.07409342 219.48905045 193.70454917 217.4771974 202.44921875 209.62890625 C215.27548734 195.39143451 212.43088075 162.0191918 211.59204102 144.13305664 C211.40098831 140.95400846 211.16821111 137.78068297 210.921875 134.60546875 C210.85162109 133.54650391 210.78136719 132.48753906 210.70898438 131.39648438 C209.97951444 121.92504668 208.35160902 113.91587774 202.734375 106.16796875 C202.734375 105.50796875 202.734375 104.84796875 202.734375 104.16796875 C199.73587613 102.6093085 196.70631141 101.3045045 193.546875 100.10546875 C192.22623047 99.59306641 192.22623047 99.59306641 190.87890625 99.0703125 C183.46813066 96.94374211 175.85229621 97.04321957 168.2000885 97.16160583 C167.17508206 97.17300207 166.15007563 97.1843983 165.09400839 97.19613987 C161.67725168 97.23545594 158.2606506 97.28265328 154.84399414 97.32983398 C152.38555472 97.35972426 149.92710924 97.38912023 147.46865845 97.4180603 C142.17807998 97.48140506 136.88756017 97.54810691 131.59706306 97.61782646 C123.9110147 97.71907008 116.22489565 97.81371342 108.53874391 97.90673626 C96.01755641 98.0584143 83.49643146 98.21472934 70.9753418 98.37426758 C58.90114131 98.52809609 46.82692849 98.68083651 34.75268555 98.83129883 C34.01258989 98.84052254 33.27249424 98.84974625 32.50997145 98.85924947 C24.3862886 98.96044048 16.26259891 99.06106518 8.1388998 99.16094303 C7.41921639 99.16979189 6.69953297 99.17864075 5.95804096 99.18775775 C3.07580222 99.22318629 0.19356336 99.25860482 -2.68867642 99.29394854 C-11.04308463 99.39640337 -19.39746638 99.50061193 -27.75181401 99.60789565 C-55.25711714 99.96089868 -82.75766309 100.30589705 -110.265625 100.16796875 C-110.30548516 91.68100161 -110.34391862 83.19407465 -110.36328125 74.70703125 C-110.3751981 69.50842157 -110.38923683 64.30988291 -110.41650391 59.11132812 C-110.43836798 54.9162201 -110.450222 50.72118832 -110.45537949 46.52602768 C-110.45905104 44.93219682 -110.46622011 43.33836974 -110.47708511 41.74457169 C-110.61596599 20.51141157 -110.61596599 20.51141157 -106.6015625 14.80078125 C-93.64845177 4.84081962 -80.35225383 4.0075333 -64.48608398 2.7902832 C-62.09899227 2.60707034 -59.71257736 2.41653427 -57.32617188 2.22460938 C-55.75003414 2.09982842 -54.17386316 1.97546655 -52.59765625 1.8515625 C-51.91371292 1.79737656 -51.22976959 1.74319061 -50.52510071 1.68736267 C-48.10601046 1.50256514 -45.6859948 1.33520472 -43.265625 1.16796875 C-42.12896393 1.0824324 -40.99230286 0.99689606 -39.82119751 0.9087677 C-26.55538942 -0.02820785 -13.29307916 0.00400357 0 0 Z " fill="#A9A9A9" transform="translate(627.265625,158.83203125)" />
                      <path d="M0 0 C4.29468524 2.29259248 7.4720971 5.27160402 10.8125 8.75 C14.76304471 12.78751588 18.76965625 16.63008017 23.07421875 20.29296875 C26.10975273 22.98369563 28.91033743 25.90217601 31.7578125 28.7890625 C34.49252841 31.4856639 37.35073927 34.0024816 40.2734375 36.4921875 C41.92296942 37.93272895 43.47079574 39.43326925 45 41 C43.3493403 45.09205459 40.42787496 47.97823532 37.4375 51.125 C36.34340406 52.29524959 35.24965675 53.46582521 34.15625 54.63671875 C33.61742187 55.21083496 33.07859375 55.78495117 32.5234375 56.37646484 C-18.41502519 110.66184576 -50.73372024 181.15339647 -62.25 254.375 C-62.40114258 255.33470703 -62.55228516 256.29441406 -62.70800781 257.28320312 C-65.37255043 275.31548025 -66.37893159 293.22305096 -66.3125 311.4375 C-66.30976578 313.00547836 -66.30976578 313.00547836 -66.30697632 314.60513306 C-66.25640827 331.91274903 -65.50839147 348.85239117 -63 366 C-62.82839355 367.18964355 -62.65678711 368.37928711 -62.47998047 369.60498047 C-56.06824793 412.69938659 -43.1349847 454.41435502 -22.99755859 493.07861328 C-21.96058625 495.0759144 -20.94298687 497.08241284 -19.92578125 499.08984375 C-8.31100092 521.77862995 6.17499347 542.86833935 23 562 C23.63421875 562.73347656 24.2684375 563.46695313 24.921875 564.22265625 C29.5387168 569.54896686 34.27417338 574.77051386 39 580 C37.62275724 583.09765895 36.04594127 585.19503963 33.6394043 587.57177734 C32.9549675 588.25283539 32.2705307 588.93389343 31.56535339 589.6355896 C30.82577896 590.36170441 30.08620453 591.08781921 29.32421875 591.8359375 C28.18095879 592.97139511 28.18095879 592.97139511 27.01460266 594.12979126 C24.57693233 596.54965541 22.13269804 598.96274445 19.6875 601.375 C17.25385887 603.78093959 14.82171686 606.18834596 12.39253235 608.5987854 C10.88164102 610.09751466 9.36808434 611.59356318 7.85148621 613.08651733 C3.99963242 616.90211752 0.38804373 620.76587805 -3 625 C-6.23048748 623.5800745 -8.38242488 621.86380613 -10.86328125 619.3671875 C-11.58580078 618.64273438 -12.30832031 617.91828125 -13.05273438 617.171875 C-13.79845703 616.41390625 -14.54417969 615.6559375 -15.3125 614.875 C-16.41368164 613.77285156 -16.41368164 613.77285156 -17.53710938 612.6484375 C-22.2227946 607.92533331 -26.68978947 603.06704227 -31 598 C-31.54342041 597.36336426 -32.08684082 596.72672852 -32.64672852 596.07080078 C-49.98046325 575.61663305 -65.07323901 553.70382681 -77.84619141 530.12255859 C-78.63808232 528.66578762 -79.43765893 527.2131762 -80.24365234 525.76416016 C-115.56738639 462.19205855 -131.55239476 387.83147795 -131.3125 315.5 C-131.31034485 314.32101135 -131.3081897 313.14202271 -131.30596924 311.92730713 C-131.25097838 293.10422195 -130.64379657 274.65622485 -128 256 C-127.90289734 255.30507446 -127.80579468 254.61014893 -127.70574951 253.89416504 C-121.61078937 210.52724855 -110.07987411 168.94172855 -92 129 C-91.58927246 128.0836377 -91.17854492 127.16727539 -90.75537109 126.22314453 C-74.40756994 89.97882502 -52.17887918 55.94471267 -25.3359375 26.58203125 C-23.44219578 24.48878162 -21.59544439 22.36908 -19.75390625 20.23046875 C-15.87937107 15.7915041 -11.75211839 11.63978761 -7.5625 7.5 C-6.83095703 6.77296875 -6.09941406 6.0459375 -5.34570312 5.296875 C-3.56610176 3.52890501 -1.78419082 1.76333622 0 0 Z " fill="#A9A9A9" transform="translate(131,0)" />
                      <path d="M0 0 C4.18167326 1.63256246 6.94467643 4.7086575 10.015625 7.85546875 C10.59028503 8.43533035 11.16494507 9.01519196 11.75701904 9.61262512 C13.59284019 11.4662186 15.42185415 13.3263386 17.25 15.1875 C27.80019261 25.93819048 27.80019261 25.93819048 39 36 C41.21531233 37.92152539 43.06629467 39.76880154 45 42 C44.82804777 45.94671307 42.39685804 47.96806682 39.75 50.6875 C30.20350183 60.90512932 21.70070858 72.33513355 14 84 C13.12214844 85.32837891 13.12214844 85.32837891 12.2265625 86.68359375 C-24.55273057 144.40456593 -36.49563586 214.18399826 -22 281 C-11.31079556 327.17418423 11.99164345 365.05653411 42 401 C40.5158627 404.48654476 38.53785948 406.64191072 35.8125 409.25 C33.0509385 411.90032522 30.45786633 414.60580466 27.9765625 417.515625 C22.81410423 423.47418611 17.15561406 428.95060148 11.5625 434.5 C10.4379167 435.61955632 9.31356595 436.73934629 8.18945312 437.859375 C5.46230656 440.57561534 2.73204093 443.28868292 0 446 C-9.21630687 439.26245479 -16.64326641 431.7105457 -23.76953125 422.78125 C-25.17531257 421.02833178 -26.6071276 419.29568625 -28.07421875 417.59375 C-40.36660133 403.23370232 -50.36122068 386.76983115 -59 370 C-59.37431152 369.27731934 -59.74862305 368.55463867 -60.13427734 367.81005859 C-78.29286116 332.30291008 -88.62320481 292.65771099 -92 253 C-92.11085938 251.86304688 -92.22171875 250.72609375 -92.3359375 249.5546875 C-97.21976262 191.60876244 -85.60681841 133.03290259 -60 81 C-59.608125 80.20239258 -59.21625 79.40478516 -58.8125 78.58300781 C-53.32423447 67.5445432 -46.92638084 57.18936529 -40 47 C-39.5757373 46.37464355 -39.15147461 45.74928711 -38.71435547 45.10498047 C-32.66882625 36.26230134 -26.03356891 28.07112955 -19 20 C-18.39671875 19.28457031 -17.7934375 18.56914063 -17.171875 17.83203125 C-11.82059852 11.53259171 -5.8832725 5.79632759 0 0 Z " fill="#A9A9A9" transform="translate(220,91)" />
                      <path d="M0 0 C62.37 0 124.74 0 189 0 C189 34.65 189 69.3 189 105 C126.63 105 64.26 105 0 105 C0 70.35 0 35.7 0 0 Z " fill="#A9A9A9" transform="translate(616,266)" />
                      <path d="M0 0 C3.35999018 1.45868754 5.55203106 3.30868948 8.12597656 5.89892578 C8.92650452 6.6996048 9.72703247 7.50028381 10.55181885 8.32522583 C11.40612488 9.18985443 12.26043091 10.05448303 13.140625 10.9453125 C14.02280701 11.8303244 14.90498901 12.7153363 15.81390381 13.62716675 C18.15194543 15.97450131 20.48555874 18.32606785 22.81713867 20.67980957 C25.19996526 23.08313927 27.58850348 25.48077767 29.9765625 27.87890625 C34.65631862 32.58071467 39.33031867 37.28818664 44 42 C42.57210435 45.76088852 41.08050576 48.33153882 38.4375 51.375 C16.4214811 78.2878911 5.66430385 112.48237719 8 147 C10.57948743 171.39335283 21.19625956 194.13982209 35.45800781 213.82495117 C39.80325247 219.86271092 39.80325247 219.86271092 40 223 C38.52577209 225.07550049 38.52577209 225.07550049 36.25805664 227.30957031 C35.41710953 228.15013977 34.57616241 228.99070923 33.70973206 229.85675049 C32.78587204 230.75480408 31.86201202 231.65285767 30.91015625 232.578125 C29.97650742 233.5046991 29.04285858 234.43127319 28.08091736 235.38592529 C25.59783278 237.84991333 23.10010129 240.29852117 20.59906006 242.7442627 C18.04989177 245.24229573 15.51480857 247.75453228 12.97851562 250.265625 C7.99939939 255.191107 3.00467129 260.1004899 -2 265 C-23.81925501 254.55126204 -38.05345707 225.35193398 -45.85498047 203.61816406 C-63.06881251 153.28520319 -59.69973284 94.85861633 -36.6171875 46.9609375 C-27.63532062 28.98832488 -15.82830909 12.59070041 0 0 Z " fill="#A9A9A9" transform="translate(311,181)" />
                      <path d="M0 0 C18.81 0 37.62 0 57 0 C57 34.98 57 69.96 57 106 C38.52 106 20.04 106 1 106 C0.3546507 98.90115773 -0.14352027 92.11170259 -0.11352539 85.03051758 C-0.11367142 84.10232208 -0.11381744 83.17412659 -0.1139679 82.21780396 C-0.11327917 79.19335474 -0.10553625 76.16896951 -0.09765625 73.14453125 C-0.09578836 71.03032973 -0.09436621 68.91612777 -0.09336853 66.80192566 C-0.08957253 61.27003763 -0.07976752 55.73817637 -0.06866455 50.20629883 C-0.05657657 43.55144555 -0.05203429 36.89658325 -0.04621124 30.24172211 C-0.03655391 20.16112953 -0.01737701 10.08059553 0 0 Z " fill="#A9A9A9" transform="translate(527,264)" />
                      <path d="M0 0 C7.2766225 6.01112293 14.039721 12.53168897 20.19140625 19.6953125 C24.53689961 24.7004633 29.22946251 29.33850585 33.9375 34 C34.81212891 34.87011719 35.68675781 35.74023438 36.58789062 36.63671875 C38.72297449 38.76013549 40.86037205 40.88116378 43 43 C36.23352491 51.08406592 28.80930692 58.48682064 21.38623047 65.96386719 C19.70313467 67.66365322 18.02544064 69.36880398 16.35302734 71.07910156 C13.93215125 73.55440596 11.49554151 76.01316297 9.0546875 78.46875 C7.93270462 79.62473694 7.93270462 79.62473694 6.78805542 80.80407715 C6.08697662 81.50230591 5.38589783 82.20053467 4.66357422 82.91992188 C4.05101776 83.54056519 3.4384613 84.1612085 2.80734253 84.80065918 C1 86 1 86 -1.10617065 85.81115723 C-8.08162114 82.82346085 -12.29359663 73.11742019 -15.0390625 66.51171875 C-20.91399147 51.15570521 -19.72124157 35.18615218 -13.48828125 20.109375 C-9.95631657 12.7302572 -5.43769141 6.09680552 0 0 Z " fill="#A9A9A9" transform="translate(400,271)" />
                    </svg>