<svg width="48" height="48" viewBox="0 0 61 61" fill="none" xmlns="http://www.w3.org/2000/svg">
                    <path d="M0 60.5263H60.5263L49.3365 42.4048H44.4121L45.7299 41.0276L45.9149 40.7859C49.2242 37.5604 51.5278 33.3685 52.5263 28.7559C53.5247 24.1432 53.1717 19.3232 51.5131 14.9231C49.8545 10.523 46.9671 6.74649 43.2266 4.08493C39.4861 1.42337 35.0657 0 30.5405 0C26.0154 0 21.595 1.42337 17.8545 4.08493C14.114 6.74649 11.2267 10.523 9.56804 14.9231C7.90941 19.3232 7.55629 24.1432 8.55473 28.7559C9.55318 33.3685 11.857 37.5604 15.1663 40.7859L15.3513 41.0276L16.6689 42.3806H11.6289L0.0692845 60.5021L0 60.5263ZM10.658 23.5826C10.665 20.1256 11.4983 16.7252 13.0819 13.6902C14.6656 10.6551 16.9496 8.08154 19.7265 6.20312C22.5034 4.3247 25.6852 3.20094 28.9831 2.93387C32.281 2.66679 35.5906 3.26487 38.6112 4.67379C41.6319 6.08271 44.268 8.25785 46.2801 11.0017C48.2922 13.7456 49.6167 16.9712 50.1332 20.3858C50.6498 23.8004 50.3421 27.2958 49.238 30.5545C48.1339 33.8133 46.2685 36.7322 43.8111 39.0463L43.5567 39.3845L30.5637 52.8186L17.5938 39.3121L17.3395 38.9979C15.2544 37.0612 13.5822 34.6881 12.4311 32.0324C11.2801 29.3768 10.6759 26.498 10.658 23.5826ZM19.374 45.3284L29.5464 55.8389C29.7978 56.1017 30.1388 56.2494 30.4944 56.2496C30.6712 56.2552 30.8471 56.2215 31.0105 56.1507C31.174 56.0799 31.3211 55.9736 31.4422 55.8389L41.6147 45.3284H47.8338L55.5325 57.796H5.08627L13.0855 45.3284H19.374Z" fill="#A9A9A9" />
                    <path d="M24.8299 15.4157H28.0435V19.0642H29.1532C28.529 17.687 30.656 17.3004 30.0086 15.4157C31.0721 15.5366 32.4593 15.005 33.2222 15.8748V23.1234H30.078C30.078 23.7758 30.078 24.4765 30.078 25.1047C30.5867 28.0524 34.5401 35.2769 35.8579 38.6113C35.9735 38.9012 36.4127 39.4811 35.8579 39.6019C35.303 39.7227 35.0948 39.1186 34.9099 38.7804C33.3378 36.0259 32.0431 31.8459 30.7022 28.8256C30.4749 28.0689 30.0877 27.3753 29.5693 26.796V39.0462L28.6908 39.5052V26.6994C28.2515 26.6994 28.1359 27.2551 27.9741 27.6175C26.3326 30.9761 25.1073 35.4702 23.3502 38.6113C23.1653 38.9495 23.0034 39.6019 22.4717 39.5052C21.94 39.4086 22.6335 37.7414 22.7723 37.379C23.9513 34.3587 27.7892 27.3517 28.136 24.6939C28.1706 24.1388 28.1706 23.5819 28.136 23.0268H24.9223L24.8299 15.4157Z" fill="#A9A9A9" />
                    <path d="M43.5102 24.5491C41.3833 24.09 43.071 22.5437 43.5102 21.2389C44.0157 19.4083 43.962 17.4585 43.357 15.6611C42.752 13.8638 41.6256 12.3084 40.1348 11.2117L40.5278 10.1969C45.5215 12.7822 46.2614 19.8617 43.5795 24.5491" fill="#A9A9A9" />
                    <path d="M39.2798 12.0574C40.1742 12.6109 40.9457 13.357 41.5431 14.2461C42.1405 15.1351 42.5501 16.1468 42.7447 17.214C42.9393 18.2812 42.9145 19.3794 42.6719 20.4358C42.4292 21.4921 41.9743 22.4825 41.3374 23.341C39.8578 22.3262 41.3374 21.2147 41.453 19.8133C41.6143 18.8842 41.5799 17.9296 41.3524 17.0157C41.1248 16.1019 40.7094 15.2509 40.1352 14.5219C39.2335 13.3863 37.8232 13.4346 39.2798 12.1057" fill="#A9A9A9" />
                    <path d="M40.0191 21.8186L38.6318 21.0695C39.0734 20.4094 39.3255 19.6312 39.3583 18.8265C39.391 18.0218 39.2032 17.224 38.8168 16.5271C38.1695 15.319 36.9211 15.5364 37.9846 13.8934C39.2247 14.6961 40.1254 15.9626 40.5034 17.435C40.8813 18.9073 40.7082 20.4749 40.0191 21.8186Z" fill="#A9A9A9" />
                    <path d="M36.9908 16.0438C37.3621 16.2557 37.6838 16.5509 37.933 16.9081C38.1822 17.2652 38.3528 17.6757 38.4324 18.1098C38.5119 18.544 38.4985 18.9913 38.3932 19.4194C38.2878 19.8476 38.0932 20.246 37.8231 20.5863C36.066 20.1272 37.9618 18.1701 36.251 17.0586L36.9908 16.0438Z" fill="#A9A9A9" />
                    <path d="M36.2277 19.3783H35.7885L35.0718 18.6051L35.7885 17.8561C36.3433 18.2427 36.2509 18.7259 36.2277 19.3783Z" fill="#A9A9A9" />
                  </svg>