<svg width="48" height="48" viewBox="0 0 48 48" fill="none" xmlns="http://www.w3.org/2000/svg">
                    <path d="M47.4008 40.2948H8.16467V21.7985H47.4008V40.2948ZM13.0631 37.4524C16.665 37.5778 22.2598 37.8077 21.8276 33.4187C21.7075 32.3111 20.8431 31.5378 20.7951 30.9735C20.747 30.4092 22.6921 28.988 21.4915 26.5427C20.2909 24.0974 15.7525 24.7453 13.0631 24.6408V37.4524ZM27.2304 24.6408H23.9647V36.7418C24.7091 37.7032 26.0537 37.4733 27.2304 37.4524V24.6408ZM43.0305 24.6408C39.3807 23.9929 38.7804 25.9993 36.7633 27.9639C34.5542 26.1665 34.3621 23.9302 30.4961 24.6408V36.7418C30.4961 37.3479 32.8974 37.9331 33.5217 36.9926L33.7858 30.7227L36.7633 33.5651L39.7649 30.7227C40.1971 32.5828 38.4442 37.6823 41.6858 37.3897C42.1421 37.3897 43.0305 36.9508 43.0305 36.6582V24.6408Z" fill="#A9A9A9" />
                    <path d="M43.3189 0L44.1354 3.30217H41.398V18.2455L40.5816 18.9561H18.8984L18.058 18.2455V3.30217H14.7922L15.6087 0H43.3189ZM24.5174 6.62523H21.7799V9.0078H24.5174V6.62523ZM31.0487 6.62523H28.3352V9.0078H31.0487V6.62523ZM37.0517 6.62523H34.3143V9.0078H37.0517V6.62523ZM24.5174 12.31H21.7799V14.6926H24.5174V12.31ZM31.0487 12.31H28.3352V14.6926H31.0487V12.31ZM37.0517 12.31H34.3143V14.6926H37.0517V12.31Z" fill="#A9A9A9" />
                    <path d="M15.2479 15.6329V18.956H4.34635V42.4265L5.16284 43.1371H42.502V47.4006H0.00012207V15.6329H15.2479Z" fill="#A9A9A9" />
                    <path d="M15.2485 8.02539V12.7697H1.08118C2.7407 10.949 4.69865 9.35051 6.8922 8.02539H15.2485Z" fill="#A9A9A9" />
                    <path d="M15.2483 34.6099V32.2273C16.713 32.2273 18.562 31.7675 19.5945 32.9588C19.2103 34.8397 16.9772 34.6935 15.2483 34.6099Z" fill="#A9A9A9" />
                    <path d="M19.0663 27.4833H15.2483V29.3852H19.0663V27.4833Z" fill="#A9A9A9" />
                  </svg>