<?xml version="1.0" encoding="UTF-8"?>
<svg version="1.1" xmlns="http://www.w3.org/2000/svg" width="1412" height="1600">
<path d="M0 0 C387.09 0 774.18 0 1173 0 C1173 211.86 1173 423.72 1173 642 C878.41487772 642.04040148 878.41487772 642.04040148 765.99937022 642.04816496 C764.4212667 642.04827434 762.84316318 642.04838376 761.26505966 642.04849322 C760.07814516 642.04857554 760.07814516 642.04857554 758.86725258 642.04865951 C730.91063792 642.05060112 702.95402326 642.05260802 674.99740861 642.05472926 C672.32900612 642.05493115 669.66060362 642.05513133 666.99220113 642.05533109 C626.11591462 642.05839755 585.23962842 642.06230133 544.36334229 642.06866455 C543.48382284 642.06880145 542.6043034 642.06893835 541.69813185 642.0690794 C527.51701682 642.07129186 513.33590181 642.07357543 499.1547868 642.07586844 C458.32561833 642.0824692 417.4964501 642.0885471 376.66728115 642.09113979 C375.40875009 642.0912201 375.40875009 642.0912201 374.12479417 642.09130202 C355.70947864 642.09246759 337.2941631 642.09336253 318.87884754 642.09400098 C311.46996145 642.09426262 304.06107535 642.09456324 296.65218925 642.09487724 C295.43585823 642.09492738 295.43585823 642.09492738 294.19495486 642.09497854 C268.03660391 642.09607628 241.87825465 642.10035173 215.71990439 642.10628221 C189.38527514 642.11223818 163.05064753 642.11510167 136.71601759 642.11362399 C133.08254488 642.11342089 129.44907216 642.11325351 125.81559944 642.11310768 C124.74713851 642.11306286 124.74713851 642.11306286 123.65709251 642.11301713 C112.34673674 642.11263546 101.03638444 642.11562988 89.72602962 642.12000986 C78.62312477 642.12424089 67.5202244 642.1248666 56.41731873 642.12183181 C50.47018752 642.12031133 44.52306799 642.12043019 38.57593799 642.12488318 C33.178457 642.12889424 27.78099692 642.12840484 22.38351629 642.12413998 C20.43076819 642.12341872 18.47801861 642.1244169 16.52527241 642.12723524 C13.89652088 642.13079223 11.26784575 642.12832017 8.6390968 642.1241985 C7.86896083 642.12670737 7.09882486 642.12921625 6.30535144 642.13180115 C1.11415501 642.11415501 1.11415501 642.11415501 0 641 C-0.09698038 639.59129084 -0.12447391 638.17773416 -0.1241985 636.76569074 C-0.1264458 635.84466714 -0.12869311 634.92364354 -0.13100851 633.97471013 C-0.12838148 632.9489076 -0.12575446 631.92310507 -0.12304783 630.86621761 C-0.12420157 629.78241918 -0.12535532 628.69862075 -0.12654402 627.58197993 C-0.12921805 623.90294057 -0.12468309 620.22394381 -0.12025452 616.54490662 C-0.12069145 613.90646247 -0.12152514 611.2680212 -0.12284851 608.62957764 C-0.12493343 602.86026727 -0.12326706 597.09096719 -0.11921513 591.32165802 C-0.11313164 582.63133871 -0.11284368 573.94102568 -0.11368043 565.25070464 C-0.11492471 550.68968188 -0.11162001 536.12866363 -0.10557556 521.56764221 C-0.09741701 501.87911823 -0.09547353 482.19060195 -0.09460449 462.5020752 C-0.08934731 415.14721588 -0.0753863 367.79235785 -0.0625 320.4375 C-0.041875 214.693125 -0.02125 108.94875 0 0 Z M491 104 C490.85056947 159.14460799 490.70470001 214.28922005 490.5667524 269.43385771 C490.55048043 275.93678088 490.53416483 282.43970395 490.51782227 288.94262695 C490.51456934 290.23730084 490.51131642 291.53197472 490.50796492 292.86588115 C490.45511513 313.85879163 490.39872661 334.85169119 490.3410418 355.84458887 C490.28197775 377.36793117 490.2266899 398.89128076 490.17494446 420.41464192 C490.14286689 433.70724194 490.10780573 446.99982735 490.06898809 460.29240943 C490.0426899 469.39427202 490.02004298 478.49613901 490.00032883 487.59801822 C489.98882676 492.8577704 489.97565607 498.11750516 489.95816994 503.37724113 C489.94222483 508.1840727 489.93082163 512.99089196 489.92316891 517.79774369 C489.91956111 519.54472618 489.91422671 521.29170606 489.90707164 523.03867763 C489.89765329 525.39734671 489.89429141 527.75594538 489.89256954 530.1146307 C489.88915206 531.4296022 489.88573458 532.74457371 489.88221353 534.09939283 C489.66744184 536.89338661 489.66744184 536.89338661 491 538 C520.7 538 550.4 538 581 538 C581 394.78 581 251.56 581 104 C551.3 104 521.6 104 491 104 Z M138 105 C138 246.9 138 388.8 138 535 C140.9594703 536.47973515 143.59138913 536.11033388 146.89523315 536.0957489 C147.61282496 536.09393091 148.33041676 536.09211291 149.06975377 536.09023982 C151.48648816 536.0828295 153.90312376 536.06813667 156.31982422 536.0534668 C158.04759568 536.04660005 159.77536884 536.04015036 161.50314331 536.03408813 C166.20565483 536.01613066 170.9081101 535.99157512 175.61058187 535.96532798 C179.53214485 535.94387041 183.45371929 535.92519486 187.37529576 535.90639621 C196.62571559 535.86184414 205.87609275 535.81154374 215.12646484 535.75805664 C224.67737624 535.70296251 234.22829491 535.65896782 243.77928531 535.62020558 C251.97129524 535.58648521 260.16324375 535.54516235 268.35518658 535.49788028 C273.25136054 535.46974356 278.14750322 535.44468787 283.04372787 535.4272213 C287.6484 535.41052244 292.25292213 535.38437664 296.85750198 535.35091019 C298.54899037 535.34022682 300.24050399 535.33293145 301.93202209 535.32924461 C304.23844721 535.32369149 306.54446884 535.305996 308.85079956 535.28520203 C310.14239927 535.27837245 311.43399899 535.27154287 312.76473808 535.26450634 C315.82801446 535.01406108 317.41456341 534.54884275 320 533 C321.55182033 532.63817661 323.11635666 532.32815225 324.6875 532.0625 C332.74662311 530.53588197 339.7657772 527.81074691 347 524 C347.94875 523.54625 348.8975 523.0925 349.875 522.625 C354.37295258 520.28606466 358.67065678 517.63465578 363 515 C363.92683594 514.484375 364.85367188 513.96875 365.80859375 513.4375 C366.53175781 512.963125 367.25492188 512.48875 368 512 C368 511.34 368 510.68 368 510 C369.32 509.67 370.64 509.34 372 509 C372 508.34 372 507.68 372 507 C372.99 507 373.98 507 375 507 C377.22931824 505.18739868 377.22931824 505.18739868 379 503 C379 502.34 379 501.68 379 501 C379.99 500.67 380.98 500.34 382 500 C382 499.34 382 498.68 382 498 C382.99 497.67 383.98 497.34 385 497 C386.65899675 495.44152856 386.65899675 495.44152856 388.1875 493.5625 C388.71730469 492.94503906 389.24710938 492.32757812 389.79296875 491.69140625 C391.1936275 490.07499198 391.1936275 490.07499198 391 488 C391.99 487.67 392.98 487.34 394 487 C395.1539808 485.40075493 395.1539808 485.40075493 396.0625 483.5 C397.79642366 480.10178817 397.79642366 480.10178817 400 479 C401.61833937 476.60485773 402.85887467 474.56450133 403.5625 471.75 C403.706875 471.1725 403.85125 470.595 404 470 C404.66 469.67 405.32 469.34 406 469 C406.165 468.175 406.33 467.35 406.5 466.5 C406.665 465.675 406.83 464.85 407 464 C407.66 463.67 408.32 463.34 409 463 C409.165 462.175 409.33 461.35 409.5 460.5 C409.665 459.675 409.83 458.85 410 458 C410.66 457.67 411.32 457.34 412 457 C412.46651207 454.87423218 412.46651207 454.87423218 412.625 452.4375 C412.69976563 451.61121094 412.77453125 450.78492188 412.8515625 449.93359375 C412.90054687 449.29550781 412.94953125 448.65742187 413 448 C413.66 448 414.32 448 415 448 C415.33 444.7 415.66 441.4 416 438 C416.66 438 417.32 438 418 438 C418.04898437 437.19175781 418.09796875 436.38351562 418.1484375 435.55078125 C418.22320313 434.48214844 418.29796875 433.41351562 418.375 432.3125 C418.44460938 431.25675781 418.51421875 430.20101563 418.5859375 429.11328125 C419 426 419 426 420.00927734 423.71923828 C421.19511898 420.46445657 421.25883931 417.83984907 421.265625 414.37890625 C421.26949219 412.48108398 421.26949219 412.48108398 421.2734375 410.54492188 C421.26570313 409.23072266 421.25796875 407.91652344 421.25 406.5625 C421.25773437 405.25216797 421.26546875 403.94183594 421.2734375 402.59179688 C421.26957031 400.69204102 421.26957031 400.69204102 421.265625 398.75390625 C421.26224121 397.02636108 421.26224121 397.02636108 421.25878906 395.26391602 C420.99014135 391.8756601 420.16484105 389.17897461 419 386 C418.66728433 383.45170047 418.50349968 380.93116989 418.34375 378.3671875 C417.97756809 375.84552569 417.1703224 374.24385122 416 372 C415.57848115 370.42841122 415.2031166 368.84370918 414.875 367.25 C414.70742188 366.45078125 414.53984375 365.6515625 414.3671875 364.828125 C414.24601562 364.22484375 414.12484375 363.6215625 414 363 C413.34 363 412.68 363 412 363 C412 361.02 412 359.04 412 357 C411.34 357 410.68 357 410 357 C409.938125 356.01 409.87625 355.02 409.8125 354 C409.25737721 349.97535979 407.51681078 347.21120624 405.25390625 343.89453125 C403.99402466 341.99097184 402.98140289 340.05866375 402 338 C401.34 338 400.68 338 400 338 C399.896875 337.2575 399.79375 336.515 399.6875 335.75 C398.95066203 332.8026481 398.05200858 331.21616926 396 329 C395.34 329 394.68 329 394 329 C393.67 328.01 393.34 327.02 393 326 C392.34 325.67 391.68 325.34 391 325 C390.5859375 322.93359375 390.5859375 322.93359375 390.375 320.4375 C390.26285156 319.19806641 390.26285156 319.19806641 390.1484375 317.93359375 C390.09945312 317.29550781 390.05046875 316.65742187 390 316 C391.32 315.67 392.64 315.34 394 315 C394 314.34 394 313.68 394 313 C394.99 312.67 395.98 312.34 397 312 C399.07530387 309.07920195 400 307.62453269 400 304 C400.99 303.67 401.98 303.34 403 303 C403.3721042 301.67696283 403.70630173 300.34262065 404 299 C404.66 298.67 405.32 298.34 406 298 C406.73519522 296.02416285 407.39072482 294.01822402 408 292 C408.60927518 289.98177598 409.26480478 287.97583715 410 286 C410.66 285.67 411.32 285.34 412 285 C412.50955757 283.40338627 413.00581822 281.80115571 413.4296875 280.1796875 C414.0876229 277.66511249 414.81894103 275.17806161 415.5625 272.6875 C415.81128906 271.84574219 416.06007813 271.00398437 416.31640625 270.13671875 C417 268 417 268 418 266 C418.46814296 262.77785977 418.86788612 259.55530726 419.25 256.32226562 C419.89811739 251.10188261 419.89811739 251.10188261 421 250 C421.2189531 245.7975724 421.18578949 241.58939221 421.18530273 237.38183594 C421.18747673 235.27257742 421.20559231 233.1638525 421.22460938 231.0546875 C421.22754581 229.70833512 421.22952893 228.36198026 421.23046875 227.015625 C421.23457764 225.79133789 421.23868652 224.56705078 421.24291992 223.30566406 C421.00523454 220.07123188 420.31883245 217.92796791 419 215 C418.65137072 212.17134879 418.49964103 209.36844887 418.34375 206.5234375 C418.15433582 203.7577437 418.15433582 203.7577437 416 201 C415.66666667 198.66666667 415.33333333 196.33333333 415 194 C414.34 193.01 413.68 192.02 413 191 C412.835 189.96875 412.67 188.9375 412.5 187.875 C412.335 186.92625 412.17 185.9775 412 185 C411.34 184.67 410.68 184.34 410 184 C409.66666667 182.33333333 409.33333333 180.66666667 409 179 C408.34 178.67 407.68 178.34 407 178 C406.375 175.4375 406.375 175.4375 406 173 C405.34 173 404.68 173 404 173 C403.79375 172.21625 403.5875 171.4325 403.375 170.625 C401.5268661 165.75264698 399.0696244 161.22073355 396 157 C395.34 157 394.68 157 394 157 C393.68675781 156.21496094 393.68675781 156.21496094 393.3671875 155.4140625 C391.41439957 151.96599696 388.81547489 149.26548622 386.125 146.375 C385.59519531 145.78976562 385.06539062 145.20453125 384.51953125 144.6015625 C381.81439268 141.67491134 379.63543404 139.70780855 376 138 C375.67 137.01 375.34 136.02 375 135 C368.60550703 129.456722 361.55057525 124.80548993 354 121 C352.96875 120.46375 351.9375 119.9275 350.875 119.375 C348.24579783 118.11755548 345.59640162 116.94120901 342.90625 115.8203125 C341.55965388 115.24083466 340.2271774 114.62800703 338.90625 113.9921875 C334.0627211 111.6898058 329.5634761 110.32885774 324.26171875 109.4921875 C322 109 322 109 320.23828125 107.98046875 C316.78831959 106.469229 313.21122547 106.56666829 309.5 106.4375 C305.19550426 106.26575866 301.20765169 106.05191292 297 105 C244.53 105 192.06 105 138 105 Z M678 105 C678 247.89 678 390.78 678 538 C707.7 538 737.4 538 768 538 C769.14961379 535.70077242 769.12433248 534.42163134 769.12304783 531.86517906 C769.12503888 530.99383147 769.12702993 530.12248387 769.12908131 529.2247318 C769.12616847 528.26171136 769.12325563 527.29869092 769.12025452 526.30648804 C769.12110894 525.28797465 769.12196337 524.26946126 769.12284368 523.22008383 C769.12449925 519.78521414 769.11897583 516.35039259 769.11352539 512.91552734 C769.11324351 510.46206158 769.11340127 508.00859572 769.1139679 505.55513 C769.11419609 500.26166533 769.11134786 494.96821582 769.10573006 489.6747551 C769.09761286 482.02124301 769.09499961 474.36773688 769.09374207 466.71422096 C769.09155189 454.29775851 769.08489274 441.88130263 769.07543945 429.46484375 C769.06626444 417.40136752 769.05918404 405.33789307 769.05493164 393.27441406 C769.05453756 392.15955938 769.05453756 392.15955938 769.05413551 391.02218239 C769.0528305 387.29368993 769.05156678 383.56519745 769.05032361 379.83670497 C769.03995207 348.89113188 769.0222605 317.94556693 769 287 C770.65 287 772.3 287 774 287 C774.268125 287.70125 774.53625 288.4025 774.8125 289.125 C776.0681449 292.1649824 777.50235123 295.0727774 779 298 C779.66 298 780.32 298 781 298 C781.12375 298.7425 781.2475 299.485 781.375 300.25 C781.96120466 302.82930049 782.63284555 304.7482162 784 307 C784.66 307.33 785.32 307.66 786 308 C786.72159424 309.64363134 787.39351421 311.31050386 788 313 C788.66 313 789.32 313 790 313 C790.33 314.98 790.66 316.96 791 319 C791.66 319 792.32 319 793 319 C794.02996297 321.57490742 795.0521419 324.14339022 796 326.75 C796.78431361 329.15703483 796.78431361 329.15703483 799 330 C799.28875 330.7425 799.5775 331.485 799.875 332.25 C800.89268543 335.10717769 800.89268543 335.10717769 803 337.5 C804.96345363 339.95431703 805.98761612 342.04721367 807 345 C807.66 345 808.32 345 809 345 C809.33 346.98 809.66 348.96 810 351 C810.66 351 811.32 351 812 351 C812.268125 351.721875 812.53625 352.44375 812.8125 353.1875 C813.92722082 356.01133746 813.92722082 356.01133746 815.5 358.5 C816.96457772 360.94096287 818.01068333 363.33645513 819 366 C819.66 366 820.32 366 821 366 C821.28875 366.9075 821.5775 367.815 821.875 368.75 C823.34486237 373.7602051 823.34486237 373.7602051 827 377 C827.69466615 378.65519218 828.35689465 380.32410092 829 382 C829.90323616 383.62370606 830.84228707 385.22790421 831.8125 386.8125 C832.34230469 387.68132812 832.87210938 388.55015625 833.41796875 389.4453125 C834.81273208 391.69759698 836.2154557 393.94444808 837.625 396.1875 C840.52369254 400.80496856 843.25729555 405.45745998 845.625 410.375 C846.73117992 413.10925728 846.73117992 413.10925728 849 414 C849.66666667 415.66666667 850.33333333 417.33333333 851 419 C851.680625 420.010625 852.36125 421.02125 853.0625 422.0625 C854.70988017 424.5601409 855.55455115 426.10458245 856 429 C856.99 429 857.98 429 859 429 C860.82424941 427.02981064 861.90194519 425.25214093 862.875 422.75 C864.21445955 419.47576554 866.02925743 416.71300105 867.9765625 413.76953125 C869.16688653 412.05214831 869.16688653 412.05214831 869 410 C869.66 410 870.32 410 871 410 C871.33 408.02 871.66 406.04 872 404 C872.99 403.67 873.98 403.34 875 403 C875.3721042 401.67696283 875.70630173 400.34262065 876 399 C876.66 398.67 877.32 398.34 878 398 C879.05441056 395.92020794 879.05441056 395.92020794 880 393.5 C881.77777778 389.11111111 881.77777778 389.11111111 884 388 C884.28875 387.278125 884.5775 386.55625 884.875 385.8125 C886.18905508 382.52736231 887.99808944 379.91186991 890 377 C891.63028885 374.42915989 892.96450145 372.09187861 894.0625 369.25 C895 367 895 367 897 366 C899.40984262 361.75588089 899.40984262 361.75588089 900 357 C900.99 356.67 901.98 356.34 903 356 C903.3721042 354.67696283 903.70630173 353.34262065 904 352 C904.66 351.67 905.32 351.34 906 351 C907.05441056 348.92020794 907.05441056 348.92020794 908 346.5 C909.77777778 342.11111111 909.77777778 342.11111111 912 341 C912.65772428 337.97065509 912.65772428 337.97065509 913 335 C913.66 335 914.32 335 915 335 C916.79337643 332.39611366 916.79337643 332.39611366 918.5625 329.1875 C919.18253906 328.10855469 919.80257812 327.02960938 920.44140625 325.91796875 C922.07395842 323.05817635 922.07395842 323.05817635 923 320 C923.66 319.67 924.32 319.34 925 319 C926.34839851 316.0652503 927.3001048 313.14952839 928 310 C928.66 310 929.32 310 930 310 C930.28875 309.195625 930.5775 308.39125 930.875 307.5625 C932 305 932 305 934 304 C934.65772428 300.97065509 934.65772428 300.97065509 935 298 C935.66 298 936.32 298 937 298 C939.3208055 294.7508723 940.43697042 291.94120709 941 288 C943.97 287.01 946.94 286.02 950 285 C949.51244075 287.15239102 949.51244075 287.15239102 949.01503181 289.34826469 C947.93813728 294.76203428 947.72448976 299.92212255 947.75949097 305.42776489 C947.75692769 306.9290361 947.75692769 306.9290361 947.75431263 308.46063602 C947.75103915 311.78779688 947.76198602 315.1147525 947.77294922 318.44189453 C947.7735138 320.83742773 947.77319587 323.23296127 947.77206421 325.62849426 C947.77155087 331.44115195 947.78019402 337.25374327 947.79293953 343.06638582 C947.80728116 349.83448806 947.81023373 356.6025811 947.81251587 363.37069641 C947.81688482 375.43887667 947.83017216 387.50702978 947.84912109 399.57519531 C947.86750064 411.29296738 947.88164697 423.01073204 947.89013672 434.72851562 C947.89066217 435.45172832 947.89118761 436.17494101 947.89172898 436.92006923 C947.8943392 440.54849216 947.89686658 444.17691513 947.89935279 447.80533814 C947.92006038 477.87024918 947.95691665 507.93511032 948 538 C977.37 538 1006.74 538 1037 538 C1037 395.11 1037 252.22 1037 105 C1033.78957694 103.39478847 1030.30855849 103.92172465 1026.78662109 103.97827148 C1025.9377684 103.98787903 1025.08891571 103.99748657 1024.21434021 104.00738525 C1021.40062333 104.04044113 1018.58705854 104.08074832 1015.7734375 104.12109375 C1013.82573996 104.14538843 1011.87803675 104.16923231 1009.93032837 104.19264221 C1004.79774528 104.25554803 999.66526229 104.32459625 994.53277588 104.39489746 C989.29793872 104.46552228 984.06303045 104.53037424 978.828125 104.59570312 C968.55200519 104.7247992 958.27598184 104.86038042 948 105 C947.16151196 106.45537568 946.32936066 107.91440373 945.5 109.375 C944.80390625 110.59316406 944.80390625 110.59316406 944.09375 111.8359375 C942.84964141 113.89336874 942.84964141 113.89336874 943 116 C942.34 116 941.68 116 941 116 C940.34 117.093125 939.68 118.18625 939 119.3125 C938.62875 119.92738281 938.2575 120.54226563 937.875 121.17578125 C936.78376001 123.11361926 936.78376001 123.11361926 937 126 C936.01 126.33 935.02 126.66 934 127 C933.6278958 128.32303717 933.29369827 129.65737935 933 131 C932.34 131.33 931.68 131.66 931 132 C930.32438252 133.6630584 929.66066719 135.33094605 929 137 C927.7088073 139.35836143 926.37500988 141.68748301 925.0234375 144.01171875 C923.84744542 145.92367153 923.84744542 145.92367153 924 148 C923.34 148 922.68 148 922 148 C920.43317912 150.07306946 920.43317912 150.07306946 918.9375 152.6875 C918.14666016 153.99267578 918.14666016 153.99267578 917.33984375 155.32421875 C916.03288263 157.9343306 915.41943514 160.12609257 915 163 C914.34 163 913.68 163 913 163 C911.27735506 166.29549466 909.70554068 169.33118845 909 173 C908.34 173 907.68 173 907 173 C904.94356259 176.92592596 903.31061591 180.76570244 902 185 C901.34 185 900.68 185 900 185 C899.32845067 186.28913487 898.66291141 187.58140204 898 188.875 C897.443125 189.95394531 897.443125 189.95394531 896.875 191.0546875 C895.86326254 192.94848977 895.86326254 192.94848977 896 195 C895.34 195 894.68 195 894 195 C893.6596875 195.99 893.6596875 195.99 893.3125 197 C891.85529507 200.33075412 890.02504625 203.20491564 888.0234375 206.23046875 C886.83311347 207.94785169 886.83311347 207.94785169 887 210 C886.34 210 885.68 210 885 210 C884.67 211.98 884.34 213.96 884 216 C883.01 216.33 882.02 216.66 881 217 C879.60880046 218.91605743 879.60880046 218.91605743 878.4375 221.25 C878.00566406 222.06210937 877.57382813 222.87421875 877.12890625 223.7109375 C875.92742119 226.06534129 875.92742119 226.06534129 874.875 228.875 C873.90816197 231.22303521 872.77775524 232.22224476 871 234 C868.75407959 237.78745238 868.75407959 237.78745238 868 242 C867.34 242 866.68 242 866 242 C862.96197139 247.71487519 862.96197139 247.71487519 862 254 C859.03 253.34 856.06 252.68 853 252 C852.87625 251.0925 852.7525 250.185 852.625 249.25 C852.07500738 246.39003836 851.53636103 244.44010282 850 242 C849.34 241.67 848.68 241.34 848 241 C847.27306096 239.02111039 846.60183749 237.02045442 846 235 C845.34 235 844.68 235 844 235 C843.566875 233.88625 843.566875 233.88625 843.125 232.75 C842.17697356 230.43260203 841.15154089 228.22082885 840 226 C839.34 226 838.68 226 838 226 C837.87625 225.030625 837.7525 224.06125 837.625 223.0625 C837.41875 222.051875 837.2125 221.04125 837 220 C836.34 219.67 835.68 219.34 835 219 C833.87746038 216.71984139 832.95397806 214.38638333 832 212.03125 C831.17290051 209.83439745 831.17290051 209.83439745 829 209 C828.27840576 207.35636866 827.60648579 205.68949614 827 204 C826.34 204 825.68 204 825 204 C824.89558594 203.28199219 824.79117188 202.56398438 824.68359375 201.82421875 C823.92824737 198.70355913 822.74801466 196.53652247 821.0625 193.8125 C820.53785156 192.95269531 820.01320313 192.09289062 819.47265625 191.20703125 C818.05103948 188.92056233 818.05103948 188.92056233 816 187 C815.566875 185.8553125 815.566875 185.8553125 815.125 184.6875 C814.09276637 181.87255397 814.09276637 181.87255397 811.9375 179.4375 C810.06683223 177.08407926 809.60856586 175.83997403 809 173 C808.34 172.67 807.68 172.34 807 172 C806.304453 170.34517777 805.64296133 168.67595434 805 167 C804.03754912 165.20848137 803.03677447 163.43705691 802 161.6875 C801.484375 160.80449219 800.96875 159.92148437 800.4375 159.01171875 C799.963125 158.34785156 799.48875 157.68398438 799 157 C798.34 157 797.68 157 797 157 C796.505 154.03 796.505 154.03 796 151 C795.34 151 794.68 151 794 151 C793.5978125 149.9171875 793.5978125 149.9171875 793.1875 148.8125 C792.00524866 146.01243104 790.58049288 143.59200833 789 141 C788 139 787 137 786 135 C785.15631229 133.39029741 784.30154679 131.78636664 783.4375 130.1875 C783.02371094 129.41792969 782.60992188 128.64835937 782.18359375 127.85546875 C781.12765659 125.84984429 781.12765659 125.84984429 779 125 C778.30959426 123.34302621 777.6469365 121.6744239 777 120 C776.03114628 118.31503702 775.03013277 116.64821244 774 115 C772.38724539 112.41959263 771.04165785 110.1145591 770 107.25 C769.505 106.13625 769.505 106.13625 769 105 C740.22327329 95.40775776 708.33137502 104.65532528 678 105 Z " fill="#000000" transform="translate(239,719)"/>
<path d="M0 0 C285.78 0 571.56 0 866 0 C866 31.35 866 62.7 866 95 C834.65 95 803.3 95 771 95 C771.33 95.99 771.66 96.98 772 98 C772.0951999 100.89541754 772.13205989 103.76650493 772.12304783 106.66196728 C772.12420167 107.56195524 772.12535552 108.4619432 772.12654433 109.38920352 C772.12921054 112.43267955 772.12468876 115.47610364 772.12025452 118.51957703 C772.12069022 120.71243531 772.1215651 122.90529355 772.12284368 125.0981515 C772.12508887 131.14561575 772.12106702 137.19306241 772.11606562 143.24052441 C772.11176165 149.75382496 772.11320751 156.26712446 772.1139679 162.78042603 C772.11466624 174.07236139 772.11138083 185.36429135 772.10573006 196.6562252 C772.09981734 208.50190953 772.09596498 220.34759157 772.09487724 232.19327736 C772.0948085 232.92922128 772.09473976 233.6651652 772.09466894 234.42341045 C772.09433062 238.16074742 772.09402923 241.8980844 772.09374207 245.63542137 C772.09164047 272.12161386 772.0848998 298.60780335 772.07543945 325.09399414 C772.06625824 350.82836898 772.05917305 376.56274299 772.05493164 402.29711914 C772.05473435 403.48654281 772.05473435 403.48654281 772.05453308 404.69999523 C772.05321458 412.66296173 772.05193876 420.62592823 772.05069422 428.58889473 C772.04815786 444.81103831 772.04533661 461.03318182 772.04234314 477.25532532 C772.04220585 478.00122807 772.04206856 478.74713081 772.04192711 479.51563668 C772.03272314 529.34375906 772.01685679 579.17187968 772 629 C769.59873673 630.20063164 768.1193352 630.12513264 765.43745798 630.12534916 C763.98406577 630.12910444 763.98406577 630.12910444 762.50131211 630.13293558 C761.4271275 630.13059442 760.35294289 630.12825325 759.24620724 630.12584114 C758.10792366 630.12729458 756.96964007 630.12874802 755.79686305 630.13024551 C752.61375649 630.13328359 749.43068771 630.13179637 746.24758257 630.12846755 C742.79356165 630.125944 739.33954554 630.12918552 735.88552529 630.13171089 C729.82414571 630.13533353 723.76277503 630.13520631 717.70139503 630.13266373 C708.68820866 630.12889315 699.67502983 630.13080876 690.66184351 630.13387203 C674.56790767 630.13914787 658.4739758 630.13867739 642.38003959 630.13579312 C628.29692378 630.13328149 614.21380942 630.13261903 600.13069344 630.13381577 C599.19796466 630.13389215 598.26523588 630.13396854 597.30424259 630.13404724 C593.51838092 630.13435855 589.73251926 630.13467695 585.94665759 630.135007 C550.40476049 630.13806864 514.86286592 630.13528831 479.32096921 630.1299101 C447.71471054 630.12516382 416.1084559 630.12558915 384.50219727 630.13037109 C349.02543977 630.13572064 313.5486845 630.13785193 278.07192665 630.13475883 C274.2931147 630.13443809 270.51430275 630.13412525 266.7354908 630.13381577 C265.80499095 630.13373669 264.8744911 630.13365761 263.91579428 630.13357614 C249.83768078 630.1324366 235.75956889 630.13377277 221.68145561 630.13629532 C205.68170385 630.13914783 189.68195668 630.13845419 173.68220549 630.13301457 C164.71749978 630.13006765 155.752804 630.12990188 146.78809853 630.13366075 C140.8112713 630.13589136 134.83445209 630.13452906 128.85762605 630.13015598 C125.44478483 630.12776123 122.03196345 630.12699663 118.6191228 630.13056196 C114.95537946 630.13356233 111.29169194 630.13052524 107.62795162 630.12584114 C106.55142585 630.12818231 105.47490008 630.13052347 104.36575231 630.13293558 C102.91611538 630.12918031 102.91611538 630.12918031 101.43719286 630.12534916 C100.59799664 630.1252814 99.75880042 630.12521365 98.89417401 630.12514383 C97 630 97 630 96 629 C95.90098346 626.17631226 95.86824928 623.37706004 95.87695217 620.55289364 C95.87579833 619.65183662 95.87464448 618.7507796 95.87345567 617.82241783 C95.87078109 614.76326202 95.87531804 611.70415748 95.87974548 608.64500427 C95.87930995 606.4456225 95.87843538 604.24624077 95.87715632 602.04685932 C95.87490778 595.97207328 95.87893751 589.89730467 95.88393438 583.82252085 C95.88779271 577.95386395 95.8869752 572.08520903 95.88625254 566.21655118 C95.88493651 554.20597945 95.88828809 542.1954132 95.89426994 530.18484306 C95.90018037 518.28726614 95.90403455 506.3896915 95.90512276 494.49211311 C95.9051915 493.75325902 95.90526024 493.01440493 95.90533106 492.25316131 C95.90566938 488.50112634 95.90597077 484.74909135 95.90625793 480.99705637 C95.90836017 454.39883355 95.91510261 427.80061372 95.92456055 401.20239258 C95.93374009 375.35734066 95.94082609 349.51228955 95.94506836 323.66723633 C95.94519989 322.87103605 95.94533141 322.07483578 95.94546692 321.25450822 C95.94678541 313.25897569 95.94806123 305.26344315 95.94930578 297.2679106 C95.95184222 280.97906784 95.95466347 264.69022513 95.95765686 248.40138245 C95.9578628 247.27789999 95.9578628 247.27789999 95.95807289 246.13172091 C95.96727862 196.08781261 95.98335221 146.04390631 96 96 C64.32 95.67 32.64 95.34 0 95 C0 63.65 0 32.3 0 0 Z M391 214 C390.90485278 216.70841794 390.87446375 219.39115046 390.88647461 222.09985352 C390.88635407 222.9623342 390.88623354 223.82481489 390.88610935 224.71343136 C390.88685861 227.51861546 390.8944874 230.32373396 390.90234375 233.12890625 C390.90381313 234.85542773 390.90483386 236.58194966 390.90539551 238.30847168 C390.91064884 244.72648789 390.92460992 251.14449458 390.9375 257.5625 C390.958125 271.896875 390.97875 286.23125 391 301 C420.04 301 449.08 301 479 301 C479 272.29 479 243.58 479 214 C464.665625 213.814375 450.33125 213.62875 435.5625 213.4375 C431.02959229 213.37618896 426.49668457 213.31487793 421.82641602 213.25170898 C417.77752735 213.20178801 417.77752735 213.20178801 413.72862244 213.1532135 C411.9194758 213.13086132 410.11035332 213.10650083 408.30125427 213.08058167 C405.56748913 213.04179914 402.83371604 213.00930873 400.09985352 212.97827148 C399.28840409 212.96530501 398.47695467 212.95233854 397.64091587 212.93897915 C394.02452822 212.55691846 394.02452822 212.55691846 391 214 Z M579 213 C578.814375 227.334375 578.62875 241.66875 578.4375 256.4375 C578.37618896 260.97040771 578.31487793 265.50331543 578.25170898 270.17358398 C578.20178801 274.22247265 578.20178801 274.22247265 578.1532135 278.27137756 C578.13086132 280.0805242 578.10650083 281.88964668 578.08058167 283.69874573 C578.04179914 286.43251087 578.00930873 289.16628396 577.97827148 291.90014648 C577.96530501 292.71159591 577.95233854 293.52304533 577.93897915 294.35908413 C577.92094591 296.23941296 577.95480839 298.12012782 578 300 C579.82238662 301.82238662 582.34756083 301.11997696 584.7724762 301.12442017 C585.60109665 301.12082489 586.4297171 301.11722961 587.28344727 301.11352539 C588.15166107 301.11367142 589.01987488 301.11381744 589.91439819 301.1139679 C592.79842586 301.11326846 595.6823898 301.10547463 598.56640625 301.09765625 C600.56037867 301.09579218 602.55435155 301.09436823 604.54832458 301.09336853 C609.80745702 301.08954248 615.06656203 301.07971145 620.32568359 301.06866455 C625.68782175 301.0584523 631.04996431 301.05387131 636.41210938 301.04882812 C646.94141833 301.03808926 657.47070689 301.0210118 668 301 C669.59417241 297.81165518 669.07851618 294.37543598 669.02172852 290.87841797 C669.01193686 290.02572893 669.00214521 289.17303989 668.99205685 288.2945118 C668.95911094 285.52698737 668.9191318 282.75961471 668.87890625 279.9921875 C668.85756925 278.28654544 668.83669191 276.58089757 668.81628418 274.87524414 C668.73726809 268.54175737 668.64933841 262.20838435 668.5625 255.875 C668.376875 241.72625 668.19125 227.5775 668 213 C638.63 213 609.26 213 579 213 Z M279.85668945 212.97827148 C279.01379207 212.98806314 278.17089468 212.99785479 277.30245495 213.00794315 C274.57264486 213.04083161 271.8429915 213.08083119 269.11328125 213.12109375 C267.42851336 213.14243661 265.74373951 213.16331373 264.05895996 213.18371582 C257.81006605 213.26266145 251.56128878 213.35063041 245.3125 213.4375 C224.3678125 213.7159375 224.3678125 213.7159375 203 214 C203 242.71 203 271.42 203 301 C232.04 301 261.08 301 291 301 C291 272.29 291 243.58 291 214 C287.23734491 212.74578164 283.77115422 212.91365566 279.85668945 212.97827148 Z M203 401 C203 429.71 203 458.42 203 488 C232.04 488 261.08 488 291 488 C291 459.29 291 430.58 291 401 C261.96 401 232.92 401 203 401 Z M391 401 C391 429.71 391 458.42 391 488 C420.04 488 449.08 488 479 488 C479 459.29 479 430.58 479 401 C449.96 401 420.92 401 391 401 Z M579 401 C577.75832166 404.72503501 577.86849449 408.17302099 577.88647461 412.05151367 C577.88635407 412.88449887 577.88623354 413.71748407 577.88610935 414.57571125 C577.88685598 417.27315754 577.89447288 419.97053481 577.90234375 422.66796875 C577.90381394 424.3328854 577.90483418 425.99780252 577.90539551 427.66271973 C577.91063943 433.83765353 577.92460062 440.01257744 577.9375 446.1875 C577.958125 459.985625 577.97875 473.78375 578 488 C607.7 488 637.4 488 668 488 C668 459.29 668 430.58 668 401 C638.63 401 609.26 401 579 401 Z " fill="#000000" transform="translate(448,0)"/>
<path d="M0 0 C149.82 0 299.64 0 454 0 C455.66360626 1.66360626 455.12606068 3.64771483 455.12698364 5.93493652 C455.12980347 7.00346359 455.13262329 8.07199066 455.13552856 9.17289734 C455.13249222 10.94646355 455.13249222 10.94646355 455.12939453 12.75585938 C455.13202301 14.61172417 455.13202301 14.61172417 455.13470459 16.50508118 C455.13836286 19.90789441 455.13748962 23.3106472 455.1343255 26.71345711 C455.13180159 30.26710214 455.13413953 33.82074452 455.13571167 37.37438965 C455.13753327 43.34318508 455.1351273 49.31196816 455.13037109 55.28076172 C455.12492849 62.19094568 455.12669115 69.10110015 455.1321975 76.0112834 C455.13672889 81.93399035 455.13737905 87.85668841 455.13475883 93.77939653 C455.1331962 97.32125361 455.13300191 100.86309681 455.13629532 104.404953 C455.13970828 108.35136063 455.13498386 112.29773496 455.12939453 116.24414062 C455.13141876 117.4265181 455.13344299 118.60889557 455.13552856 119.82710266 C455.13129883 121.42989326 455.13129883 121.42989326 455.12698364 123.06506348 C455.12660662 123.99938454 455.12622959 124.9337056 455.12584114 125.89633942 C455 128 455 128 454 129 C452.38402434 129.09709605 450.76377878 129.12371596 449.14488888 129.12304783 C447.55869902 129.1260344 447.55869902 129.1260344 445.94046491 129.12908131 C444.76442042 129.12616847 443.58837593 129.12325563 442.37669373 129.12025452 C441.13852294 129.12110894 439.90035215 129.12196337 438.62466103 129.12284368 C435.17222261 129.12421194 431.71984017 129.12106421 428.26740849 129.11606562 C424.55028158 129.11176462 420.83315653 129.11320729 417.11602783 129.1139679 C410.67064945 129.11449335 404.22528116 129.11134428 397.77990532 129.10573006 C388.46086651 129.09761801 379.14183259 129.09500014 369.82279063 129.09374207 C354.7048557 129.09155108 339.58692615 129.08488974 324.46899414 129.07543945 C309.77954129 129.06626654 295.0900899 129.05918512 280.40063477 129.05493164 C279.49583783 129.05466892 278.59104089 129.05440619 277.65882587 129.05413551 C273.11992292 129.05283051 268.58101996 129.05156679 264.042117 129.05032361 C226.36140753 129.03994954 188.68070418 129.02232997 151 129 C151.33 129.99 151.66 130.98 152 132 C152.0923144 133.86644755 152.12448489 135.7360823 152.1241985 137.60481137 C152.12756945 139.36934263 152.12756945 139.36934263 152.13100851 141.16952099 C152.12838148 142.47084197 152.12575446 143.77216295 152.12304783 145.1129179 C152.12378696 146.5085543 152.12496499 147.90419052 152.12654402 149.29982622 C152.12962532 153.15970879 152.12642823 157.0195652 152.12226575 160.87944583 C152.11884789 165.05965105 152.12120261 169.23985347 152.12284851 173.4200592 C152.12493181 180.76236084 152.12326977 188.10465438 152.11921513 195.44695508 C152.11312761 206.5066396 152.11284403 217.56631919 152.11368043 228.62600507 C152.11492425 247.15767943 152.1116219 265.68935025 152.10557556 284.22102356 C152.09741448 309.27841316 152.09547337 334.3357967 152.09460449 359.39318848 C152.08934813 419.65795971 152.0753871 479.92272992 152.0625 540.1875 C152.041875 674.765625 152.02125 809.34375 152 948 C519.95 948.33 887.9 948.66 1267 949 C1267 998.5 1267 1048 1267 1099 C848.89 1099 430.78 1099 0 1099 C0 736.33 0 373.66 0 0 Z " fill="#000000" transform="translate(0,501)"/>
<path d="M0 0 C0.9110393 -0.00658984 1.82207859 -0.01317969 2.76072514 -0.01996922 C3.76295105 -0.01191282 4.76517697 -0.00385642 5.79777336 0.00444412 C6.86135468 0.00117528 7.92493601 -0.00209356 9.02074707 -0.00546145 C12.60231694 -0.01277322 16.18348279 0.00144486 19.765028 0.01549149 C22.32539248 0.01470106 24.88575684 0.0126052 27.44611931 0.00929642 C33.68856606 0.00468505 39.9308615 0.0139883 46.17328633 0.02958438 C53.43675262 0.04709911 60.70019494 0.0485431 67.96367906 0.04919997 C80.91864745 0.05088879 93.87355986 0.06671404 106.82850456 0.0906868 C119.41184262 0.11395514 131.99514517 0.12811275 144.57850456 0.13170242 C145.74140248 0.13203657 145.74140248 0.13203657 146.92779328 0.13237748 C148.48948146 0.13282006 150.05116963 0.13326209 151.61285781 0.13370354 C152.38314693 0.13392311 153.15343605 0.13414268 153.94706726 0.1343689 C154.71535825 0.13458488 155.48364924 0.13480087 156.27522177 0.1350234 C168.25096046 0.13872043 180.22669338 0.15007954 192.20242576 0.16249929 C196.54947172 0.16694042 200.89651715 0.17037625 205.2435645 0.17312142 C212.77923671 0.17795885 220.3148722 0.18804621 227.85053062 0.20394897 C230.35924975 0.20848712 232.86797261 0.2113142 235.37669563 0.21235657 C238.7853122 0.21409129 242.19385858 0.22194493 245.60246086 0.2314949 C246.60914822 0.23062842 247.61583557 0.22976194 248.65302861 0.2288692 C249.55885241 0.23271034 250.46467621 0.23655149 251.39794922 0.24050903 C252.57966774 0.24237878 252.57966774 0.24237878 253.78525937 0.2442863 C255.57313347 0.3719368 255.57313347 0.3719368 256.57313347 1.3719368 C256.67199163 3.3312455 256.69945593 5.29416902 256.70011711 7.25597 C256.70293694 8.53485092 256.70575676 9.81373184 256.70866203 11.13136673 C256.70671743 12.56181731 256.70466925 13.99226775 256.702528 15.42271805 C256.70388199 16.91876137 256.7056619 18.41480436 256.70783806 19.91084671 C256.71241272 23.98511313 256.7106227 28.05935434 256.70745897 32.13362122 C256.70493554 36.38794653 256.70727286 40.64226961 256.70884514 44.896595 C256.71066688 52.04235092 256.7082604 59.18809651 256.70350456 66.33385086 C256.69806193 74.60732252 256.69982459 82.88076954 256.70533097 91.15424061 C256.70986196 98.24466571 256.71051272 105.33508337 256.7078923 112.42550945 C256.70632945 116.66600766 256.70613598 120.90649426 256.70942879 125.14699173 C256.7123073 129.13270731 256.71033218 133.11839097 256.70453453 137.10410309 C256.70320682 138.5711105 256.70360123 140.03812058 256.7057972 141.50512695 C256.70850825 143.49938489 256.70451427 145.49364866 256.70011711 147.48790359 C256.69974009 148.60658325 256.69936306 149.72526291 256.69897461 150.87784195 C256.57313347 153.3719368 256.57313347 153.3719368 255.57313347 154.3719368 C253.41615248 154.4708761 251.25585803 154.49749419 249.09660912 154.49777794 C248.40858678 154.49923138 247.72056444 154.50068482 247.01169294 154.5021823 C244.67721181 154.50586816 242.34279492 154.50234401 240.00831413 154.49892044 C238.32936968 154.50007124 236.65042547 154.50165848 234.9714818 154.50364769 C230.33522445 154.50784667 225.69898752 154.50574777 221.06273007 154.50266147 C216.07154208 154.50040989 211.08035774 154.50388576 206.08917046 154.50664139 C196.30249077 154.51110069 186.51581873 154.51012191 176.72913873 154.50722875 C168.77913117 154.50497534 160.82912576 154.50466192 152.87911797 154.50575256 C151.74997015 154.5059058 150.62082234 154.50605903 149.45745793 154.50621691 C147.16400619 154.50653661 144.87055446 154.50686083 142.57710272 154.5071895 C121.04391654 154.51004476 99.51073462 154.50675655 77.97754914 154.50138913 C59.47929777 154.49692105 40.98105269 154.49769697 22.48280144 154.50230789 C1.02952137 154.50765285 -20.42375497 154.50977006 -41.87703562 154.50669563 C-44.16230742 154.50637706 -46.44757922 154.50606269 -48.73285103 154.50575256 C-50.4196868 154.50552115 -50.4196868 154.50552115 -52.14060006 154.50528506 C-60.08605466 154.50441967 -68.0315069 154.50588326 -75.97696114 154.50823212 C-85.65263823 154.51102944 -95.32830722 154.51029329 -105.00398338 154.50495137 C-109.94576901 154.50231344 -114.88754108 154.50131084 -119.82932663 154.50460052 C-124.34561407 154.50756161 -128.86187527 154.50597384 -133.3781603 154.50062297 C-135.01945606 154.49949798 -136.660754 154.50009176 -138.30204839 154.50249876 C-140.51817868 154.5055016 -142.73421686 154.50245948 -144.95034218 154.49777794 C-146.18578978 154.49761559 -147.42123738 154.49745323 -148.69412279 154.49728596 C-151.42686653 154.3719368 -151.42686653 154.3719368 -152.42686653 153.3719368 C-152.46767436 151.37235316 -152.46941009 149.37148426 -152.42686653 147.3719368 C-151.76686653 147.3719368 -151.10686653 147.3719368 -150.42686653 147.3719368 C-150.09686653 146.3819368 -149.76686653 145.3919368 -149.42686653 144.3719368 C-147.86827278 142.76646805 -147.86827278 142.76646805 -145.98936653 141.1844368 C-145.37190559 140.65463211 -144.75444466 140.12482742 -144.11827278 139.57896805 C-142.42686653 138.3719368 -142.42686653 138.3719368 -140.42686653 138.3719368 C-140.09686653 137.3819368 -139.76686653 136.3919368 -139.42686653 135.3719368 C-138.76686653 135.3719368 -138.10686653 135.3719368 -137.42686653 135.3719368 C-137.09686653 134.3819368 -136.76686653 133.3919368 -136.42686653 132.3719368 C-135.76686653 132.3719368 -135.10686653 132.3719368 -134.42686653 132.3719368 C-134.16712044 131.78766922 -133.90737434 131.20340164 -133.63975716 130.60142899 C-132.34221053 128.21632516 -130.93345531 126.62003043 -129.02061653 124.7000618 C-128.35932747 124.03619461 -127.69803841 123.37232742 -127.01671028 122.68834305 C-125.98223763 121.66547195 -125.98223763 121.66547195 -124.92686653 120.6219368 C-124.23721809 119.92455399 -123.54756966 119.22717117 -122.83702278 118.50865555 C-122.17573372 117.84994461 -121.51444466 117.19123367 -120.83311653 116.5125618 C-120.22790169 115.90960281 -119.62268684 115.30664383 -118.99913216 114.68541336 C-117.42686653 113.3719368 -117.42686653 113.3719368 -115.42686653 113.3719368 C-114.93186653 111.8869368 -114.93186653 111.8869368 -114.42686653 110.3719368 C-113.76686653 110.3719368 -113.10686653 110.3719368 -112.42686653 110.3719368 C-111.93186653 108.8869368 -111.93186653 108.8869368 -111.42686653 107.3719368 C-110.76686653 107.3719368 -110.10686653 107.3719368 -109.42686653 107.3719368 C-109.16712044 106.78766922 -108.90737434 106.20340164 -108.63975716 105.60142899 C-107.34221053 103.21632516 -105.93345531 101.62003043 -104.02061653 99.7000618 C-103.02868294 98.70426102 -103.02868294 98.70426102 -102.01671028 97.68834305 C-101.32706184 97.00642899 -100.63741341 96.32451492 -99.92686653 95.6219368 C-99.23721809 94.92455399 -98.54756966 94.22717117 -97.83702278 93.50865555 C-97.17573372 92.84994461 -96.51444466 92.19123367 -95.83311653 91.5125618 C-95.22790169 90.90960281 -94.62268684 90.30664383 -93.99913216 89.68541336 C-92.42686653 88.3719368 -92.42686653 88.3719368 -90.42686653 88.3719368 C-89.93186653 86.8869368 -89.93186653 86.8869368 -89.42686653 85.3719368 C-88.76686653 85.3719368 -88.10686653 85.3719368 -87.42686653 85.3719368 C-86.93186653 83.8869368 -86.93186653 83.8869368 -86.42686653 82.3719368 C-85.76686653 82.3719368 -85.10686653 82.3719368 -84.42686653 82.3719368 C-84.16712044 81.78766922 -83.90737434 81.20340164 -83.63975716 80.60142899 C-82.34221053 78.21632516 -80.93345531 76.62003043 -79.02061653 74.7000618 C-78.35932747 74.03619461 -77.69803841 73.37232742 -77.01671028 72.68834305 C-76.32706184 72.00642899 -75.63741341 71.32451492 -74.92686653 70.6219368 C-74.23721809 69.92455399 -73.54756966 69.22717117 -72.83702278 68.50865555 C-72.17573372 67.84994461 -71.51444466 67.19123367 -70.83311653 66.5125618 C-70.22790169 65.90960281 -69.62268684 65.30664383 -68.99913216 64.68541336 C-67.42686653 63.3719368 -67.42686653 63.3719368 -65.42686653 63.3719368 C-65.09686653 62.3819368 -64.76686653 61.3919368 -64.42686653 60.3719368 C-63.76686653 60.3719368 -63.10686653 60.3719368 -62.42686653 60.3719368 C-62.09686653 59.3819368 -61.76686653 58.3919368 -61.42686653 57.3719368 C-60.76686653 57.3719368 -60.10686653 57.3719368 -59.42686653 57.3719368 C-59.16712044 56.78766922 -58.90737434 56.20340164 -58.63975716 55.60142899 C-57.34221053 53.21632516 -55.93345531 51.62003043 -54.02061653 49.7000618 C-53.35932747 49.03619461 -52.69803841 48.37232742 -52.01671028 47.68834305 C-51.32706184 47.00642899 -50.63741341 46.32451492 -49.92686653 45.6219368 C-49.23721809 44.92455399 -48.54756966 44.22717117 -47.83702278 43.50865555 C-47.17573372 42.84994461 -46.51444466 42.19123367 -45.83311653 41.5125618 C-45.22790169 40.90960281 -44.62268684 40.30664383 -43.99913216 39.68541336 C-42.42686653 38.3719368 -42.42686653 38.3719368 -40.42686653 38.3719368 C-40.09686653 37.3819368 -39.76686653 36.3919368 -39.42686653 35.3719368 C-38.76686653 35.3719368 -38.10686653 35.3719368 -37.42686653 35.3719368 C-37.09686653 34.3819368 -36.76686653 33.3919368 -36.42686653 32.3719368 C-35.76686653 32.3719368 -35.10686653 32.3719368 -34.42686653 32.3719368 C-34.16712044 31.78766922 -33.90737434 31.20340164 -33.63975716 30.60142899 C-32.34221053 28.21632516 -30.93345531 26.62003043 -29.02061653 24.7000618 C-28.02868294 23.70426102 -28.02868294 23.70426102 -27.01671028 22.68834305 C-25.98223763 21.66547195 -25.98223763 21.66547195 -24.92686653 20.6219368 C-24.23721809 19.92455399 -23.54756966 19.22717117 -22.83702278 18.50865555 C-21.84508919 17.52058914 -21.84508919 17.52058914 -20.83311653 16.5125618 C-20.22790169 15.90960281 -19.62268684 15.30664383 -18.99913216 14.68541336 C-17.42686653 13.3719368 -17.42686653 13.3719368 -15.42686653 13.3719368 C-15.09686653 12.3819368 -14.76686653 11.3919368 -14.42686653 10.3719368 C-13.76686653 10.3719368 -13.10686653 10.3719368 -12.42686653 10.3719368 C-12.09686653 9.3819368 -11.76686653 8.3919368 -11.42686653 7.3719368 C-10.76686653 7.3719368 -10.10686653 7.3719368 -9.42686653 7.3719368 C-9.02467903 6.4747493 -9.02467903 6.4747493 -8.61436653 5.5594368 C-6.3990215 1.47853805 -4.7030865 -0.00356303 0 0 Z " fill="#000000" transform="translate(198.42686653137207,259.6280632019043)"/>
<path d="M0 0 C18.995625 -0.061875 18.995625 -0.061875 38.375 -0.125 C42.3767334 -0.14320801 46.3784668 -0.16141602 50.50146484 -0.18017578 C55.38012695 -0.18920898 55.38012695 -0.18920898 57.6625061 -0.19088745 C59.25992953 -0.19396289 60.85734826 -0.20100577 62.45474243 -0.21115112 C64.87144057 -0.22573553 67.28785447 -0.22781387 69.70458984 -0.22705078 C70.77584138 -0.23784511 70.77584138 -0.23784511 71.86873436 -0.2488575 C76.77194733 -0.22805267 76.77194733 -0.22805267 79 2 C80.6635479 2.67441131 82.33066942 3.3400321 84 4 C86.8125 5.5 86.8125 5.5 89 7 C89 7.66 89 8.32 89 9 C89.60328125 9.09410156 90.2065625 9.18820312 90.828125 9.28515625 C93.49823228 10.16398652 94.19774496 11.133072 95.75 13.4375 C96.17796875 14.05496094 96.6059375 14.67242188 97.046875 15.30859375 C98 17 98 17 98 19 C98.66 19 99.32 19 100 19 C107.06177379 30.55562984 105.13528507 44.32174487 103 57 C102.34 57 101.68 57 101 57 C100.01 59.97 100.01 59.97 99 63 C98.34 63 97.68 63 97 63 C97 63.99 97 64.98 97 66 C90.36634802 73.41408163 83.57922385 78.42097819 74 81 C73.67 81.33 73.34 81.66 73 82 C70.73008113 82.09439978 68.45718033 82.11742226 66.18530273 82.11352539 C65.0997376 82.11370619 65.0997376 82.11370619 63.99224186 82.11389065 C61.63932837 82.11314163 59.28649315 82.10551393 56.93359375 82.09765625 C55.48506712 82.0961868 54.03653996 82.09516611 52.5880127 82.09460449 C47.20450039 82.08935201 41.82099943 82.07539092 36.4375 82.0625 C24.413125 82.041875 12.38875 82.02125 0 82 C0 54.94 0 27.88 0 0 Z " fill="#000000" transform="translate(467,1085)"/>
<path d="M0 0 C12.33375 -0.04125 24.6675 -0.0825 37.375 -0.125 C41.27231934 -0.14320801 45.16963867 -0.16141602 49.18505859 -0.18017578 C53.93676758 -0.18920898 53.93676758 -0.18920898 56.15982056 -0.19088745 C57.71557762 -0.1939627 59.27132986 -0.2010052 60.82705688 -0.21115112 C63.1808503 -0.22573705 65.53435192 -0.22781382 67.88818359 -0.22705078 C68.58361456 -0.234247 69.27904552 -0.24144321 69.99555016 -0.2488575 C74.77194733 -0.22805267 74.77194733 -0.22805267 77 2 C77.928125 2.309375 78.85625 2.61875 79.8125 2.9375 C82.90697261 3.96899087 85.33969984 5.12214106 88 7 C88 7.66 88 8.32 88 9 C88.75023437 9.24234375 89.50046875 9.4846875 90.2734375 9.734375 C96.25666358 12.51168911 100.75157328 19.96474932 103 26 C104.84801634 33.6023187 105.15191238 40.29971618 104 48 C103.80658244 49.70767347 103.61879825 51.41599738 103.4375 53.125 C103.293125 54.40375 103.14875 55.6825 103 57 C102.34 57 101.68 57 101 57 C100.9175 57.9075 100.835 58.815 100.75 59.75 C99.87346549 63.54831621 98.8643258 64.45393262 96 67 C95.278125 67.94875 94.55625 68.8975 93.8125 69.875 C88.41577964 76.4340909 79.7695454 81.53357422 71.31092834 82.36076355 C69.99410568 82.35410172 68.67728302 82.34743988 67.32055664 82.34057617 C66.20417014 82.34111858 66.20417014 82.34111858 65.06523037 82.34167194 C62.67992236 82.33945059 60.29533678 82.31668847 57.91015625 82.29296875 C56.42802264 82.28855235 54.94588435 82.28549524 53.46374512 82.28381348 C47.99659159 82.26814909 42.52953853 82.22626521 37.0625 82.1875 C24.831875 82.125625 12.60125 82.06375 0 82 C0 54.94 0 27.88 0 0 Z " fill="#000000" transform="translate(467,913)"/>
</svg>
