<svg width="48" height="48" viewBox="0 0 61 61" fill="none" xmlns="http://www.w3.org/2000/svg">
                    <path d="M58.203 9.16675H49.5085V11.5878H57.8197V51.587H2.89822V11.5878H17.2693V9.16675H2.39518C1.75994 9.16675 1.15075 9.38479 0.701568 9.77286C0.252384 10.1609 0 10.6872 0 11.236V51.8974C0 52.4462 0.252384 52.9725 0.701568 53.3606C1.15075 53.7487 1.75994 53.9667 2.39518 53.9667H17.2453V58.1052H8.98194V60.5263H51.4486V58.1052H42.0594V55.022H39.2571V58.1052H20.0956V53.9667H58.1311C58.7664 53.9667 59.3756 53.7487 59.8247 53.3606C60.2739 52.9725 60.5263 52.4462 60.5263 51.8974V11.2567C60.5263 10.7079 60.2739 10.1816 59.8247 9.79351C59.3756 9.40544 58.7664 9.18746 58.1311 9.18746" fill="#A9A9A9" />
                    <path d="M19.784 10.2015V14.6298L7.13745 21.1067V45.0482H53.4363V15.7058L41.0293 7.30456V0L19.7361 10.3464L19.784 10.2015ZM19.784 42.6272H9.98772V22.4724L19.784 17.444V42.6065V42.6272ZM38.2748 5.38014V42.6272H22.5864V11.588L38.2748 3.9937V5.38014ZM50.7298 16.844V42.6272H41.1491V10.3464L50.7298 16.8646V16.844Z" fill="#A9A9A9" />
                    <path d="M26.5626 12.6433H24.1436V14.1953H26.5626V12.6433Z" fill="#A9A9A9" />
                    <path d="M36.7184 12.6433H34.2992V14.1953H36.7184V12.6433Z" fill="#A9A9A9" />
                    <path d="M32.6942 12.6433H28.1194V14.1953H32.6942V12.6433Z" fill="#A9A9A9" />
                    <path d="M26.5626 16.9266H24.1436V18.4786H26.5626V16.9266Z" fill="#A9A9A9" />
                    <path d="M36.7184 16.9266H34.2992V18.4786H36.7184V16.9266Z" fill="#A9A9A9" />
                    <path d="M32.6942 16.9266H28.1194V18.4786H32.6942V16.9266Z" fill="#A9A9A9" />
                    <path d="M26.5626 21.2102H24.1436V22.7622H26.5626V21.2102Z" fill="#A9A9A9" />
                    <path d="M36.7184 21.2102H34.2992V22.7622H36.7184V21.2102Z" fill="#A9A9A9" />
                    <path d="M32.6942 21.2102H28.1194V22.7622H32.6942V21.2102Z" fill="#A9A9A9" />
                    <path d="M26.5626 25.4937H24.1436V27.0456H26.5626V25.4937Z" fill="#A9A9A9" />
                    <path d="M36.7184 25.4937H34.2992V27.0456H36.7184V25.4937Z" fill="#A9A9A9" />
                    <path d="M32.6942 25.4937H28.1194V27.0456H32.6942V25.4937Z" fill="#A9A9A9" />
                    <path d="M26.5626 29.777H24.1436V31.3289H26.5626V29.777Z" fill="#A9A9A9" />
                    <path d="M36.7184 29.777H34.2992V31.3289H36.7184V29.777Z" fill="#A9A9A9" />
                    <path d="M32.6942 29.777H28.1194V31.3289H32.6942V29.777Z" fill="#A9A9A9" />
                    <path d="M26.5626 34.0603H24.1436V35.6123H26.5626V34.0603Z" fill="#A9A9A9" />
                    <path d="M14.2032 34.0603H11.7841V35.6123H14.2032V34.0603Z" fill="#A9A9A9" />
                    <path d="M18.1556 34.0603H15.7365V35.6123H18.1556V34.0603Z" fill="#A9A9A9" />
                    <path d="M14.2032 29.777H11.7841V31.3289H14.2032V29.777Z" fill="#A9A9A9" />
                    <path d="M18.1556 29.777H15.7365V31.3289H18.1556V29.777Z" fill="#A9A9A9" />
                    <path d="M14.2032 25.4937H11.7841V27.0456H14.2032V25.4937Z" fill="#A9A9A9" />
                    <path d="M18.1556 25.4937H15.7365V27.0456H18.1556V25.4937Z" fill="#A9A9A9" />
                    <path d="M18.1556 21.2102H15.7365V22.7622H18.1556V21.2102Z" fill="#A9A9A9" />
                    <path d="M14.2032 38.3439H11.7841V39.8958H14.2032V38.3439Z" fill="#A9A9A9" />
                    <path d="M18.1556 38.3439H15.7365V39.8958H18.1556V38.3439Z" fill="#A9A9A9" />
                    <path d="M44.8377 34.0603H42.4186V35.6123H44.8377V34.0603Z" fill="#A9A9A9" />
                    <path d="M48.814 34.0603H46.3949V35.6123H48.814V34.0603Z" fill="#A9A9A9" />
                    <path d="M44.8377 29.777H42.4186V31.3289H44.8377V29.777Z" fill="#A9A9A9" />
                    <path d="M48.814 29.777H46.3949V31.3289H48.814V29.777Z" fill="#A9A9A9" />
                    <path d="M44.8377 25.4937H42.4186V27.0456H44.8377V25.4937Z" fill="#A9A9A9" />
                    <path d="M48.814 25.4937H46.3949V27.0456H48.814V25.4937Z" fill="#A9A9A9" />
                    <path d="M44.8377 21.2102H42.4186V22.7622H44.8377V21.2102Z" fill="#A9A9A9" />
                    <path d="M48.814 21.2102H46.3949V22.7622H48.814V21.2102Z" fill="#A9A9A9" />
                    <path d="M44.8377 16.9266H42.4186V18.4786H44.8377V16.9266Z" fill="#A9A9A9" />
                    <path d="M48.814 16.9266H46.3949V18.4786H48.814V16.9266Z" fill="#A9A9A9" />
                    <path d="M44.8377 38.3439H42.4186V39.8958H44.8377V38.3439Z" fill="#A9A9A9" />
                    <path d="M48.814 38.3439H46.3949V39.8958H48.814V38.3439Z" fill="#A9A9A9" />
                    <path d="M36.7184 34.0603H34.2992V35.6123H36.7184V34.0603Z" fill="#A9A9A9" />
                    <path d="M32.6942 34.0603H28.1194V35.6123H32.6942V34.0603Z" fill="#A9A9A9" />
                    <path d="M26.5626 38.3439H24.1436V39.8958H26.5626V38.3439Z" fill="#A9A9A9" />
                    <path d="M36.7184 38.3439H34.2992V39.8958H36.7184V38.3439Z" fill="#A9A9A9" />
                    <path d="M32.6942 38.3439H28.1194V39.8958H32.6942V38.3439Z" fill="#A9A9A9" />
                  </svg>